<?xml version="1.0" encoding="UTF-8"?>
<svg version="1.1" xmlns="http://www.w3.org/2000/svg" width="960" height="1438">
<path d="M0 0 C316.8 0 633.6 0 960 0 C960 474.54 960 949.08 960 1438 C643.2 1438 326.4 1438 0 1438 C0 963.46 0 488.92 0 0 Z " fill="#FEFEFE" transform="translate(0,0)"/>
<path d="M0 0 C316.8 0 633.6 0 960 0 C960 474.54 960 949.08 960 1438 C643.2 1438 326.4 1438 0 1438 C0 963.46 0 488.92 0 0 Z M62 350 C62 633.14 62 916.28 62 1208 C335.57 1208 609.14 1208 891 1208 C891 924.86 891 641.72 891 350 C617.43 350 343.86 350 62 350 Z " fill="#020202" transform="translate(0,0)"/>
<path d="M0 0 C273.9 0 547.8 0 830 0 C830 77.22 830 154.44 830 234 C556.1 234 282.2 234 0 234 C0 156.78 0 79.56 0 0 Z " fill="#FCFCFC" transform="translate(62,66)"/>
<path d="M0 0 C22.72601398 20.32861655 37.58802577 45.18933573 48.703125 73.41796875 C48.96174316 74.06282227 49.22036133 74.70767578 49.48681641 75.37207031 C53.30201952 84.96956671 55.68447628 94.87962574 58.07397461 104.90087891 C58.74393153 107.58122656 59.49165956 110.23290059 60.24609375 112.890625 C70.20960155 149.22756337 67.19138319 191.42920748 48.81787109 224.52197266 C45.76990162 229.7060574 42.27724226 234.58629172 38.703125 239.41796875 C41.39375534 241.21172231 43.96728536 242.40293827 46.94433594 243.62402344 C61.24827468 249.53847619 72.76827213 257.51361756 83.703125 268.41796875 C84.55519531 269.24683594 85.40726562 270.07570313 86.28515625 270.9296875 C96.174314 281.09916783 103.20863393 293.55147033 109.015625 306.41796875 C109.30453613 307.05549072 109.59344727 307.6930127 109.89111328 308.34985352 C116.66053175 324.08578241 120.98152285 340.92897882 125.703125 357.35546875 C135.90582108 392.78953237 146.30583419 428.83035705 161.703125 462.41796875 C162.00879395 463.08989258 162.31446289 463.76181641 162.62939453 464.45410156 C166.63737568 473.07160281 172.10269971 479.85372364 178.35302734 486.89111328 C180.42993814 489.23993789 182.4525312 491.62894225 184.453125 494.04296875 C185.43539062 495.20699219 185.43539062 495.20699219 186.4375 496.39453125 C187.06398438 497.39613281 187.06398438 497.39613281 187.703125 498.41796875 C187.373125 499.40796875 187.043125 500.39796875 186.703125 501.41796875 C184.56787109 502.3059082 184.56787109 502.3059082 181.7265625 503.03125 C180.14862915 503.44431396 180.14862915 503.44431396 178.53881836 503.86572266 C177.39678955 504.15108887 176.25476074 504.43645508 175.078125 504.73046875 C173.90838135 505.03388184 172.7386377 505.33729492 171.53344727 505.64990234 C167.92612262 506.58382649 164.31491444 507.50148525 160.703125 508.41796875 C156.68074099 509.4536944 152.66051875 510.49762568 148.640625 511.54296875 C147.20891968 511.91301025 147.20891968 511.91301025 145.74829102 512.29052734 C140.30175345 513.70676864 134.89992308 515.21981713 129.515625 516.85546875 C120.75788368 519.51327455 111.87435344 521.64547463 102.98950195 523.83178711 C96.68065387 525.39361842 90.41765965 527.01565761 84.203125 528.91796875 C76.47039021 531.24471223 68.69393599 533.40327159 60.890625 535.48046875 C59.65441406 535.82851562 58.41820312 536.1765625 57.14453125 536.53515625 C55.98179687 536.83808594 54.8190625 537.14101562 53.62109375 537.453125 C52.05524536 537.87670288 52.05524536 537.87670288 50.45776367 538.30883789 C47.703125 538.41796875 47.703125 538.41796875 45.41992188 536.60864258 C43.7519093 534.48021868 42.35113111 532.39313867 41.015625 530.04296875 C38.92920114 526.45347884 36.76228496 522.94642164 34.47705078 519.47973633 C25.59767679 505.96067244 19.1115704 492.21223326 13.63696289 476.98413086 C13.02331814 475.29785114 12.39018455 473.61851295 11.73608398 471.94750977 C8.75518922 464.20159406 6.78943714 456.28397335 4.84124756 448.23202515 C3.86514736 444.20202818 2.86693349 440.17749964 1.87109375 436.15234375 C1.58301849 434.98514046 1.58301849 434.98514046 1.28912354 433.7943573 C-2.19453991 419.70708244 -6.33630597 405.84739793 -10.60546875 391.98046875 C-11.65669588 388.5526818 -12.67653563 385.12016845 -13.64453125 381.66796875 C-18.03652413 366.00638305 -23.37185646 348.32624368 -37.2421875 338.50390625 C-43.76716287 335.05534512 -49.94013152 335.03432286 -57.171875 335.04296875 C-58.83077759 335.04103516 -58.83077759 335.04103516 -60.52319336 335.0390625 C-69.62729818 335.15563743 -77.66473707 336.53630125 -86.296875 339.41796875 C-85.64886112 346.01521852 -84.19515603 352.20808161 -82.484375 358.60546875 C-82.23623047 359.55744141 -81.98808594 360.50941406 -81.73242188 361.49023438 C-80.38351126 366.60099242 -78.92703004 371.65997035 -77.34375 376.703125 C-75.28807695 383.304932 -73.55164354 389.96944645 -71.86251831 396.67321777 C-68.51345004 409.97940958 -68.51345004 409.97940958 -64.734375 423.16796875 C-62.21052591 431.44961594 -60.09791695 439.83093334 -57.95068359 448.21679688 C-56.18876842 455.06646819 -54.34319105 461.8794503 -52.359375 468.66796875 C-49.59681502 478.12997079 -47.14755657 487.6654297 -44.71228027 497.21536255 C-42.79768761 504.71568794 -40.85817563 512.1971729 -38.609375 519.60546875 C-36.49862221 526.56524823 -34.70306156 533.57808476 -32.99536133 540.6472168 C-32.16015838 544.08315181 -31.31658035 547.36459213 -30.08984375 550.6875 C-29.2003003 553.75050921 -29.57690417 555.36632873 -30.296875 558.41796875 C-30.92964355 558.57354248 -31.56241211 558.72911621 -32.21435547 558.8894043 C-43.28020965 561.61633979 -54.33261762 564.36252669 -65.30224609 567.45629883 C-71.78734891 569.28467572 -78.28959759 571.04523958 -84.796875 572.79296875 C-85.89942627 573.08937256 -87.00197754 573.38577637 -88.13793945 573.69116211 C-93.71228229 575.18892135 -99.28753763 576.68324632 -104.86328125 578.17578125 C-107.02870508 578.75628946 -109.19407003 579.33701735 -111.359375 579.91796875 C-112.41713135 580.20148193 -113.4748877 580.48499512 -114.56469727 580.77709961 C-120.1807587 582.28847519 -125.78662079 583.83059636 -131.3828125 585.4140625 C-132.53128662 585.73890625 -133.67976074 586.06375 -134.86303711 586.3984375 C-137.06542756 587.02363632 -139.26681304 587.65238923 -141.46704102 588.28515625 C-142.45115967 588.56488281 -143.43527832 588.84460937 -144.44921875 589.1328125 C-145.7484729 589.50587524 -145.7484729 589.50587524 -147.07397461 589.88647461 C-149.296875 590.41796875 -149.296875 590.41796875 -152.296875 590.41796875 C-152.4419751 589.87720703 -152.5870752 589.33644531 -152.73657227 588.77929688 C-155.61958083 578.06039008 -158.58131535 567.37326598 -161.734375 556.73046875 C-164.63844004 546.89996303 -167.26488395 537.01295032 -169.80786133 527.08349609 C-171.99888895 518.53112097 -174.30516477 510.01901739 -176.70410156 501.52294922 C-177.74567408 497.82425143 -178.76997964 494.12076236 -179.796875 490.41796875 C-180.21612004 488.91014908 -180.63539079 487.40233656 -181.0546875 485.89453125 C-181.86621107 482.97380603 -182.67330324 480.05191456 -183.4765625 477.12890625 C-185.51569182 469.7251046 -187.60720829 462.34156533 -189.78613281 454.97753906 C-193.01129554 444.06461247 -195.98439895 433.10809711 -198.80761719 422.08447266 C-200.99871381 413.53176838 -203.30507351 405.0193406 -205.70410156 396.52294922 C-206.74567408 392.82425143 -207.76997964 389.12076236 -208.796875 385.41796875 C-209.21612004 383.91014908 -209.63539079 382.40233656 -210.0546875 380.89453125 C-210.86621107 377.97380603 -211.67330324 375.05191456 -212.4765625 372.12890625 C-214.51569182 364.7251046 -216.60720829 357.34156533 -218.78613281 349.97753906 C-222.01129554 339.06461247 -224.98439895 328.10809711 -227.80761719 317.08447266 C-230.00102981 308.52272813 -232.31076566 300.00178029 -234.71289062 291.49658203 C-235.3053873 289.38767037 -235.88850256 287.27637523 -236.46875 285.1640625 C-238.55957436 277.56207462 -240.71039869 269.98199205 -242.93847656 262.41894531 C-245.59444365 253.40330305 -248.12264052 244.39470909 -250.33984375 235.26171875 C-251.97509087 228.69403235 -253.83046585 222.18823122 -255.66455078 215.67382812 C-256.27631755 213.49130886 -256.88005986 211.30676209 -257.48046875 209.12109375 C-259.51639276 201.71933784 -261.60801173 194.33884997 -263.78613281 186.97753906 C-267.01129554 176.06461247 -269.98439895 165.10809711 -272.80761719 154.08447266 C-274.99871381 145.53176838 -277.30507351 137.0193406 -279.70410156 128.52294922 C-280.74567408 124.82425143 -281.76997964 121.12076236 -282.796875 117.41796875 C-283.21612004 115.91014908 -283.63539079 114.40233656 -284.0546875 112.89453125 C-284.86621107 109.97380603 -285.67330324 107.05191456 -286.4765625 104.12890625 C-288.51584926 96.72453295 -290.60756872 89.34043651 -292.78662109 81.97583008 C-296.65812479 68.87613926 -300.14052698 55.69644445 -303.50585938 42.45849609 C-304.53225238 38.5132188 -305.63469015 34.59073003 -306.75488281 30.67114258 C-307.296875 28.41796875 -307.296875 28.41796875 -307.296875 25.41796875 C-306.64952393 25.26763184 -306.00217285 25.11729492 -305.33520508 24.96240234 C-293.36801544 22.17030431 -281.46840648 19.27397839 -269.67700195 15.81005859 C-261.76157955 13.50445181 -253.78477288 11.45419358 -245.796875 9.41796875 C-236.27908551 6.99014443 -226.80381316 4.4693142 -217.37597656 1.70922852 C-208.80028518 -0.77624861 -200.14898929 -2.96097981 -191.49838257 -5.16690063 C-183.33803855 -7.24997749 -175.22018221 -9.41085293 -167.16210938 -11.86181641 C-161.17018631 -13.66699729 -155.11063655 -15.15004263 -149.03222656 -16.63305664 C-142.76242929 -18.17757062 -136.5594056 -19.90414595 -130.359375 -21.70703125 C-122.72002383 -23.91701372 -115.10560969 -26.04271149 -107.296875 -27.58203125 C-106.28882813 -27.78699219 -105.28078125 -27.99195313 -104.2421875 -28.203125 C-67.10420277 -34.65996887 -28.69290267 -24.37218779 0 0 Z " fill="#000000" transform="translate(388.296875,544.58203125)"/>
<path d="M0 0 C1.30928467 0.00563965 2.61856934 0.0112793 3.9675293 0.01708984 C39.10635261 0.45445766 69.79002192 14.18171238 94.3125 39.3125 C113.15825999 59.18929939 126.69676969 83.79364901 136.3125 109.3125 C136.67972168 110.28670898 137.04694336 111.26091797 137.42529297 112.26464844 C143.28560603 128.03466489 147.74927668 143.88007162 151.3125 160.3125 C151.63219588 161.72279617 151.95243403 163.13296963 152.2734375 164.54296875 C155.7887672 180.77961535 156.70128632 197.18138586 156.625 213.75 C156.62284485 214.60034821 156.6206897 215.45069641 156.61846924 216.32681274 C156.45408958 256.8359472 144.39822549 292.7576197 115.29736328 321.76000977 C94.01357579 342.11456062 64.54885975 354.9529293 36.1328125 361.4296875 C31.98322185 362.38859086 27.90692564 363.52006051 23.8125 364.6875 C16.36354705 366.78772197 8.87974833 368.73424277 1.375 370.625 C-0.19894531 371.02501221 -0.19894531 371.02501221 -1.8046875 371.43310547 C-2.78566406 371.67818848 -3.76664063 371.92327148 -4.77734375 372.17578125 C-5.65253662 372.39532471 -6.52772949 372.61486816 -7.42944336 372.84106445 C-9.6875 373.3125 -9.6875 373.3125 -12.6875 373.3125 C-6.76734046 399.33528843 -6.76734046 399.33528843 0.21337891 425.0847168 C2.10115899 431.45123222 3.73300783 437.86299193 5.3125 444.3125 C7.39887715 452.82268678 9.67906698 461.24912134 12.1328125 469.66015625 C13.8295575 475.51437068 15.36693813 481.3915575 16.8125 487.3125 C18.67122416 494.91921146 20.74978295 502.43848012 22.93920898 509.95605469 C25.05838896 517.28996719 26.98235103 524.66722533 28.875 532.0625 C30.94792577 540.16134655 33.10849263 548.20802589 35.53051758 556.20898438 C38.59131582 566.42947753 41.26565375 576.84015688 43.3125 587.3125 C42.45309814 587.52342285 41.59369629 587.7343457 40.70825195 587.95166016 C20.6797168 592.82823875 20.6797168 592.82823875 0.8125 598.3125 C-7.95960211 600.90023005 -16.80936101 603.12506351 -25.6875 605.3125 C-37.35181119 608.18717494 -48.92272109 611.28998697 -60.45361328 614.66308594 C-64.0235998 615.70091808 -67.60166107 616.70595369 -71.1875 617.6875 C-72.90453125 618.16316406 -72.90453125 618.16316406 -74.65625 618.6484375 C-77.46906938 619.26464793 -79.82743696 619.36387476 -82.6875 619.3125 C-82.90889648 618.45197021 -83.13029297 617.59144043 -83.35839844 616.70483398 C-84.20032835 613.4337041 -85.04285092 610.16272795 -85.88574219 606.8918457 C-86.2466474 605.49086278 -86.60733343 604.08982338 -86.96777344 602.6887207 C-90.24900517 589.93499458 -93.55901692 577.19131834 -97.17260742 564.52685547 C-101.07395846 550.8439229 -104.54006115 537.06930488 -107.95458984 523.25830078 C-109.9063517 515.41354445 -112.02925374 507.61952683 -114.23828125 499.84375 C-118.43436383 485.04778659 -122.26355773 470.18769933 -125.95458984 455.25830078 C-127.9063517 447.41354445 -130.02925374 439.61952683 -132.23828125 431.84375 C-136.12196859 418.14933511 -139.71530679 404.40886909 -143.12890625 390.58984375 C-144.59683724 384.65055812 -146.13879319 378.73731416 -147.73828125 372.83203125 C-148.43502265 370.24864029 -149.1200153 367.66378985 -149.79296875 365.07421875 C-152.11589548 356.14415362 -154.5430027 347.25170404 -157.0625 338.375 C-159.96678975 328.12447243 -162.58811507 317.81994302 -165.13232422 307.47485352 C-166.84790727 300.54284078 -168.67719156 293.66457497 -170.6875 286.8125 C-174.13095559 275.07349947 -177.00214905 263.19654971 -179.93847656 251.32275391 C-181.88412432 243.50338074 -183.99457577 235.73319688 -186.203125 227.984375 C-189.78993882 215.36701122 -193.12593236 202.71470678 -196.26303101 189.97988892 C-198.48412859 180.97442498 -200.84667096 172.03264825 -203.46459961 163.13330078 C-206.62355331 152.28452055 -209.22642915 141.28961542 -211.93847656 130.32275391 C-213.89578764 122.45650696 -216.02318527 114.64088786 -218.23828125 106.84375 C-221.52773224 95.24664803 -224.68691972 83.62868973 -227.625 71.9375 C-227.93155518 70.72489502 -228.23811035 69.51229004 -228.55395508 68.26293945 C-228.83392334 67.13718506 -229.1138916 66.01143066 -229.40234375 64.8515625 C-229.65105225 63.85334473 -229.89976074 62.85512695 -230.15600586 61.82666016 C-230.6875 59.3125 -230.6875 59.3125 -230.6875 56.3125 C-229.45 56.03277344 -228.2125 55.75304687 -226.9375 55.46484375 C-216.12920599 52.97875636 -205.48718929 50.14848254 -194.86108398 46.97485352 C-186.69129923 44.55507544 -178.46517697 42.46217312 -170.18945312 40.43945312 C-163.86682574 38.88470869 -157.62808899 37.16759002 -151.3996582 35.2746582 C-144.79273498 33.29109337 -138.11960165 31.58530259 -131.4375 29.875 C-123.31971343 27.79640303 -115.23260906 25.65715551 -107.1875 23.3125 C-97.98043536 20.62920575 -88.71074698 18.2276787 -79.4206543 15.84985352 C-73.24292275 14.26038797 -67.10353862 12.60349385 -61 10.75 C-54.21016801 8.70207023 -47.37221834 6.87619905 -40.5 5.125 C-39.53811768 4.87484131 -38.57623535 4.62468262 -37.58520508 4.36694336 C-25.10442527 1.23430892 -12.85742706 -0.05852265 0 0 Z " fill="#000000" transform="translate(708.6875,420.6875)"/>
<path d="M0 0 C316.8 0 633.6 0 960 0 C960 474.54 960 949.08 960 1438 C643.2 1438 326.4 1438 0 1438 C0 963.46 0 488.92 0 0 Z M14 16 C14 480.64 14 945.28 14 1424 C321.56 1424 629.12 1424 946 1424 C946 959.36 946 494.72 946 16 C638.44 16 330.88 16 14 16 Z " fill="#FFFFFF" transform="translate(0,0)"/>
<path d="M0 0 C28.72594816 -0.08032734 28.72594816 -0.08032734 43.04017544 -0.10050774 C50.74401287 -0.11153804 58.44780641 -0.12548259 66.15161133 -0.15087891 C72.91436376 -0.17316207 79.6770687 -0.18460547 86.43985558 -0.18975449 C89.00591464 -0.19341881 91.57197144 -0.20057319 94.13801003 -0.21146011 C156.87537693 -0.46678532 156.87537693 -0.46678532 175.36328125 17.0703125 C178.98109557 21.33570695 179.50407743 24.92045908 179.375 30.40625 C178.43679506 36.89550087 173.99890965 41.61440371 169.046875 45.61328125 C165.25841029 48.17989379 161.15769587 50.10937773 157 52 C157.83402344 52.21914062 158.66804687 52.43828125 159.52734375 52.6640625 C170.47261467 55.74829692 179.0674712 59.86045601 185.10546875 69.82421875 C187.47903257 75.59747223 186.7503602 83.00561821 184.5625 88.75 C179.6041889 98.27064597 169.92017886 103.77280569 160 107 C144.95475033 111.1385214 129.33669399 113.32558965 113.75244141 113.22705078 C111.89131966 113.22748886 111.89131966 113.22748886 109.99259949 113.22793579 C106.64012908 113.2267938 103.28791524 113.21687087 99.93549013 113.20278788 C96.41349346 113.19015392 92.89149216 113.18910016 89.36947632 113.18673706 C82.7223334 113.18055905 76.07525748 113.16419891 69.42814386 113.14403808 C61.10575467 113.11935236 52.78335425 113.10851198 44.4609375 113.09765625 C29.64057301 113.07826438 14.8203544 113.03818585 0 113 C0 75.71 0 38.42 0 0 Z " fill="#FDFDFD" transform="translate(705,1258)"/>
<path d="M0 0 C15.43893736 -0.08036462 30.87729923 -0.16069059 46.31628036 -0.20101547 C54.61101407 -0.2230198 62.90558362 -0.25076983 71.20019531 -0.30175781 C77.77656624 -0.3421636 84.35281224 -0.36755724 90.92930388 -0.37635398 C94.39785386 -0.38148002 97.86604708 -0.39314537 101.33448029 -0.42292023 C162.11387945 -0.88539537 162.11387945 -0.88539537 179 14 C185.64557437 21.31891451 186.65420243 27.40399961 186.3984375 37.2265625 C185.70045136 43.83690186 182.89128948 47.627257 177.84375 51.76953125 C170.83730594 56.70043623 163.09377666 59.41219386 155 62 C155.99 62.23074219 156.98 62.46148438 158 62.69921875 C167.57992198 65.02658554 176.30818127 67.24335581 182 76 C183.67167025 79.58355118 184.25529369 82.43574702 184.30859375 86.37890625 C184.33373047 87.38244141 184.35886719 88.38597656 184.38476562 89.41992188 C184.41998637 91.51881733 184.45122195 93.61778337 184.47851562 95.71679688 C184.5181543 97.22016602 184.5181543 97.22016602 184.55859375 98.75390625 C184.57877563 100.12011108 184.57877563 100.12011108 184.59936523 101.51391602 C185.07667047 104.47576807 185.93753847 105.84471405 188 108 C188.99 108.33 189.98 108.66 191 109 C191 110.32 191 111.64 191 113 C168.23 113 145.46 113 122 113 C120.12045939 109.24091878 119.74775891 107.94496629 119.69140625 103.97265625 C119.66626953 103.01552734 119.64113281 102.05839844 119.61523438 101.07226562 C119.58014768 99.06972501 119.54888234 97.0671137 119.52148438 95.06445312 C119.41553731 88.01292243 119.41553731 88.01292243 116 82 C108.78320911 76.90579466 101.14567149 76.88143624 92.5625 76.68359375 C91.88251953 76.66494263 91.20253906 76.6462915 90.50195312 76.6270752 C88.00141352 76.55961761 85.50069475 76.4989379 83 76.4375 C74.585 76.2209375 74.585 76.2209375 66 76 C66 88.21 66 100.42 66 113 C44.22 113 22.44 113 0 113 C0 75.71 0 38.42 0 0 Z " fill="#FDFDFD" transform="translate(478,1258)"/>
<path d="M0 0 C54.78 0 109.56 0 166 0 C166 8.58 166 17.16 166 26 C133.33 26 100.66 26 67 26 C67 31.28 67 36.56 67 42 C95.05 42 123.1 42 152 42 C152 51.57 152 61.14 152 71 C123.95 71 95.9 71 67 71 C67 76.28 67 81.56 67 87 C101.32 87 135.64 87 171 87 C171 95.91 171 104.82 171 114 C114.57 114 58.14 114 0 114 C0 76.38 0 38.76 0 0 Z " fill="#FAFAFA" transform="translate(61,1258)"/>
<path d="M0 0 C1.02637573 0.00337372 2.05275146 0.00674744 3.11022949 0.01022339 C30.92165803 0.14245017 60.30448539 1.955093 81.625 21.9375 C85.28647693 25.78075238 88.75 29.94130973 88.75 35.4375 C65.98 35.4375 43.21 35.4375 19.75 35.4375 C19.42 33.7875 19.09 32.1375 18.75 30.4375 C10.17522069 27.87847341 2.30440186 26.96937762 -6.625 27.0625 C-7.76066406 27.05089844 -8.89632812 27.03929687 -10.06640625 27.02734375 C-18.09900469 27.02295062 -18.09900469 27.02295062 -25.25 30.4375 C-26.21044102 32.51440578 -26.21044102 32.51440578 -26.25 34.4375 C-17.0750462 41.62868001 -5.00198163 42.18212031 6.1942749 43.57180786 C20.47898417 45.35358547 34.6909481 47.29369902 48.75 50.4375 C49.42530762 50.58509766 50.10061523 50.73269531 50.79638672 50.88476562 C64.71848322 54.00067975 80.71483431 58.67374202 89.421875 70.7578125 C92.17218568 76.30696875 91.58275764 83.1362108 90.09375 89.0390625 C86.02168049 99.25434032 77.32594322 104.79394517 67.75 109.4375 C58.32994029 113.20145474 48.68685648 115.51774279 38.75 117.4375 C37.84378906 117.63214844 36.93757812 117.82679687 36.00390625 118.02734375 C24.57477913 120.47007451 13.2031627 120.64259817 1.5625 120.625 C0.76553711 120.62406342 -0.03142578 120.62312683 -0.85253906 120.62216187 C-30.13638418 120.54770519 -64.8683586 119.64229418 -87.05078125 97.65234375 C-91.36985425 92.96218094 -93.25 88.93331858 -93.25 82.4375 C-85.00923868 82.27503828 -76.76915036 82.15079764 -68.52718163 82.0748148 C-64.69967312 82.03833899 -60.87326303 81.98889897 -57.04638672 81.90942383 C-53.3504527 81.83315172 -49.65557238 81.7914672 -45.9589119 81.7733593 C-44.55141234 81.76046222 -43.1439681 81.73527478 -41.7369194 81.6973896 C-30.65196884 81.41089751 -30.65196884 81.41089751 -27.17411804 83.95758057 C-25.71474196 85.7167538 -24.49764178 87.52637072 -23.25 89.4375 C-16.14623854 94.21764352 -7.94281342 93.98629607 0.3125 93.8125 C1.47974609 93.81121094 2.64699219 93.80992188 3.84960938 93.80859375 C12.7160341 93.71868071 20.41215245 92.43057348 28.75 89.4375 C29.16746608 86.56385209 29.16746608 86.56385209 28.75 83.4375 C19.48396559 74.81050244 -1.36014061 75.03683959 -13.41015625 73.53515625 C-69.77069891 66.47387629 -69.77069891 66.47387629 -85.09375 48.2109375 C-88.92489244 42.33479335 -89.0845721 36.2472532 -88.25 29.4375 C-85.4838761 21.60910081 -78.20933504 15.5800828 -71.1171875 11.7421875 C-48.84911421 1.64800394 -24.12092672 -0.15453341 0 0 Z " fill="#FCFCFC" transform="translate(353.25,1255.5625)"/>
<path d="M0 0 C7.1071924 5.887875 11.75548787 13.23281785 16.27734375 21.15625 C16.82132813 22.10113281 17.3653125 23.04601562 17.92578125 24.01953125 C31.35064442 49.12899756 42.11253565 84.86668693 34.27734375 113.15625 C31.37410057 121.78002827 27.7890001 130.58082805 20.27734375 136.15625 C13.89051705 139.20753192 7.14522697 141.21402549 0.33984375 143.09375 C-1.00291626 143.47007568 -1.00291626 143.47007568 -2.37280273 143.85400391 C-5.15396451 144.6293581 -7.93779514 145.39429871 -10.72265625 146.15625 C-11.63047852 146.40616699 -12.53830078 146.65608398 -13.47363281 146.91357422 C-16.07550777 147.62699155 -18.67961606 148.33134879 -21.28515625 149.03125 C-22.07591553 149.24644287 -22.8666748 149.46163574 -23.68139648 149.68334961 C-27.17647419 150.60708967 -30.08176159 151.15625 -33.72265625 151.15625 C-34.06876953 149.73699219 -34.06876953 149.73699219 -34.421875 148.2890625 C-36.58909634 139.47328516 -38.92314664 130.71706841 -41.375 121.9765625 C-42.82858312 116.79329261 -44.24641337 111.60050712 -45.66015625 106.40625 C-45.9120874 105.48086426 -46.16401855 104.55547852 -46.42358398 103.60205078 C-46.9361235 101.71909957 -47.44857445 99.83612424 -47.9609375 97.953125 C-48.70291111 95.2287501 -49.44678221 92.50490156 -50.19140625 89.78125 C-50.6810196 87.98959154 -51.17060277 86.19792482 -51.66015625 84.40625 C-52.02850586 83.05877686 -52.02850586 83.05877686 -52.40429688 81.68408203 C-53.75382472 76.73842863 -55.09000511 71.78951832 -56.41015625 66.8359375 C-59.29305801 56.03071816 -62.24256064 45.2568721 -65.41015625 34.53125 C-72.72265625 9.74438261 -72.72265625 9.74438261 -72.72265625 4.15625 C-66.6995133 2.56941522 -60.67137738 1.00377461 -54.63793945 -0.54345703 C-52.59123251 -1.07135894 -50.54593771 -1.60477056 -48.50219727 -2.14404297 C-15.86556253 -10.74396774 -15.86556253 -10.74396774 0 0 Z " fill="#FDFDFD" transform="translate(699.72265625,536.84375)"/>
<path d="M0 0 C1.34476249 0.93436473 2.65933546 1.91391854 3.9375 2.9375 C4.59621094 3.39898438 5.25492187 3.86046875 5.93359375 4.3359375 C21.84634468 16.55742652 29.86860085 41.0801146 33.9375 59.9375 C34.07881348 60.58477051 34.22012695 61.23204102 34.36572266 61.89892578 C36.90158572 73.62195605 38.12416904 84.72920442 38.12280273 96.71850586 C38.12499142 98.86657476 38.143205 101.01413075 38.16210938 103.16210938 C38.21904632 116.88033647 36.31550401 129.43833692 27.109375 140.1484375 C20.18783417 145.84999451 11.19579018 147.93657185 2.77197266 150.51171875 C0.54477725 151.19292062 -1.67893244 151.88468242 -3.90234375 152.578125 C-5.31751906 153.01623686 -6.73287719 153.45375869 -8.1484375 153.890625 C-9.1452504 154.19990936 -9.1452504 154.19990936 -10.16220093 154.51544189 C-14.82927054 155.9375 -14.82927054 155.9375 -17.0625 155.9375 C-18.94720093 149.39372473 -20.81243002 142.84495657 -22.640625 136.28515625 C-23.21874855 134.2109371 -23.7968736 132.13671836 -24.375 130.0625 C-24.6733374 128.99177246 -24.9716748 127.92104492 -25.27905273 126.81787109 C-27.35305469 119.40120927 -29.50441663 112.01017191 -31.6875 104.625 C-34.0938513 96.46782074 -36.28164663 88.28589044 -38.28955078 80.0222168 C-39.57246666 74.77915607 -41.00068237 69.60397818 -42.5625 64.4375 C-44.65868651 57.49930266 -46.45795379 50.51281038 -48.1809082 43.47338867 C-49.77781107 36.98074263 -51.52009117 30.53852367 -53.36328125 24.11157227 C-54.7906637 19.09134922 -55.97786349 14.0425027 -57.0625 8.9375 C-52.39976929 7.33774436 -47.7269713 5.77340917 -43.04272461 4.23779297 C-41.45831286 3.71333556 -39.87677133 3.18010745 -38.29858398 2.63720703 C-26.52820393 -1.40242038 -11.90004797 -5.95069036 0 0 Z " fill="#FDFDFD" transform="translate(291.0625,629.0625)"/>
<path d="M0 0 C31 0 31 0 41 5 C52.1735178 16.78298241 52.30946621 35.28836864 52.3359375 50.6796875 C52.34238957 52.06389493 52.34911956 53.44810109 52.35610962 54.83230591 C52.36798799 57.7148962 52.37180013 60.59736749 52.37060547 63.47998047 C52.3704024 67.1330464 52.39773438 70.78533346 52.43214989 74.43821526 C52.45462538 77.2919551 52.45843684 80.14551323 52.45738602 82.99933243 C52.46082151 84.98755953 52.48233824 86.97572996 52.50448608 88.96383667 C52.44913831 100.13131443 50.65618994 111.35466365 44.0625 120.625 C43.41410156 121.56601563 42.76570312 122.50703125 42.09765625 123.4765625 C38.44255394 127.87357571 35.34572316 129.86171074 30 132 C20.1 132 10.2 132 0 132 C0 88.44 0 44.88 0 0 Z " fill="#020202" transform="translate(648,116)"/>
<path d="M0 0 C7.26 0 14.52 0 22 0 C25.92908526 15.32343251 29.54938511 30.67704958 32.93164062 46.12792969 C35.85211014 59.44539159 38.93339082 72.71136024 42 86 C42.33 57.62 42.66 29.24 43 0 C48.61 0 54.22 0 60 0 C60 43.56 60 87.12 60 132 C52.74 132 45.48 132 38 132 C37.484375 129.916875 36.96875 127.83375 36.4375 125.6875 C34.82628001 119.20780543 33.15614196 112.74442701 31.46875 106.28417969 C25.89818919 84.9443697 20.96088417 63.49716472 16 42 C15.67 71.7 15.34 101.4 15 132 C10.05 132 5.1 132 0 132 C0 88.44 0 44.88 0 0 Z " fill="#070707" transform="translate(742,116)"/>
<path d="M0 0 C7.26 0 14.52 0 22 0 C22.49628906 2.19011719 22.99257813 4.38023438 23.50390625 6.63671875 C24.1890854 9.65387793 24.87564022 12.670723 25.5625 15.6875 C25.74229401 16.4774234 25.92208801 17.2673468 26.10733032 18.08120728 C28.79255119 29.86463031 31.55212672 41.62553162 34.47680664 53.35229492 C37.30600436 64.85300566 39.57785153 76.37368736 42 88 C42.33 58.96 42.66 29.92 43 0 C48.28 0 53.56 0 59 0 C59 43.56 59 87.12 59 132 C52.07 132 45.14 132 38 132 C35.11294883 121.78428047 32.76897344 111.51926354 30.57495117 101.13378906 C30.31560791 99.9062793 30.05626465 98.67876953 29.7890625 97.4140625 C29.65331314 96.77146484 29.51756378 96.12886719 29.37770081 95.46679688 C27.56222703 86.89831032 25.6798362 78.34437035 23.80038452 69.78973389 C23.19410404 67.03006033 22.58885508 64.27016184 21.98364258 61.51025391 C21.6076724 59.79848333 21.23161833 58.08673117 20.85546875 56.375 C20.59647293 55.19398209 20.59647293 55.19398209 20.33224487 53.98910522 C19.59642572 50.64663646 18.830173 47.32069198 18 44 C17.67 73.04 17.34 102.08 17 132 C11.39 132 5.78 132 0 132 C0 88.44 0 44.88 0 0 Z " fill="#030303" transform="translate(572,116)"/>
<path d="M0 0 C6.93 0 13.86 0 21 0 C22.65833866 4.14584664 23.77868615 8.01659599 24.69921875 12.34375 C24.85504425 13.05748276 25.01086975 13.77121552 25.17141724 14.50657654 C25.50608346 16.03989299 25.83899679 17.5735929 26.1703186 19.1076355 C27.04833129 23.16912416 27.94121986 27.22731926 28.8359375 31.28515625 C29.10682945 32.51414391 29.10682945 32.51414391 29.38319397 33.76795959 C31.59729066 43.76455876 34.02048103 53.70784482 36.45703125 63.65234375 C38.02175992 70.08951864 39.51039111 76.54502814 41 83 C41.33 55.61 41.66 28.22 42 0 C47.61 0 53.22 0 59 0 C59 43.56 59 87.12 59 132 C51.74 132 44.48 132 37 132 C34.64564639 121.25826167 32.30904324 110.51472609 30.0625 99.75 C29.37514665 96.45830268 28.68773573 93.16661745 28 89.875 C27.82756775 89.04968781 27.6551355 88.22437561 27.47747803 87.37405396 C25.31595506 77.04622885 23.1079722 66.73936439 20.546875 56.50146484 C19.09852554 50.67264542 18.08274869 44.95511778 17 39 C16.67 69.69 16.34 100.38 16 132 C10.72 132 5.44 132 0 132 C0 88.44 0 44.88 0 0 Z " fill="#030303" transform="translate(291,116)"/>
<path d="M0 0 C34 0 34 0 41 4 C50.04337105 13.06406526 49.21518884 26.55905099 49.3125 38.4375 C49.34150391 39.61376953 49.37050781 40.79003906 49.40039062 42.00195312 C49.45190922 49.09170389 48.93677163 54.9442116 45 61 C42.25 63.5625 42.25 63.5625 40 65 C40.77762695 65.33789551 41.55525391 65.67579102 42.35644531 66.02392578 C45.9084131 68.67904467 46.4637558 71.45881179 47.296875 75.6171875 C47.46137146 76.40092743 47.62586792 77.18466736 47.79534912 77.99215698 C49.84152497 88.93907876 49.42605143 100.0387427 49.25 111.125 C49.22987952 113.35545249 49.21163869 115.58592276 49.1953125 117.81640625 C49.15181408 123.21138717 49.08310064 128.60548977 49 134 C44.38 134 39.76 134 35 134 C33.27874004 128.01638847 32.69526433 122.63490486 32.65625 116.42578125 C32.6416272 115.53892136 32.62700439 114.65206146 32.61193848 113.73832703 C32.55015029 109.97730277 32.51003599 106.21612534 32.46826172 102.45483398 C32.43447436 99.69497787 32.38940016 96.93546254 32.34375 94.17578125 C32.3384729 93.32985916 32.3331958 92.48393707 32.32775879 91.61238098 C32.25584816 87.35245912 32.11964452 83.82051856 30 80 C25.78362979 77.89181489 20.69776176 78.39148015 16 78 C16 95.82 16 113.64 16 132 C10.72 132 5.44 132 0 132 C0 88.44 0 44.88 0 0 Z " fill="#000000" transform="translate(83,116)"/>
<path d="M0 0 C7.26 0 14.52 0 22 0 C24.91170379 11.67360998 26.7710591 23.43352837 28.625 35.3125 C29.14482427 38.61410342 29.6660619 41.91548171 30.18742371 45.21684265 C30.55238927 47.52837326 30.9168115 49.83998972 31.28071594 52.15168762 C32.65479555 60.86625987 34.06512557 69.57457056 35.48828125 78.28125 C36.10421505 82.06216734 36.7198138 85.84313912 37.33538818 89.62411499 C37.73342831 92.06240833 38.13317909 94.50042308 38.534729 96.93814087 C42.4256473 120.57676296 42.4256473 120.57676296 43 132 C37.39 132 31.78 132 26 132 C24.68 122.76 23.36 113.52 22 104 C14.08 104 6.16 104 -2 104 C-2.33 107.63 -2.66 111.26 -3 115 C-3.48413874 118.07791831 -3.98899983 121.12791777 -4.5625 124.1875 C-4.70107422 124.94869141 -4.83964844 125.70988281 -4.98242188 126.49414062 C-5.31730401 128.33021852 -5.65799808 130.16523496 -6 132 C-10.62 132 -15.24 132 -20 132 C-19.45457318 120.90709389 -17.85319239 110.21475233 -15.96224976 99.28479004 C-15.04927217 94.00475848 -14.15922127 88.72083975 -13.265625 83.4375 C-13.07969284 82.34173645 -12.89376068 81.2459729 -12.70219421 80.11700439 C-10.62352155 67.83982827 -8.64993071 55.54620316 -6.6875 43.25 C-6.52305389 42.223302 -6.35860779 41.196604 -6.18917847 40.13879395 C-4.04802016 26.77022648 -1.98922266 13.392059 0 0 Z " fill="#040404" transform="translate(160,116)"/>
<path d="M0 0 C6.17894322 3.76796964 9.83786816 9.7810132 12.4375 16.375 C13.27762019 19.93291583 13.75384112 23.49757099 14.1875 27.125 C14.31253906 28.05699219 14.43757813 28.98898438 14.56640625 29.94921875 C15.0709764 33.81389341 15.4375 37.46811409 15.4375 41.375 C8.8375 41.375 2.2375 41.375 -4.5625 41.375 C-4.8125 31.8125 -4.8125 31.8125 -4.86035156 28.84155273 C-5.0889535 22.90812938 -6.0880464 19.22758883 -9.5625 14.375 C-11.82696977 12.78872995 -11.82696977 12.78872995 -14.5625 13.375 C-17.85341835 14.6835365 -19.69490469 16.36603601 -21.5625 19.375 C-22.62737326 25.44486354 -22.47465907 31.47156465 -22.38671875 37.6171875 C-22.38381302 39.42790503 -22.38343002 41.2386282 -22.38545227 43.04934692 C-22.38223865 46.84082962 -22.35531241 50.63115103 -22.31030273 54.42236328 C-22.25371491 59.26676866 -22.24543673 64.10972289 -22.25371075 68.95440483 C-22.2565177 72.69330144 -22.23885088 76.43187807 -22.21457863 80.17068863 C-22.20440947 81.95593246 -22.19927078 83.74121265 -22.19937706 85.52648544 C-22.19538064 88.02985972 -22.16509972 90.53159755 -22.12768555 93.03466797 C-22.13276123 94.12752609 -22.13276123 94.12752609 -22.13793945 95.24246216 C-21.99062535 101.7736882 -19.4440954 106.48023785 -15.9375 111.875 C-12.12243094 114.2845173 -7.95820044 113.86341116 -3.5625 113.375 C-1.61151915 111.42401915 -2.30834892 107.72825071 -2.24609375 105.05859375 C-2.22531265 104.32753922 -2.20453156 103.59648468 -2.18312073 102.84327698 C-2.11754976 100.49978344 -2.05870568 98.15617461 -2 95.8125 C-1.95682192 94.22720145 -1.91320787 92.64191471 -1.86914062 91.05664062 C-1.7618608 87.16287963 -1.6606151 83.26900228 -1.5625 79.375 C-4.8625 79.375 -8.1625 79.375 -11.5625 79.375 C-11.5625 73.105 -11.5625 66.835 -11.5625 60.375 C-2.6525 60.375 6.2575 60.375 15.4375 60.375 C15.4375 82.155 15.4375 103.935 15.4375 126.375 C11.8075 127.695 8.1775 129.015 4.4375 130.375 C3.138125 130.9525 1.83875 131.53 0.5 132.125 C-7.21101931 134.93614553 -14.57352334 134.22953135 -21.9375 130.8125 C-29.71214617 126.48308919 -33.42084431 121.61509905 -36.5625 113.375 C-39.35244233 103.19589966 -40.00275523 93.31515604 -39.92578125 82.78125 C-39.9252601 81.33646648 -39.92578761 79.89168225 -39.92729187 78.44689941 C-39.92720309 75.44512086 -39.9169693 72.44361611 -39.89868164 69.44189453 C-39.87599817 65.64012466 -39.87546089 61.83875287 -39.88219929 58.0369339 C-39.88557882 55.06134653 -39.8788353 52.08584601 -39.86907005 49.11027527 C-39.86528599 47.71038775 -39.86404074 46.31049046 -39.8656559 44.91059875 C-39.87139215 15.19626809 -39.87139215 15.19626809 -30.66796875 5.34765625 C-22.59138475 -2.20387258 -10.38965477 -4.74955647 0 0 Z " fill="#070707" transform="translate(403.5625,119.625)"/>
<path d="M0 0 C38 0 38 0 46 7 C51.63544066 12.9320428 52.3125375 19.6285031 52.3359375 27.4609375 C52.3425943 28.25094147 52.3492511 29.04094543 52.35610962 29.85488892 C52.36618056 31.51716808 52.37092837 33.17948723 52.37060547 34.84179688 C52.37497635 37.36136612 52.41134624 39.87917755 52.44921875 42.3984375 C52.56077459 58.1268363 52.56077459 58.1268363 48 65 C47.18789063 66.24910156 47.18789063 66.24910156 46.359375 67.5234375 C42.32658571 72.16310285 39.18247766 74.6449364 33 76 C27.72 76 22.44 76 17 76 C17 93.82 17 111.64 17 130 C11.39 130 5.78 130 0 130 C0 87.1 0 44.2 0 0 Z " fill="#050505" transform="translate(456,116)"/>
<path d="M0 0 C0.69931641 -0.020625 1.39863281 -0.04125 2.11914062 -0.0625 C8.74146735 -0.11205904 13.79194996 2.18222857 18.73828125 6.5703125 C27.32462674 16.52214151 27.1875 30.87877848 27.1875 43.25 C20.9175 43.25 14.6475 43.25 8.1875 43.25 C8 34.25 8 34.25 7.97973633 31.46484375 C7.75467352 25.44941154 6.33504706 20.76287117 2.1875 16.25 C-0.8125 15.16666667 -0.8125 15.16666667 -3.8125 16.25 C-6.38535724 18.422635 -8.30246919 20.22993838 -9.8125 23.25 C-9.9313027 25.69889508 -9.99079029 28.12027201 -10.00537109 30.5703125 C-10.01354858 31.3250737 -10.02172607 32.0798349 -10.03015137 32.85746765 C-10.05502343 35.36330372 -10.07153232 37.86908277 -10.0859375 40.375 C-10.09126118 41.23225677 -10.09658485 42.08951355 -10.10206985 42.9727478 C-10.12881841 47.51649074 -10.14818162 52.06020614 -10.16259766 56.60400391 C-10.17589958 60.3539286 -10.20367965 64.1033043 -10.24462891 67.85302734 C-10.29414876 72.38767245 -10.31874336 76.92182215 -10.32582474 81.45672607 C-10.33250868 83.1789897 -10.34765571 84.90124352 -10.37171555 86.62335205 C-10.5070447 96.90215752 -10.38338886 105.81251835 -3.31307983 113.98266602 C-1.03395955 115.90752634 0.89327998 115.57702427 3.8125 115.5 C5.28589844 115.47679687 5.28589844 115.47679687 6.7890625 115.453125 C9.13869105 115.51377989 9.13869105 115.51377989 10.1875 114.25 C10.34738491 111.73119483 10.44684225 109.23657734 10.50390625 106.71484375 C10.52468735 105.96159317 10.54546844 105.20834259 10.56687927 104.43226624 C10.63245425 102.0174401 10.69129621 99.60250202 10.75 97.1875 C10.7931777 95.55402471 10.83679173 93.9205609 10.88085938 92.28710938 C10.98814362 88.27485536 11.08938821 84.26248836 11.1875 80.25 C7.8875 80.25 4.5875 80.25 1.1875 80.25 C1.1875 74.31 1.1875 68.37 1.1875 62.25 C9.7675 62.25 18.3475 62.25 27.1875 62.25 C27.1875 84.03 27.1875 105.81 27.1875 128.25 C22.2375 130.23 22.2375 130.23 17.1875 132.25 C15.90875 132.8275 14.63 133.405 13.3125 134 C5.2697936 136.93493923 -2.85006389 135.80251083 -10.55859375 132.515625 C-15.46575376 129.76013134 -18.41221266 126.91177529 -20.9375 121.875 C-21.65292969 120.50214844 -21.65292969 120.50214844 -22.3828125 119.1015625 C-26.84502571 108.32420108 -27.26740833 96.86713185 -27.2109375 85.38671875 C-27.21296752 83.90045531 -27.21588657 82.41419284 -27.21963501 80.92793274 C-27.22401904 77.8344257 -27.2177586 74.7411812 -27.20361328 71.64770508 C-27.18656899 67.73502635 -27.19635736 63.82296754 -27.21433067 59.9103117 C-27.22531485 56.84627344 -27.22165557 53.78237542 -27.2139473 50.71833229 C-27.21198301 49.27822606 -27.2142673 47.83810595 -27.22138596 46.39801598 C-27.25198377 38.46956482 -26.78076178 30.83971318 -25.42431641 23.02661133 C-25.30134375 22.31783938 -25.17837109 21.60906744 -25.05167198 20.87881756 C-23.38877829 12.09810287 -19.83426266 7.48732859 -12.6796875 2.37890625 C-8.61238046 -0.0801978 -4.59966733 0.03336114 0 0 Z " fill="#020202" transform="translate(842.8125,117.75)"/>
<path d="M0 0 C13.86 0 27.72 0 42 0 C42 6.93 42 13.86 42 21 C33.42 21 24.84 21 16 21 C16 31.89 16 42.78 16 54 C23.92 54 31.84 54 40 54 C40 60.27 40 66.54 40 73 C32.08 73 24.16 73 16 73 C16 85.54 16 98.08 16 111 C25.24 111 34.48 111 44 111 C44 117.93 44 124.86 44 132 C29.48 132 14.96 132 0 132 C0 88.44 0 44.88 0 0 Z " fill="#000000" transform="translate(516,116)"/>
<path d="M0 0 C17.82 0 35.64 0 54 0 C54 6.93 54 13.86 54 21 C47.73 21 41.46 21 35 21 C35 57.63 35 94.26 35 132 C29.72 132 24.44 132 19 132 C19 95.37 19 58.74 19 21 C12.73 21 6.46 21 0 21 C0 14.07 0 7.14 0 0 Z " fill="#000000" transform="translate(199,116)"/>
<path d="M0 0 C5.61 0 11.22 0 17 0 C17 43.56 17 87.12 17 132 C11.39 132 5.78 132 0 132 C0 88.44 0 44.88 0 0 Z " fill="#060606" transform="translate(260,116)"/>
<path d="M0 0 C5.28 0 10.56 0 16 0 C16 43.56 16 87.12 16 132 C10.72 132 5.44 132 0 132 C0 88.44 0 44.88 0 0 Z " fill="#000000" transform="translate(712,116)"/>
<path d="M0 0 C11 0 11 0 14.4375 1.6875 C23.71836297 11.54207695 21.54117377 28.73512646 21.41162109 41.07543945 C21.37498225 44.68925116 21.37060362 48.30203688 21.37109375 51.91601562 C21.36126459 54.23959209 21.34960846 56.56316171 21.3359375 58.88671875 C21.33371185 59.95363449 21.33148621 61.02055023 21.32919312 62.11979675 C21.11217367 79.44067203 21.11217367 79.44067203 16 85.5625 C15.484375 86.20316406 14.96875 86.84382813 14.4375 87.50390625 C13 89 13 89 11 90 C7.37 90 3.74 90 0 90 C0 60.3 0 30.6 0 0 Z " fill="#FDFDFD" transform="translate(662,137)"/>
<path d="M0 0 C5.21088189 -0.06934145 10.4201257 -0.1289297 15.63110352 -0.16479492 C17.39906272 -0.17976535 19.16698555 -0.20014903 20.93481445 -0.22631836 C45.39983271 -0.57907944 45.39983271 -0.57907944 55 7 C56.82793089 8.82793089 56.34619549 11.35280095 56.5234375 13.796875 C55.70149883 17.25637807 53.65844414 18.71679672 51 21 C40.24288058 24.94391046 28.34125405 24.36804182 17.0625 24.1875 C15.39649668 24.17240321 13.73047989 24.15872377 12.06445312 24.14648438 C8.04234853 24.1165134 4.02217715 24.0577346 0 24 C0 16.08 0 8.16 0 0 Z " fill="#040404" transform="translate(544,1284)"/>
<path d="M0 0 C5.95905361 -0.04971295 11.91798449 -0.0858671 17.87719727 -0.10986328 C19.90130722 -0.11987483 21.92540289 -0.1334881 23.94946289 -0.15087891 C26.87129256 -0.17534141 29.79292978 -0.18653184 32.71484375 -0.1953125 C34.05602516 -0.21079636 34.05602516 -0.21079636 35.42430115 -0.22659302 C42.0672545 -0.22775959 48.47374782 0.36588313 54.5625 3.1875 C56 5 56 5 56.5625 8.4375 C56 12 56 12 54.0625 14.3125 C47.15356488 18.11946425 39.6659712 18.28682098 31.93359375 18.1953125 C31.01409439 18.1924826 30.09459503 18.18965271 29.14723206 18.18673706 C26.24384907 18.17564584 23.34078791 18.15056263 20.4375 18.125 C18.45508262 18.11495588 16.47266034 18.10583255 14.49023438 18.09765625 C9.65993601 18.07745425 4.83032329 18.03828526 0 18 C0 12.06 0 6.12 0 0 Z " fill="#010101" transform="translate(771,1327)"/>
<path d="M0 0 C5.67506323 -0.09223579 11.34748726 -0.17174941 17.02270508 -0.21972656 C18.94987845 -0.23974243 20.87699186 -0.26696383 22.80395508 -0.30175781 C25.58690252 -0.35072041 28.36904156 -0.37306917 31.15234375 -0.390625 C32.00271713 -0.41127014 32.85309052 -0.43191528 33.72923279 -0.45318604 C39.77350193 -0.45541254 44.8426392 0.72536702 50 4 C52.178657 7.26798549 52.72208564 8.20905038 52 12 C47.43081192 16.91187718 42.48988832 18.64109151 35.81799316 19.17442322 C33.51142592 19.22923931 31.21325453 19.22546039 28.90625 19.1953125 C27.65805481 19.19106766 27.65805481 19.19106766 26.38464355 19.18673706 C23.75627569 19.17564286 21.1282629 19.15055925 18.5 19.125 C16.70573413 19.11495626 14.91146285 19.10583286 13.1171875 19.09765625 C8.74454857 19.07744997 4.37266643 19.0382821 0 19 C0 12.73 0 6.46 0 0 Z " fill="#030303" transform="translate(771,1284)"/>
<path d="M0 0 C9 0 9 0 11.9375 2.25 C16.20711444 7.94281926 16.38467748 12.16023808 16.375 19.125 C16.37693359 20.53881958 16.37693359 20.53881958 16.37890625 21.98120117 C16.27482535 28.81091869 15.29426192 33.92620459 12 40 C8.04 40 4.08 40 0 40 C0 26.8 0 13.6 0 0 Z " fill="#FDFDFD" transform="translate(473,135)"/>
<path d="M0 0 C4.95 0 9.9 0 15 0 C16.79723358 3.59446716 17.25139842 4.59088017 17.23046875 8.29296875 C17.22853516 9.08767578 17.22660156 9.88238281 17.22460938 10.70117188 C17.20624023 11.9319043 17.20624023 11.9319043 17.1875 13.1875 C17.18685547 14.01958984 17.18621094 14.85167969 17.18554688 15.70898438 C17.14043257 21.85956743 17.14043257 21.85956743 16 23 C15.9175 24.051875 15.835 25.10375 15.75 26.1875 C14.81400521 30.94547349 13.7260858 32.88225474 10 36 C6.7 36 3.4 36 0 36 C0 24.12 0 12.24 0 0 Z " fill="#F3F3F3" transform="translate(99,137)"/>
<path d="M0 0 C0.33 0 0.66 0 1 0 C2.12332863 6.68906618 3.24406388 13.37856324 4.36303711 20.06835938 C4.74363126 22.34189585 5.12480874 24.61533475 5.5065918 26.88867188 C6.05672872 30.16510663 6.60473452 33.44189195 7.15234375 36.71875 C7.3221727 37.72740112 7.49200165 38.73605225 7.66697693 39.77526855 C7.82706741 40.7356604 7.9871579 41.69605225 8.15209961 42.68554688 C8.29199814 43.52049683 8.43189667 44.35544678 8.57603455 45.21569824 C9.12186894 48.80034801 9.55025393 52.40203146 10 56 C4.39 56 -1.22 56 -7 56 C-5.62507557 43.26588684 -4.06931381 30.57011144 -2.375 17.875 C-2.14305612 16.12632503 -1.91128457 14.37762719 -1.6796875 12.62890625 C-1.12176611 8.41900614 -0.56155508 4.20941689 0 0 Z " fill="#F3F3F3" transform="translate(170,143)"/>
<path d="M0 0 C0.33 0 0.66 0 1 0 C1 29.7 1 59.4 1 90 C-1.76223278 87.23776722 -1.57856291 84.79293383 -2 81 C-1.34 81 -0.68 81 0 81 C0 54.27 0 27.54 0 0 Z " fill="#C4C4C4" transform="translate(614,116)"/>
</svg>
