<?xml version="1.0" encoding="UTF-8"?>
<svg version="1.1" xmlns="http://www.w3.org/2000/svg" width="960" height="1340">
<path d="M0 0 C316.8 0 633.6 0 960 0 C960 442.2 960 884.4 960 1340 C643.2 1340 326.4 1340 0 1340 C0 897.8 0 455.6 0 0 Z " fill="#020202" transform="translate(0,0)"/>
<path d="M0 0 C0.72021484 1.6796875 0.72021484 1.6796875 1.2109375 3.875 C1.40107422 4.68646484 1.59121094 5.49792969 1.78710938 6.33398438 C1.98111328 7.21376953 2.17511719 8.09355469 2.375 9 C2.80690397 10.84445315 3.24184929 12.68819652 3.6796875 14.53125 C3.89850586 15.45679688 4.11732422 16.38234375 4.34277344 17.3359375 C5.2706561 21.0971023 6.3684125 24.79597549 7.5 28.5 C9.32875384 34.54407776 10.93952629 40.61575298 12.4375 46.75 C14.08401444 53.48492073 15.86862585 60.15742185 17.8125 66.8125 C20.41855908 75.74462634 22.76398008 84.73516888 25.0625 93.75 C27.31728488 102.59313701 29.62372787 111.4024025 32.27978516 120.13476562 C33.83613042 125.30073054 35.15637264 130.50957422 36.4375 135.75 C38.08420492 142.48488149 39.86872363 149.15738304 41.8125 155.8125 C44.39317612 164.66198054 46.72209123 173.56877606 49 182.5 C51.42815784 192.0177114 53.94865057 201.49304823 56.70874023 210.92089844 C59.19421736 219.49658982 61.37894856 228.14788571 63.58486938 236.79849243 C65.66794624 244.95883645 67.82882168 253.07669279 70.27978516 261.13476562 C71.83613042 266.30073054 73.15637264 271.50957422 74.4375 276.75 C76.08420379 283.48487689 77.86862355 290.15741397 79.8125 296.8125 C82.41855908 305.74462634 84.76398008 314.73516888 87.0625 323.75 C89.31728488 332.59313701 91.62372787 341.4024025 94.27978516 350.13476562 C95.83613042 355.30073054 97.15637264 360.50957422 98.4375 365.75 C100.08420379 372.48487689 101.86862355 379.15741397 103.8125 385.8125 C106.41855908 394.74462634 108.76398008 403.73516888 111.0625 412.75 C113.31728488 421.59313701 115.62372787 430.4024025 118.27978516 439.13476562 C119.83613042 444.30073054 121.15637264 449.50957422 122.4375 454.75 C124.08420379 461.48487689 125.86862355 468.15741397 127.8125 474.8125 C130.41855908 483.74462634 132.76398008 492.73516888 135.0625 501.75 C137.31652366 510.59015152 139.62045221 519.39711545 142.27758789 528.12597656 C144.1104248 534.20600843 145.61348625 540.35712558 147.11474609 546.52612305 C148.69544989 552.95736874 150.49790823 559.30103924 152.4765625 565.62109375 C153.49988337 568.95513917 154 571.46653127 154 575 C152.93007813 575.27972656 151.86015625 575.55945313 150.7578125 575.84765625 C141.24499376 578.34037101 131.74357063 580.87243403 122.25 583.4375 C111.88126935 586.23771964 101.49633888 588.97019285 91.1015625 591.671875 C82.42525687 593.92752384 73.76769301 596.25188328 65.11328125 598.58984375 C53.40513654 601.7511659 41.69252222 604.88981888 29.95166016 607.92773438 C25.76333428 609.01231056 21.57972874 610.10691293 17.41015625 611.26171875 C16.37507935 611.54656128 16.37507935 611.54656128 15.3190918 611.8371582 C13.53162642 612.33166859 11.74617834 612.83345553 9.9609375 613.3359375 C7.17376668 613.96102858 4.83787098 614.05087936 2 614 C1.84442627 613.36723145 1.68885254 612.73446289 1.52856445 612.08251953 C-1.19837104 601.01666535 -3.94455794 589.96425738 -7.03833008 578.99462891 C-8.86670654 572.50952761 -10.62739137 566.00730884 -12.375 559.5 C-12.67140381 558.39672363 -12.96780762 557.29344727 -13.27319336 556.15673828 C-13.87991291 553.89751272 -14.48643809 551.63823495 -15.09277344 549.37890625 C-16.55888413 543.91847246 -18.02962138 538.45928575 -19.5 533 C-20.08335669 530.83333962 -20.66669 528.66667295 -21.25 526.5 C-21.53875 525.4275 -21.8275 524.355 -22.125 523.25 C-24.75 513.5 -24.75 513.5 -25.62524414 510.2487793 C-26.20755347 508.08612503 -26.79007238 505.92352719 -27.37280273 503.76098633 C-28.84854315 498.28337787 -30.32041985 492.80478078 -31.78515625 487.32421875 C-34.71629592 476.37219605 -37.71210443 465.44743149 -40.86914062 454.55834961 C-42.80570994 447.81994505 -44.51513354 441.03826616 -46.1784668 434.22802734 C-47.46135025 429.02160308 -48.88080635 423.88072891 -50.4375 418.75 C-52.51093738 411.9049511 -54.28977158 405.00676719 -56 398.0625 C-57.90274516 390.33711379 -59.87976624 382.64781682 -62.03955078 374.99047852 C-63.86739782 368.50672684 -65.62776539 362.00591616 -67.375 355.5 C-67.67140381 354.39672363 -67.96780762 353.29344727 -68.27319336 352.15673828 C-68.87991291 349.89751272 -69.48643809 347.63823495 -70.09277344 345.37890625 C-71.55888413 339.91847246 -73.02962138 334.45928575 -74.5 329 C-75.08335669 326.83333962 -75.66669 324.66667295 -76.25 322.5 C-76.53875 321.4275 -76.8275 320.355 -77.125 319.25 C-79.75 309.5 -79.75 309.5 -80.62524414 306.2487793 C-81.20755347 304.08612503 -81.79007238 301.92352719 -82.37280273 299.76098633 C-83.84854315 294.28337787 -85.32041985 288.80478078 -86.78515625 283.32421875 C-89.48576071 273.23357664 -92.21708163 263.15806976 -95.125 253.125 C-97.31280433 245.57248125 -99.29505348 237.98803494 -101.1652832 230.35107422 C-103.25657973 221.84811259 -105.60942779 213.42295231 -108 205 C-108.19786982 209.94674541 -107.83258993 214.53058813 -107.08056641 219.42724609 C-106.02449815 226.61582088 -105.26888922 233.80686291 -104.5859375 241.0390625 C-103.23659991 254.90776442 -101.68887275 268.74833874 -100.0680542 282.58795166 C-99.29346167 289.20885572 -98.52740678 295.83073631 -97.765625 302.453125 C-97.651103 303.4486331 -97.651103 303.4486331 -97.53426743 304.46425247 C-96.05549007 317.34193144 -94.69163684 330.22986894 -93.375 343.125 C-91.77323389 358.81062325 -90.0441877 374.47460689 -88.18795776 390.1321106 C-86.35415951 405.62652811 -84.71163843 421.13671001 -83.12011719 436.65771484 C-81.77298568 449.78077762 -80.34442743 462.88749103 -78.75997925 475.98391724 C-77.06640974 490.02012344 -75.62119614 504.0797871 -74.17724609 518.14355469 C-72.87865172 530.77479889 -71.52294405 543.39384033 -70 556 C-68.43467469 569.03627551 -66.97939374 582.08295094 -65.59423828 595.13964844 C-65.36759579 597.26976633 -65.13881039 599.39965749 -64.90771484 601.52929688 C-62.57202465 623.10108861 -62.57202465 623.10108861 -63 633 C-63.75917725 633.1858667 -64.51835449 633.3717334 -65.30053711 633.56323242 C-82.48786404 637.70681969 -82.48786404 637.70681969 -99.5 642.5 C-108.14983146 645.15356044 -116.93151659 647.25286528 -125.71484375 649.4140625 C-132.02299379 650.97582193 -138.2871053 652.59420408 -144.5 654.5 C-153.14702044 657.15246026 -161.92561974 659.25146177 -170.70605469 661.41186523 C-177.10009907 662.99486099 -183.44979552 664.63953654 -189.75 666.5625 C-196.7005225 668.67760673 -203.70759183 670.52775856 -210.75 672.3125 C-212.30605957 672.71287476 -212.30605957 672.71287476 -213.89355469 673.12133789 C-215.36163574 673.48859985 -215.36163574 673.48859985 -216.859375 673.86328125 C-217.73045898 674.08282471 -218.60154297 674.30236816 -219.49902344 674.52856445 C-222.05856155 675.01103889 -224.40183036 675.08472292 -227 675 C-227.44053711 673.99364502 -227.88107422 672.98729004 -228.33496094 671.95043945 C-237.13154986 651.86133589 -245.9619701 631.78774337 -254.875 611.75 C-255.2885675 610.82019318 -255.70213501 609.89038635 -256.12823486 608.93240356 C-259.08413785 602.28766701 -262.04185894 595.64374043 -265 589 C-268.37624961 581.41722229 -271.7515575 573.83402701 -275.125 566.25 C-275.53987671 565.31745392 -275.95475342 564.38490784 -276.38220215 563.42410278 C-282.71593443 549.18369044 -288.99055509 534.9181535 -295.23980713 520.64050293 C-300.74956751 508.05842706 -306.34552238 495.51765568 -312 483 C-318.03606737 469.63759623 -323.99580611 456.24467964 -329.875 442.8125 C-336.166481 428.43953346 -342.49754086 414.08504074 -348.875 399.75 C-349.29019897 398.81656769 -349.70539795 397.88313538 -350.13317871 396.92141724 C-353.0874372 390.2803443 -356.04349237 383.64007189 -359 377 C-365.67678892 362.00448367 -372.34724787 347.00619803 -379 332 C-379.42335632 331.04544922 -379.84671265 330.09089844 -380.28289795 329.10742188 C-382.81790549 323.39042 -385.34795172 317.67126489 -387.87127686 311.94909668 C-388.6549216 310.17349909 -389.43991853 308.39849756 -390.22637939 306.62414551 C-391.31239426 304.17301436 -392.39316786 301.71963608 -393.47265625 299.265625 C-393.7873436 298.55825195 -394.10203094 297.85087891 -394.42625427 297.12207031 C-396.59391192 292.17289529 -398.36686702 287.14927796 -400 282 C-400.66 282 -401.32 282 -402 282 C-401.69707031 282.92296875 -401.39414062 283.8459375 -401.08203125 284.796875 C-398.36696345 293.20274245 -396.03268365 301.63894418 -393.9465332 310.22167969 C-392.44222928 316.36012562 -390.76786361 322.43256609 -389 328.5 C-387.0203357 335.30222958 -385.18015551 342.11765538 -383.5 349 C-381.87454846 355.65157851 -380.10628605 362.23963715 -378.1875 368.8125 C-375.41180064 378.33125957 -372.93320355 387.91951265 -370.4833374 397.52593994 C-368.15987829 406.62677426 -365.71368722 415.6782001 -363.08032227 424.69433594 C-361.15109731 431.34392062 -359.4658155 438.03901735 -357.82348633 444.7644043 C-356.51953621 450.05604624 -355.07649803 455.28344777 -353.5 460.5 C-351.67321992 466.54472288 -350.06032649 472.61558958 -348.5625 478.75 C-346.86143162 485.71576734 -345.00438885 492.61541552 -343 499.5 C-340.75415681 507.21392098 -338.72978713 514.95738455 -336.82421875 522.76171875 C-335.51990373 528.05422776 -334.0767677 533.28255545 -332.5 538.5 C-330.67321992 544.54472288 -329.06032649 550.61558958 -327.5625 556.75 C-325.86143057 563.71577166 -324.00429256 570.61538578 -322 577.5 C-320.02050319 584.30228227 -318.18015745 591.11764745 -316.5 598 C-314.87454846 604.65157851 -313.10628605 611.23963715 -311.1875 617.8125 C-308.60695127 626.66202576 -306.27804889 635.56880305 -304 644.5 C-301.23893264 655.3200178 -298.35167211 666.09138697 -295.2265625 676.8125 C-295.0193457 677.52535156 -294.81212891 678.23820313 -294.59863281 678.97265625 C-294.02844869 680.90365502 -293.43284006 682.82709243 -292.8359375 684.75 C-292.07462682 687.70986209 -291.93128548 689.97912985 -292 693 C-300.01630536 696.17975194 -308.15784137 698.42384282 -316.53051758 700.43408203 C-320.1098549 701.29439134 -323.6840115 702.17560832 -327.2578125 703.05859375 C-327.95034119 703.22954559 -328.64286987 703.40049744 -329.35638428 703.57662964 C-334.11695947 704.75989024 -338.81085439 706.06206034 -343.5 707.5 C-352.2965764 710.1898622 -361.22551659 712.33056825 -370.15380859 714.53076172 C-377.64792108 716.37991388 -385.11606359 718.24210209 -392.5 720.5 C-400.74026334 723.01237998 -409.08234512 725.09824115 -417.4375 727.1875 C-418.13294922 727.36216797 -418.82839844 727.53683594 -419.54492188 727.71679688 C-427.32729018 729.66791097 -435.10812616 731.54002096 -443 733 C-446.78934574 719.48408479 -450.4544168 705.93616243 -454.09277344 692.37890625 C-455.55888413 686.91847246 -457.02962138 681.45928575 -458.5 676 C-459.08335669 673.83333962 -459.66669 671.66667295 -460.25 669.5 C-460.683125 667.89125 -460.683125 667.89125 -461.125 666.25 C-470.75 630.5 -470.75 630.5 -471.62524414 627.2487793 C-472.20755347 625.08612503 -472.79007238 622.92352719 -473.37280273 620.76098633 C-474.84854315 615.28337787 -476.32041985 609.80478078 -477.78515625 604.32421875 C-480.71629592 593.37219605 -483.71210443 582.44743149 -486.86914062 571.55834961 C-488.80570994 564.81994505 -490.51513354 558.03826616 -492.1784668 551.22802734 C-493.46135025 546.02160308 -494.88080635 540.88072891 -496.4375 535.75 C-498.51093738 528.9049511 -500.28977158 522.00676719 -502 515.0625 C-503.90274516 507.33711379 -505.87976624 499.64781682 -508.03955078 491.99047852 C-509.86739782 485.50672684 -511.62776539 479.00591616 -513.375 472.5 C-513.67140381 471.39672363 -513.96780762 470.29344727 -514.27319336 469.15673828 C-514.87991291 466.89751272 -515.48643809 464.63823495 -516.09277344 462.37890625 C-517.84866895 455.83918777 -519.61044188 449.30104984 -521.37231445 442.76293945 C-522.84816968 437.28466711 -524.32024662 431.80542896 -525.78515625 426.32421875 C-528.71629592 415.37219605 -531.71210443 404.44743149 -534.86914062 393.55834961 C-536.80570994 386.81994505 -538.51513354 380.03826616 -540.1784668 373.22802734 C-541.46135025 368.02160308 -542.88080635 362.88072891 -544.4375 357.75 C-546.51093738 350.9049511 -548.28977158 344.00676719 -550 337.0625 C-551.90274516 329.33711379 -553.87976624 321.64781682 -556.03955078 313.99047852 C-557.86739782 307.50672684 -559.62776539 301.00591616 -561.375 294.5 C-561.67140381 293.39672363 -561.96780762 292.29344727 -562.27319336 291.15673828 C-562.87991291 288.89751272 -563.48643809 286.63823495 -564.09277344 284.37890625 C-565.84866895 277.83918777 -567.61044188 271.30104984 -569.37231445 264.76293945 C-570.84816968 259.28466711 -572.32024662 253.80542896 -573.78515625 248.32421875 C-576.71629592 237.37219605 -579.71210443 226.44743149 -582.86914062 215.55834961 C-584.80339464 208.82800127 -586.51229356 202.05475243 -588.171875 195.25219727 C-589.68621983 189.10139265 -591.42305855 183.04055349 -593.25488281 176.9777832 C-595.13035716 170.7124044 -596.63167539 164.39663945 -598 158 C-591.3367184 155.63931224 -584.6190399 153.84090882 -577.75 152.1875 C-569.95072548 150.27718046 -562.20653619 148.25551737 -554.5 146 C-546.03107056 143.52465291 -537.51009625 141.35113471 -528.94140625 139.25 C-522.41664226 137.63770311 -515.95089009 135.88519163 -509.5 134 C-501.03095367 131.52502756 -492.51011427 129.35113913 -483.94140625 127.25 C-477.41664226 125.63770311 -470.95089009 123.88519163 -464.5 122 C-456.03095367 119.52502756 -447.51011427 117.35113913 -438.94140625 115.25 C-432.41664226 113.63770311 -425.95089009 111.88519163 -419.5 110 C-412.03969625 107.81981991 -404.54861341 105.85111423 -397 104 C-385.91394035 101.28006997 -374.95792738 98.19155777 -364 95 C-361.81438429 94.36844221 -359.62728062 93.741962 -357.4375 93.125 C-356.65246094 92.90070313 -355.86742187 92.67640625 -355.05859375 92.4453125 C-353 92 -353 92 -349 92 C-340.95395579 109.9187702 -333.13324386 127.92562306 -325.42114258 145.99015808 C-320.31230409 157.95635446 -315.18692039 169.91547031 -310.0625 181.875 C-309.53446122 183.10753236 -309.00642574 184.34006613 -308.47839355 185.57260132 C-302.04039496 200.59937296 -295.5839508 215.61778781 -289.08230591 230.61712646 C-282.41225444 246.00813226 -275.81093068 261.42846564 -269.20849609 276.84857178 C-262.53001688 292.4459558 -255.83663973 308.03639059 -249.08807373 323.60357666 C-244.71560577 333.69212193 -240.36924022 343.7916651 -236.0390625 353.8984375 C-235.77605095 354.51230064 -235.5130394 355.12616379 -235.2420578 355.75862885 C-232.35877059 362.48869829 -229.47744583 369.219605 -226.59765625 375.95117188 C-220.44739064 390.32227814 -214.25198826 404.67284123 -208 419 C-208.49818543 406.95287992 -209.7508852 395.10253829 -211.35272217 383.15530396 C-212.04927638 377.95180109 -212.72400656 372.74547215 -213.3984375 367.5390625 C-213.53605499 366.47826981 -213.67367249 365.41747711 -213.81546021 364.32453918 C-215.11368579 354.24916294 -216.25892809 344.15939643 -217.375 334.0625 C-219.48916724 314.98871699 -221.85958401 295.94970289 -224.26382065 276.91083527 C-226.62480602 258.21028271 -228.90195205 239.50449 -230.98388672 220.77050781 C-232.36799052 208.3296946 -233.87659324 195.91181383 -235.5 183.5 C-237.51289766 168.10426427 -239.31983269 152.69208151 -241.04370117 137.26147461 C-242.20070628 126.92650626 -243.39800825 116.5975578 -244.6484375 106.2734375 C-244.78711746 105.12746597 -244.92579742 103.98149445 -245.06867981 102.80079651 C-245.74824814 97.1937064 -246.43218523 91.58718102 -247.12084961 85.98120117 C-247.36839655 83.94711135 -247.61587716 81.91301345 -247.86328125 79.87890625 C-247.97864227 78.95077118 -248.0940033 78.02263611 -248.21286011 77.06637573 C-248.70260336 73.02198174 -249.15410302 69.08346527 -249 65 C-237.72727123 61.69987276 -226.44131663 58.55015587 -215.03222656 55.75512695 C-210.3238282 54.59667449 -205.65508821 53.3611369 -201 52 C-195.51014187 50.39477832 -189.99143649 48.98568236 -184.4375 47.625 C-177.49356274 45.92066295 -170.61369828 44.06508796 -163.75 42.0625 C-156.20606312 39.86356617 -148.6316868 37.87127788 -141 36 C-133.53440099 34.16926394 -126.1266342 32.22402537 -118.75 30.0625 C-109.35376793 27.31167705 -99.87929943 24.94607971 -90.37304688 22.60791016 C-82.43604471 20.64316617 -74.57621606 18.49820517 -66.73046875 16.19921875 C-60.19199506 14.29932222 -53.61253695 12.62165475 -47 11 C-39.18377163 9.08230112 -31.42013862 7.04437959 -23.6875 4.8125 C-22.82012207 4.56234131 -21.95274414 4.31218262 -21.05908203 4.05444336 C-17.4881259 3.02041625 -13.92041681 1.97645771 -10.35546875 0.921875 C-9.37191406 0.63828125 -8.38835938 0.3546875 -7.375 0.0625 C-6.57835937 -0.17339844 -5.78171875 -0.40929687 -4.9609375 -0.65234375 C-3 -1 -3 -1 0 0 Z " fill="#000000" transform="translate(706,264)"/>
<path d="M0 0 C261.36 0 522.72 0 792 0 C792 260.04 792 520.08 792 788 C530.64 788 269.28 788 0 788 C0 527.96 0 267.92 0 0 Z M616.80078125 20.1015625 C615.93283936 20.34140869 615.06489746 20.58125488 614.1706543 20.82836914 C612.75586792 21.22270142 612.75586792 21.22270142 611.3125 21.625 C603.2880499 23.84162949 595.24949929 25.98676529 587.1875 28.0625 C580.69016818 29.73917857 574.2325436 31.48597311 567.8125 33.4375 C557.81930612 36.4661167 547.66514961 38.87329051 537.53125 41.37890625 C531.04930614 42.9820168 524.59440686 44.66157522 518.15136719 46.41503906 C513.2695769 47.74240737 508.38454055 49.05779669 503.5 50.375 C501.82538696 50.82721924 501.82538696 50.82721924 500.11694336 51.28857422 C492.73470435 53.27763178 485.3404597 55.21471926 477.9375 57.125 C471.60622257 58.75983939 465.31665695 60.46689826 459.0625 62.375 C450.08492795 65.10725541 440.96500033 67.28351831 431.85671997 69.52819824 C424.19456067 71.41867985 416.54835627 73.312459 409 75.625 C401.02124136 78.06595217 392.94796483 80.06122331 384.84179688 82.03369141 C383.85373047 82.27522949 382.86566406 82.51676758 381.84765625 82.765625 C380.5174646 83.08708496 380.5174646 83.08708496 379.16040039 83.41503906 C376.97392533 83.93057584 376.97392533 83.93057584 375 85 C375.62785648 94.69881564 376.69013234 104.3109797 377.86889648 113.95516968 C378.4329233 118.57095117 378.98779241 123.18783445 379.54296875 127.8046875 C379.6609079 128.78412827 379.77884705 129.76356903 379.90036011 130.77268982 C380.78703504 138.16086451 381.64426024 145.55215197 382.48828125 152.9453125 C382.67441986 154.57541512 382.67441986 154.57541512 382.86431885 156.2384491 C383.11626355 158.44573606 383.36817589 160.65302672 383.62005615 162.86032104 C385.58172482 180.0387087 387.62343442 197.20055982 389.86962891 214.34408569 C391.67536268 228.1471852 393.26928244 241.96881276 394.81277466 255.8034668 C396.25611783 268.71926669 397.81243931 281.61389207 399.5 294.5 C401.43138214 309.24791334 403.16302873 324.01113882 404.81149292 338.79321289 C406.27330269 351.8794268 407.85502869 364.94363151 409.5625 378 C411.26113368 391.00869602 412.85347741 404.0246382 414.3125 417.0625 C414.39976349 417.83279541 414.48702698 418.60309082 414.57693481 419.39672852 C414.82203059 421.56746797 415.06231599 423.73867952 415.30078125 425.91015625 C415.43653564 427.13871338 415.57229004 428.36727051 415.7121582 429.63305664 C415.98088115 432.77636299 416.05388394 435.84733777 416 439 C412.94320185 431.96510267 409.887522 424.92972028 406.83251953 417.89404297 C405.79923147 415.51470671 404.76571314 413.13547042 403.73193359 410.75634766 C396.60178467 394.34657076 389.51948084 377.91702717 382.48303223 361.46685791 C380.03722175 355.7493305 377.58881204 350.03291635 375.140625 344.31640625 C374.66087219 343.19610016 374.18111938 342.07579407 373.68682861 340.92153931 C365.18231749 321.06292821 356.67489694 301.20585747 348.08312988 281.38479614 C341.41280739 265.9931479 334.81120512 250.57217532 328.20849609 235.15142822 C321.53274368 219.56041257 314.84344088 203.97574252 308.09613037 188.41555786 C303.62367862 178.09949283 299.18299266 167.77001719 294.7578125 157.43359375 C294.34838535 156.47738821 294.34838535 156.47738821 293.93068695 155.50186539 C291.18077743 149.07942552 288.43195023 142.65652626 285.68664742 136.23211575 C284.41955257 133.26766142 283.15101605 130.3038239 281.8828125 127.33984375 C281.41900177 126.25311874 280.95519104 125.16639374 280.47732544 124.04673767 C280.04797699 123.0438118 279.61862854 122.04088593 279.17626953 121.00756836 C278.61578415 119.69604042 278.61578415 119.69604042 278.04397583 118.35801697 C277.08977392 116.20277139 276.07422613 114.09755068 275 112 C268.45776953 113.02254763 262.10548513 114.63871938 255.6875 116.25 C254.42292969 116.56646484 253.15835938 116.88292969 251.85546875 117.20898438 C244.71371825 119.01271542 237.63370341 120.92565553 230.5925293 123.08496094 C222.57132212 125.50298211 214.41794987 127.41293347 206.28515625 129.4140625 C199.97700621 130.97582193 193.7128947 132.59420408 187.5 134.5 C178.85009386 137.15334544 170.06850015 139.25286116 161.28515625 141.4140625 C154.97700621 142.97582193 148.7128947 144.59420408 142.5 146.5 C133.85009386 149.15334544 125.06850015 151.25286116 116.28515625 153.4140625 C109.97699447 154.97582484 103.71295009 156.59436725 97.5 158.5 C88.95242724 161.11973318 80.27871989 163.20125481 71.59936523 165.33496094 C63.34265171 167.3781118 55.16007218 169.59976228 47.00195312 172.00488281 C41.111951 173.72964439 35.23789548 175.12439662 29.203125 176.26171875 C28.47609375 176.50535156 27.7490625 176.74898437 27 177 C25.569866 181.29040199 27.15303486 184.57656818 28.4375 188.75 C31.19879724 198.03086621 33.677929 207.36727442 36.0625 216.75 C38.31541325 225.59357056 40.62375322 234.40248585 43.27978516 243.13476562 C44.83613042 248.30073054 46.15637264 253.50957422 47.4375 258.75 C49.08420379 265.48487689 50.86862355 272.15741397 52.8125 278.8125 C55.41855908 287.74462634 57.76398008 296.73516888 60.0625 305.75 C62.31728488 314.59313701 64.62372787 323.4024025 67.27978516 332.13476562 C68.83613042 337.30073054 70.15637264 342.50957422 71.4375 347.75 C73.08420379 354.48487689 74.86862355 361.15741397 76.8125 367.8125 C79.41855908 376.74462634 81.76398008 385.73516888 84.0625 394.75 C86.31728488 403.59313701 88.62372787 412.4024025 91.27978516 421.13476562 C92.83613042 426.30073054 94.15637264 431.50957422 95.4375 436.75 C97.08420379 443.48487689 98.86862355 450.15741397 100.8125 456.8125 C103.41855908 465.74462634 105.76398008 474.73516888 108.0625 483.75 C110.31728488 492.59313701 112.62372787 501.4024025 115.27978516 510.13476562 C116.83613042 515.30073054 118.15637264 520.50957422 119.4375 525.75 C121.08420379 532.48487689 122.86862355 539.15741397 124.8125 545.8125 C127.41855908 554.74462634 129.76398008 563.73516888 132.0625 572.75 C134.31728488 581.59313701 136.62372787 590.4024025 139.27978516 599.13476562 C140.83613042 604.30073054 142.15637264 609.50957422 143.4375 614.75 C145.08420379 621.48487689 146.86862355 628.15741397 148.8125 634.8125 C151.41855908 643.74462634 153.76398008 652.73516888 156.0625 661.75 C158.31728488 670.59313701 160.62372787 679.4024025 163.27978516 688.13476562 C164.83613205 693.30073595 166.15628669 698.50959029 167.4375 703.75 C169.79329012 713.37886164 172.4948202 722.88918133 175.25488281 732.40869141 C176.4894623 736.70221259 177.68344126 741.00687482 178.875 745.3125 C179.09027344 746.08996582 179.30554688 746.86743164 179.52734375 747.66845703 C180.0188967 749.4454535 180.50955962 751.22269614 181 753 C194.33870619 750.50923423 207.41090453 747.22959516 220.42700195 743.42285156 C227.90666316 741.25911883 235.43930075 739.35836745 243 737.5 C252.0598037 735.27172043 261.04377118 732.89599204 269.99487305 730.26733398 C277.22082211 728.16885246 284.50507511 726.35387606 291.8125 724.5625 C312.38965868 720.1958503 312.38965868 720.1958503 332 713 C331.26330227 706.73806929 329.79695254 700.73179766 328.25 694.625 C327.98123047 693.55572266 327.71246094 692.48644531 327.43554688 691.38476562 C325.7398684 684.7102865 323.90061016 678.10119671 321.89550781 671.51416016 C319.74859696 664.36518596 318.01065978 657.11981327 316.23266602 649.87207031 C314.59991088 643.26552239 312.8013203 636.74105156 310.82421875 630.23046875 C308.95617145 624.01561909 307.41232986 617.73451755 305.87255859 611.43164062 C304.57220925 606.15726961 303.1408405 600.94746521 301.5625 595.75 C299.16926896 587.85839637 297.19729874 579.88065001 295.23291016 571.87304688 C293.60006854 565.26617329 291.80141824 558.74137407 289.82421875 552.23046875 C287.95617145 546.01561909 286.41232986 539.73451755 284.87255859 533.43164062 C283.57220925 528.15726961 282.1408405 522.94746521 280.5625 517.75 C278.16926896 509.85839637 276.19729874 501.88065001 274.23291016 493.87304688 C272.60006854 487.26617329 270.80141824 480.74137407 268.82421875 474.23046875 C266.95617145 468.01561909 265.41232986 461.73451755 263.87255859 455.43164062 C262.57220925 450.15726961 261.1408405 444.94746521 259.5625 439.75 C257.48078981 432.88562652 255.70888248 425.96602048 254 419 C252.31139731 412.11697461 250.56446142 405.28025738 248.5 398.5 C246.44347342 391.73916886 244.68986106 384.92377538 243 378.0625 C241.09870149 370.34302356 239.12487264 362.65904134 236.96484375 355.00805664 C235.08750853 348.35346769 233.29036705 341.67846759 231.5 335 C229.39449346 327.16128307 227.28405649 319.3241629 225.125 311.5 C224.82045898 310.38818359 224.82045898 310.38818359 224.50976562 309.25390625 C223.49145683 305.53984882 223.49145683 305.53984882 222 302 C222.66 302 223.32 302 224 302 C224.16974838 302.5420105 224.33949677 303.084021 224.51438904 303.64245605 C226.35608325 309.36145972 228.56322249 314.80883514 231.03515625 320.28125 C231.42570694 321.15546097 231.81625763 322.02967194 232.21864319 322.93037415 C233.05842953 324.80910422 233.90009271 326.68699628 234.74346924 328.56411743 C237.01310181 333.6158379 239.26920155 338.67360436 241.52734375 343.73046875 C241.98830444 344.76169357 242.44926514 345.7929184 242.92419434 346.85539246 C247.00142928 355.98340125 251.02023965 365.13634686 255.02487183 374.29638672 C261.26561056 388.56963778 267.58705914 402.80328883 274 417 C280.03606737 430.36240377 285.99580611 443.75532036 291.875 457.1875 C298.166481 471.56046654 304.49754086 485.91495926 310.875 500.25 C311.29019897 501.18343231 311.70539795 502.11686462 312.13317871 503.07858276 C315.0874372 509.7196557 318.04349237 516.35992811 321 523 C324.37624961 530.58277771 327.7515575 538.16597299 331.125 545.75 C331.53987671 546.68254608 331.95475342 547.61509216 332.38220215 548.57589722 C338.71593443 562.81630956 344.99055509 577.0818465 351.23980713 591.35949707 C357.10993724 604.76451241 363.08482652 618.11966577 369.10943604 631.45587158 C375.150247 644.83273886 381.10248629 658.24684907 387 671.6875 C387.39171387 672.57961182 387.78342773 673.47172363 388.18701172 674.39086914 C389.29253942 676.90979598 390.39664625 679.429339 391.5 681.94921875 C391.82621338 682.69314377 392.15242676 683.43706879 392.48852539 684.20353699 C394.05184782 687.78071835 395.57733483 691.36375675 397 695 C403.26990998 694.41922149 409.16043302 693.39271187 415.25 691.8125 C416.11206055 691.59327881 416.97412109 691.37405762 417.86230469 691.14819336 C424.90190251 689.33610159 431.882002 687.33506956 438.86035156 685.30200195 C445.53670622 683.37386385 452.2511489 681.65479754 459 680 C466.54863828 678.14900446 474.03970228 676.18017833 481.5 674 C489.96904633 671.52502756 498.48988573 669.35113913 507.05859375 667.25 C514.43447236 665.42738907 521.72864947 663.39493712 529.02026367 661.26318359 C539.5997298 658.1988702 550.30126817 655.61036951 561 653 C561.25384594 643.55059022 560.46146729 634.31074066 559.42578125 624.93359375 C559.25953423 623.38639212 559.09381085 621.83913414 558.92857361 620.29182434 C558.48844216 616.18640329 558.04025588 612.08190051 557.59022522 607.97755432 C557.21740925 604.56780706 556.8494937 601.15753806 556.48154259 597.74726295 C554.30291299 577.56214945 552.04778391 557.38709007 549.65356445 537.22631836 C548.22808472 525.19088767 546.96559554 513.14364936 545.75814819 501.08456421 C544.48499673 488.39466841 543.06227306 475.72750664 541.5625 463.0625 C539.74590486 447.72050292 538.07361784 432.36879017 536.5 417 C534.85515845 400.9385588 533.0887897 384.89781049 531.1875 368.86477661 C529.37577779 353.55979323 527.75651 338.23942805 526.19052124 322.90753174 C524.61272877 307.49183069 522.86256151 292.10400908 520.98937988 276.72155762 C519.66871063 265.8674186 518.41825666 255.02207954 517.54418945 244.12060547 C517.30837288 241.19049883 517.07189065 238.33429154 516.453125 235.45703125 C515.80550052 231.94534331 515.93951368 228.56869272 516 225 C516.18062988 225.70793701 516.36125977 226.41587402 516.54736328 227.14526367 C521.04409262 244.75140868 521.04409262 244.75140868 525.9375 262.25 C528.67370389 271.62663913 531.10570013 281.07570463 533.52023315 290.53894043 C535.77733447 299.37607716 538.14591986 308.16687609 540.70874023 316.92089844 C543.19421736 325.49658982 545.37894856 334.14788571 547.58486938 342.79849243 C549.66794624 350.95883645 551.82882168 359.07669279 554.27978516 367.13476562 C555.83613042 372.30073054 557.15637264 377.50957422 558.4375 382.75 C560.08420379 389.48487689 561.86862355 396.15741397 563.8125 402.8125 C566.41855908 411.74462634 568.76398008 420.73516888 571.0625 429.75 C573.31728488 438.59313701 575.62372787 447.4024025 578.27978516 456.13476562 C579.83613042 461.30073054 581.15637264 466.50957422 582.4375 471.75 C584.08420379 478.48487689 585.86862355 485.15741397 587.8125 491.8125 C590.41855908 500.74462634 592.76398008 509.73516888 595.0625 518.75 C597.31728488 527.59313701 599.62372787 536.4024025 602.27978516 545.13476562 C603.83613042 550.30073054 605.15637264 555.50957422 606.4375 560.75 C608.08420569 567.48488465 609.86877027 574.15736662 611.8125 580.8125 C614.83396868 591.17609765 617.52797825 601.61881852 620.1965332 612.07739258 C622.06673713 619.40357217 623.97959776 626.71370601 626 634 C632.96320541 633.39107772 639.48739727 632.05496717 646.25 630.3125 C647.3028418 630.0455835 648.35568359 629.77866699 649.44042969 629.50366211 C656.93107485 627.58481789 664.36158958 625.4929209 671.78222656 623.3215332 C680.33836153 620.84454655 688.97848187 618.73509877 697.62695312 616.60791016 C705.5594728 614.64427578 713.41460794 612.49976267 721.25634766 610.20361328 C729.92354596 607.68667907 738.67621305 605.54022422 747.4375 603.37890625 C757.69932448 600.8465191 767.90403047 598.13568936 778 595 C777.42678464 589.5239639 776.42852227 584.41264282 774.875 579.125 C774.42072143 577.53418313 773.96767068 575.94301531 773.515625 574.3515625 C773.27134766 573.4946582 773.02707031 572.63775391 772.77539062 571.75488281 C771.34756544 566.68196741 769.9896283 561.59020786 768.625 556.5 C768.32899902 555.3980127 768.03299805 554.29602539 767.72802734 553.16064453 C767.12084716 550.90013132 766.51391521 548.63955143 765.90722656 546.37890625 C764.44111587 540.91847246 762.97037862 535.45928575 761.5 530 C760.91664331 527.83333962 760.33331 525.66667295 759.75 523.5 C759.46125 522.4275 759.1725 521.355 758.875 520.25 C756.25 510.5 756.25 510.5 755.37475586 507.2487793 C754.79244653 505.08612503 754.20992762 502.92352719 753.62719727 500.76098633 C752.15145685 495.28337787 750.67958015 489.80478078 749.21484375 484.32421875 C746.28370408 473.37219605 743.28789557 462.44743149 740.13085938 451.55834961 C738.19429006 444.81994505 736.48486646 438.03826616 734.8215332 431.22802734 C733.53864975 426.02160308 732.11919365 420.88072891 730.5625 415.75 C728.48906262 408.9049511 726.71022842 402.00676719 725 395.0625 C723.09725484 387.33711379 721.12023376 379.64781682 718.96044922 371.99047852 C717.13260218 365.50672684 715.37223461 359.00591616 713.625 352.5 C713.32859619 351.39672363 713.03219238 350.29344727 712.72680664 349.15673828 C712.12008709 346.89751272 711.51356191 344.63823495 710.90722656 342.37890625 C709.15133105 335.83918777 707.38955812 329.30104984 705.62768555 322.76293945 C704.15183032 317.28466711 702.67975338 311.80542896 701.21484375 306.32421875 C698.28370408 295.37219605 695.28789557 284.44743149 692.13085938 273.55834961 C690.19429006 266.81994505 688.48486646 260.03826616 686.8215332 253.22802734 C685.53864975 248.02160308 684.11919365 242.88072891 682.5625 237.75 C680.48906262 230.9049511 678.71022842 224.00676719 677 217.0625 C675.09725484 209.33711379 673.12023376 201.64781682 670.96044922 193.99047852 C669.13260218 187.50672684 667.37223461 181.00591616 665.625 174.5 C665.32859619 173.39672363 665.03219238 172.29344727 664.72680664 171.15673828 C664.12008709 168.89751272 663.51356191 166.63823495 662.90722656 164.37890625 C661.44111587 158.91847246 659.97037862 153.45928575 658.5 148 C657.91664331 145.83333962 657.33331 143.66667295 656.75 141.5 C656.46125 140.4275 656.1725 139.355 655.875 138.25 C653.25 128.5 653.25 128.5 652.37475586 125.2487793 C651.79244653 123.08612503 651.20992762 120.92352719 650.62719727 118.76098633 C649.15145685 113.28337787 647.67958015 107.80478078 646.21484375 102.32421875 C643.28370408 91.37219605 640.28789557 80.44743149 637.13085938 69.55834961 C635.19801373 62.83290177 633.49270071 56.06414587 631.83032227 49.26757812 C629.31137933 39.05735412 626.37670439 28.96050702 623 19 C620.7301757 19 618.98968465 19.49144574 616.80078125 20.1015625 Z " fill="#FEFEFE" transform="translate(82,244)"/>
<path d="M0 0 C316.8 0 633.6 0 960 0 C960 442.2 960 884.4 960 1340 C643.2 1340 326.4 1340 0 1340 C0 897.8 0 455.6 0 0 Z M34 34 C34 453.76 34 873.52 34 1306 C327.04 1306 620.08 1306 922 1306 C922 886.24 922 466.48 922 34 C628.96 34 335.92 34 34 34 Z " fill="#FDFDFD" transform="translate(0,0)"/>
<path d="M0 0 C316.8 0 633.6 0 960 0 C960 442.2 960 884.4 960 1340 C643.2 1340 326.4 1340 0 1340 C0 897.8 0 455.6 0 0 Z M14 13 C14 446.62 14 880.24 14 1327 C320.57 1327 627.14 1327 943 1327 C943 893.38 943 459.76 943 13 C636.43 13 329.86 13 14 13 Z " fill="#010101" transform="translate(0,0)"/>
<path d="M0 0 C27.06898977 -0.12032643 27.06898977 -0.12032643 38.73828125 -0.14648438 C46.65516558 -0.16431596 54.57196314 -0.18525327 62.48876953 -0.22631836 C68.8819633 -0.25926725 75.27504367 -0.2769268 81.66831589 -0.28463173 C84.08956051 -0.29011221 86.51079997 -0.30081092 88.93199539 -0.31719017 C138.66443425 -0.63979505 138.66443425 -0.63979505 155 13 C158.79813683 17.86940619 160.37257713 21.71223572 160.28125 27.9453125 C159.5332746 33.40968837 154.9447446 37.50352183 151 41 C147.15729522 43.65384402 143.19610665 45.95334664 139 48 C140.0725 48.37125 141.145 48.7425 142.25 49.125 C151.68821834 52.70849466 159.73178166 55.95283375 165.0859375 64.79296875 C167.34809395 70.25501317 167.09601194 77.18287425 164.97265625 82.640625 C157.42904004 94.92773395 143.30972288 98.2711229 130.13373947 101.52215958 C115.12907393 104.88238037 99.44587513 104.26483842 84.1796875 104.1953125 C81.7391878 104.19157319 79.29868657 104.18873057 76.85818481 104.18673706 C70.49615184 104.17917279 64.13421306 104.15958787 57.7722168 104.1373291 C50.10600226 104.11307653 42.43975587 104.10405532 34.77351379 104.09242249 C23.18227741 104.07315801 11.59124691 104.03478534 0 104 C0 69.68 0 35.36 0 0 Z " fill="#FDFDFD" transform="translate(715,1157)"/>
<path d="M0 0 C27.19822926 -0.12032643 27.19822926 -0.12032643 38.94726562 -0.14648438 C46.90998126 -0.16429764 54.87256709 -0.18518342 62.83520508 -0.22631836 C69.26731568 -0.25933206 75.69931324 -0.27693991 82.13150215 -0.28463173 C84.56422259 -0.29010092 86.99693808 -0.30077608 89.4296093 -0.31719017 C101.92025549 -0.39798303 114.21496899 -0.11355432 126.63110352 1.34643555 C128.14894015 1.52442672 128.14894015 1.52442672 129.69744015 1.70601368 C141.45147852 3.24216266 154.21852457 6.35506598 162 16 C166.06645278 21.59721517 167.04285299 27.18886644 166 34 C163.85467835 41.44158449 158.40451491 46.30695374 151.94921875 50.25390625 C147.76590612 52.45522222 143.56398482 53.7453151 139 55 C140.37671875 55.34611328 140.37671875 55.34611328 141.78125 55.69921875 C159.06961442 60.29371055 159.06961442 60.29371055 163.671875 67.90234375 C166.71904797 73.6043424 166.70688425 79.02472026 166.6875 85.375 C166.70406367 87.50789166 166.72843697 89.64074119 166.76171875 91.7734375 C166.7611145 93.17215088 166.7611145 93.17215088 166.76049805 94.59912109 C166.83658681 97.26336287 166.83658681 97.26336287 169 100 C169.99 100.33 170.98 100.66 172 101 C172 101.99 172 102.98 172 104 C152.2 104 132.4 104 112 104 C109.54602929 96.63808788 108.56717562 91.53516441 108.56054688 84.13085938 C108.4256192 79.02687106 107.75146891 75.77356888 104 72 C95.27656346 67.78699982 84.77569553 68.45315744 75.3125 68.3125 C69.929375 68.209375 64.54625 68.10625 59 68 C59 79.88 59 91.76 59 104 C39.53 104 20.06 104 0 104 C0 69.68 0 35.36 0 0 Z " fill="#FDFDFD" transform="translate(491,1157)"/>
<path d="M0 0 C48.51 0 97.02 0 147 0 C147 7.92 147 15.84 147 24 C117.96 24 88.92 24 59 24 C59 28.95 59 33.9 59 39 C83.75 39 108.5 39 134 39 C134 46.92 134 54.84 134 63 C109.25 63 84.5 63 59 63 C59 68.61 59 74.22 59 80 C89.36 80 119.72 80 151 80 C151 87.92 151 95.84 151 104 C101.17 104 51.34 104 0 104 C0 69.68 0 35.36 0 0 Z " fill="#FEFEFE" transform="translate(80,1157)"/>
<path d="M0 0 C0.61617188 0.20109375 1.23234375 0.4021875 1.8671875 0.609375 C13.95719341 4.59305511 24.83785877 9.88975322 32 21 C32.69561828 23.32486647 33.36498864 25.65785366 34 28 C26.6546542 28.11601154 19.30950691 28.20477378 11.96342945 28.25906086 C8.55203126 28.2851206 5.14126126 28.3204489 1.73022461 28.37719727 C-2.19409584 28.44207403 -6.11816474 28.4662107 -10.04296875 28.48828125 C-11.26396774 28.51408768 -12.48496674 28.5398941 -13.7429657 28.56648254 C-22.29062766 28.56931218 -22.29062766 28.56931218 -25.99731445 25.59448242 C-26.9886438 24.31021362 -26.9886438 24.31021362 -28 23 C-31.78824012 20.97278168 -34.9913347 20.74328253 -39.25390625 20.734375 C-41.02991211 20.73050781 -41.02991211 20.73050781 -42.84179688 20.7265625 C-44.68354492 20.73816406 -44.68354492 20.73816406 -46.5625 20.75 C-47.79419922 20.74226563 -49.02589844 20.73453125 -50.29492188 20.7265625 C-51.47763672 20.72914062 -52.66035156 20.73171875 -53.87890625 20.734375 C-55.49647827 20.73775879 -55.49647827 20.73775879 -57.14672852 20.74121094 C-59.95665119 20.9960683 -61.61227878 21.5482655 -64 23 C-64.41780879 25.37305578 -64.41780879 25.37305578 -64 28 C-54.88924557 34.55648935 -41.73908128 34.60126575 -30.94799805 35.875 C-24.0380259 36.70348468 -17.30280448 37.78119769 -10.5 39.26171875 C-7.35482777 39.92515352 -4.20791244 40.45953811 -1.03540039 40.97192383 C12.56432612 43.24751679 27.91171214 47.85579099 36.5625 59.25 C39.5283837 64.17386263 40.01760655 68.38104208 39 74 C36.71279216 82.17242099 32.10732062 87.58663024 24.85546875 91.84765625 C13.21665504 97.89162677 1.63583631 101.50035675 -11.375 103.25 C-13.24273071 103.50257568 -13.24273071 103.50257568 -15.14819336 103.76025391 C-46.69705136 107.65624676 -88.89678537 108.44971709 -115.6875 88 C-121.85734999 82.60917147 -125.03826808 78.33831492 -126 70 C-118.63738276 69.88408183 -111.27496266 69.79527352 -103.91161728 69.74093914 C-100.49234507 69.71485909 -97.07369772 69.6794935 -93.65478516 69.62280273 C-89.72305822 69.55801773 -85.79158311 69.5338061 -81.859375 69.51171875 C-80.63321472 69.48591232 -79.40705444 69.4601059 -78.14373779 69.43351746 C-77.00285706 69.4331398 -75.86197632 69.43276215 -74.68652344 69.43237305 C-73.68280701 69.42126999 -72.67909058 69.41016693 -71.6449585 69.39872742 C-68.02663311 70.22127335 -67.08568693 72.02994696 -65 75 C-55.41361488 81.31298533 -41.10767082 81.16679374 -30 80 C-26.11814941 79.03164248 -22.58534161 77.76897912 -19 76 C-19 74.35 -19 72.7 -19 71 C-30.57776612 65.00437112 -43.2931785 64.04718955 -56.0625 62.625 C-103.37084179 57.26994856 -103.37084179 57.26994856 -116.9140625 42.98046875 C-121.30872258 37.36738395 -122.44689941 32.75719108 -122.33203125 25.65625 C-121.50585113 19.04680906 -117.89038365 14.41898138 -112.875 10.25 C-84.87348023 -9.72472498 -31.8592086 -10.85313699 0 0 Z " fill="#FCFCFC" transform="translate(403,1159)"/>
<path d="M0 0 C13.2 0 26.4 0 40 0 C40.556875 2.74699219 41.11375 5.49398437 41.6875 8.32421875 C42.45714993 12.1122204 43.22841242 15.89989259 44 19.6875 C44.20019745 20.67064178 44.4003949 21.65378357 44.60665894 22.66671753 C47.8161831 38.40889806 51.14348958 54.1220209 54.61132812 69.80932617 C54.773181 70.54672028 54.93503387 71.28411438 55.10179138 72.04385376 C55.53493934 74.0168257 55.97155766 75.98903487 56.40844727 77.96118164 C57 81 57 81 57 84 C57.66 84 58.32 84 59 84 C59.07476562 83.35160156 59.14953125 82.70320313 59.2265625 82.03515625 C60.39119989 73.34604788 62.38473276 64.94358084 64.46850586 56.43652344 C66.63410071 47.58158891 68.68582356 38.70556791 70.6875 29.8125 C70.97262451 28.54937988 71.25774902 27.28625977 71.55151367 25.98486328 C73.234528 18.49981727 73.234528 18.49981727 74.83837891 10.99755859 C75.10440918 9.72348145 75.37043945 8.4494043 75.64453125 7.13671875 C75.88147705 5.98260498 76.11842285 4.82849121 76.36254883 3.6394043 C77 1 77 1 78 0 C90.54 0 103.08 0 116 0 C116 41.91 116 83.82 116 127 C108.08 127 100.16 127 92 127 C91.67 96.97 91.34 66.94 91 36 C84.1029454 64.07470216 84.1029454 64.07470216 77.6875 92.25 C75.77823899 101.00456186 73.85236719 109.75466603 71.83203125 118.484375 C71.57978035 119.59114594 71.57978035 119.59114594 71.32243347 120.72027588 C70.11616107 125.88383893 70.11616107 125.88383893 69 127 C67.21928754 127.08726223 65.4351686 127.10699041 63.65234375 127.09765625 C62.57275391 127.09443359 61.49316406 127.09121094 60.38085938 127.08789062 C59.24455078 127.07951172 58.10824219 127.07113281 56.9375 127.0625 C55.79732422 127.05798828 54.65714844 127.05347656 53.48242188 127.04882812 C50.65489649 127.03699747 47.8274736 127.0205141 45 127 C38.33333333 97 31.66666667 67 25 37 C24.67 66.7 24.34 96.4 24 127 C16.08 127 8.16 127 0 127 C0 85.09 0 43.18 0 0 Z " fill="#FCFCFC" transform="translate(79,72)"/>
<path d="M0 0 C54.57142857 0 54.57142857 0 63.8125 5.75 C72.17896572 14.35550759 73.39671703 23.49394695 73.36791992 35.02172852 C73.21353708 43.43230106 71.81569396 50.48909059 66.75 57.375 C63.4540996 60.52108675 59.96037051 62.7790478 56 65 C56.58007812 65.20753906 57.16015625 65.41507812 57.7578125 65.62890625 C63.58316305 67.92636299 67.72012555 70.55863452 71 76 C72.71693548 80.40164174 73.27869379 84.16275894 73.37890625 88.875 C73.41306641 90.19113281 73.44722656 91.50726563 73.48242188 92.86328125 C73.50964765 94.24217708 73.53633861 95.62108357 73.5625 97 C73.78340815 107.03140306 74.21185362 116.99510052 75 127 C67.08 127 59.16 127 51 127 C49.3230257 121.9690771 48.70729215 118.35043904 48.69140625 113.22265625 C48.66625073 111.72460541 48.64085264 110.22655862 48.61523438 108.72851562 C48.58652795 106.39397194 48.56247586 104.05949843 48.54370117 101.72485352 C48.52191332 99.45293127 48.48247713 97.18180022 48.44140625 94.91015625 C48.44129044 94.22139908 48.44117462 93.53264191 48.4410553 92.82301331 C48.3395945 87.79658629 47.25272442 84.40388171 45 80 C39.14049802 74.50671689 33.42632132 75.64817856 25 75 C25 92.16 25 109.32 25 127 C16.75 127 8.5 127 0 127 C0 85.09 0 43.18 0 0 Z " fill="#FBFBFB" transform="translate(470,72)"/>
<path d="M0 0 C1.39120471 0.00015906 2.78241534 0.00585033 4.17358398 0.01586914 C4.90463852 0.01728409 5.63569305 0.01869904 6.38890076 0.02015686 C8.73253406 0.02577131 11.07607313 0.03832617 13.41967773 0.05102539 C15.00496282 0.05603853 16.59024939 0.06060176 18.17553711 0.06469727 C22.06945383 0.07574542 25.96329979 0.09301967 29.85717773 0.11352539 C30.10363037 1.14010254 30.35008301 2.16667969 30.60400391 3.22436523 C31.54205649 7.12797004 32.48433778 11.03054492 33.42773438 14.93286133 C33.83118592 16.60414377 34.23357378 18.27568344 34.63476562 19.94750977 C36.71405751 28.60905185 38.85151092 37.23878059 41.28295898 45.80883789 C44.75019876 58.05277578 47.64553622 70.44039882 50.62768555 82.80932617 C51.3892329 85.96340951 52.15352019 89.11680886 52.91967773 92.26977539 C53.16532471 93.28249512 53.41097168 94.29521484 53.6640625 95.33862305 C55.40540771 102.44839403 57.29345785 109.50613178 59.38476562 116.5213623 C60.48879852 120.31827544 60.85717773 123.07258255 60.85717773 127.11352539 C52.27717773 127.11352539 43.69717773 127.11352539 34.85717773 127.11352539 C33.86717773 123.05040039 32.87717773 118.98727539 31.85717773 114.80102539 C31.54393555 113.52316162 31.23069336 112.24529785 30.90795898 110.92871094 C30.66432617 109.92106689 30.42069336 108.91342285 30.16967773 107.87524414 C29.91831055 106.84359131 29.66694336 105.81193848 29.40795898 104.74902344 C28.85717773 102.11352539 28.85717773 102.11352539 28.85717773 99.11352539 C17.63717773 99.11352539 6.41717773 99.11352539 -5.14282227 99.11352539 C-5.47282227 102.08352539 -5.80282227 105.05352539 -6.14282227 108.11352539 C-6.4191466 109.62968103 -6.72193848 111.14198818 -7.08032227 112.64086914 C-7.33942383 113.73431641 -7.33942383 113.73431641 -7.60375977 114.84985352 C-7.78165039 115.57624023 -7.95954102 116.30262695 -8.14282227 117.05102539 C-8.32071289 117.80448242 -8.49860352 118.55793945 -8.68188477 119.33422852 C-9.99993823 124.82775732 -9.99993823 124.82775732 -11.14282227 127.11352539 C-19.06282227 127.11352539 -26.98282227 127.11352539 -35.14282227 127.11352539 C-34.01717851 116.98273157 -34.01717851 116.98273157 -33.09204102 113.35180664 C-32.89030273 112.55073486 -32.68856445 111.74966309 -32.48071289 110.92431641 C-32.26608398 110.09988037 -32.05145508 109.27544434 -31.83032227 108.42602539 C-31.60666992 107.54809326 -31.38301758 106.67016113 -31.15258789 105.765625 C-29.89642719 100.87742415 -28.56231272 96.01967446 -27.14282227 91.17602539 C-25.17542617 84.45673306 -23.58905683 77.66763871 -21.99829102 70.85205078 C-20.57123916 64.7843445 -18.93921992 58.81100132 -17.17407227 52.83227539 C-15.61696833 47.21726424 -14.32623242 41.54317074 -13.00268555 35.86938477 C-11.53589351 29.6312777 -9.87086038 23.49727772 -8.05297852 17.35180664 C-6.77212119 12.79459324 -5.75498674 8.18885693 -4.75610352 3.56274414 C-3.85384991 -0.04052346 -3.85356167 0.1391988 0 0 Z " fill="#FBFBFB" transform="translate(238.142822265625,71.886474609375)"/>
<path d="M0 0 C8.25 0 16.5 0 25 0 C25.09061472 12.57035322 25.16389675 25.14048707 25.20724869 37.7110939 C25.22806258 43.54905652 25.25626666 49.38678276 25.30175781 55.22460938 C25.34543695 60.8656418 25.36918365 66.50644783 25.37950897 72.14763641 C25.38686085 74.29247345 25.40121672 76.43729905 25.42292023 78.58203888 C25.5654523 93.25989592 25.42527386 107.44587483 15 119 C2.36515896 129.58649602 -11.11383801 130.13540547 -27 129 C-35.56478671 127.4149893 -42.99008527 122.82192246 -48.5625 116.12109375 C-53.99962752 108.11103981 -55.45568974 99.27307956 -55.34057617 89.77685547 C-55.34101425 88.80979172 -55.34145233 87.84272797 -55.34190369 86.84635925 C-55.33983284 83.68642162 -55.31658281 80.52703112 -55.29296875 77.3671875 C-55.28736673 75.16187835 -55.2830995 72.95656545 -55.28010559 70.75125122 C-55.26870458 64.97429928 -55.23927845 59.19757711 -55.20599365 53.42071533 C-55.17519016 47.5148835 -55.16157835 41.60901418 -55.14648438 35.703125 C-55.11440398 24.13529998 -55.06167503 12.56770513 -55 1 C-47.08 1 -39.16 1 -31 1 C-30.98541748 3.76487793 -30.97083496 6.52975586 -30.95581055 9.37841797 C-30.90535419 18.53871009 -30.83873972 27.6988342 -30.76428509 36.85896111 C-30.71965855 42.4098654 -30.68038543 47.9606976 -30.65356445 53.51171875 C-30.62745451 58.87406339 -30.5869978 64.23612946 -30.53681374 69.59830093 C-30.52019695 71.6386581 -30.5086505 73.67906339 -30.50238609 75.71947861 C-30.4926884 78.58915803 -30.46456195 81.45813303 -30.43237305 84.32763672 C-30.43452568 85.5781356 -30.43452568 85.5781356 -30.4367218 86.85389709 C-30.32261796 94.10031559 -29.05674259 101.03587097 -24.875 107.0625 C-20.92756212 109.72272988 -17.72797467 110.36247806 -13 110 C-9.7313076 109.27490274 -7.54600433 108.16958326 -5 106 C-1.31363092 99.63261263 -0.41189972 93.28156126 -0.45410156 86.05224609 C-0.44376389 85.11444305 -0.43342621 84.17664001 -0.42277527 83.2104187 C-0.39356209 80.14791188 -0.39185266 77.08607212 -0.390625 74.0234375 C-0.37562885 71.88537349 -0.35889871 69.74732101 -0.34051514 67.60928345 C-0.29699077 62.00998373 -0.27687558 56.41084026 -0.26177979 50.81140137 C-0.24215486 45.08641376 -0.20019095 39.36159357 -0.16015625 33.63671875 C-0.0850155 22.42450264 -0.03669354 11.21240791 0 0 Z " fill="#FCFCFC" transform="translate(430,72)"/>
<path d="M0 0 C0.73992187 0.52335937 1.47984375 1.04671875 2.2421875 1.5859375 C3.19738281 2.24722656 3.19738281 2.24722656 4.171875 2.921875 C11.02054576 8.18774185 16.08433481 16.25988324 18.2421875 24.5859375 C19.79641177 37.70326483 17.77286408 48.49788479 10.0546875 59.3984375 C2.84870577 68.02685815 -7.5898152 74.1585485 -18.7578125 75.5859375 C-33.40507996 76.70567383 -46.05952947 75.41310985 -57.6953125 65.53125 C-67.95528879 55.85422691 -72.52948342 47.48379711 -73.0078125 33.2734375 C-72.85138001 21.83822251 -68.17768562 13.21729156 -60.5703125 4.8984375 C-56.22071389 0.76007767 -51.15409801 -1.87009933 -45.7578125 -4.4140625 C-45.06171875 -4.75695312 -44.365625 -5.09984375 -43.6484375 -5.453125 C-30.08777863 -11.07711918 -11.89513881 -7.79074587 0 0 Z " fill="#F7F7F7" transform="translate(177.7578125,280.4140625)"/>
<path d="M0 0 C21.12 0 42.24 0 64 0 C64 6.6 64 13.2 64 20 C50.8 20 37.6 20 24 20 C24 30.23 24 40.46 24 51 C36.21 51 48.42 51 61 51 C61 57.27 61 63.54 61 70 C48.79 70 36.58 70 24 70 C24 82.54 24 95.08 24 108 C37.53 108 51.06 108 65 108 C65 114.27 65 120.54 65 127 C43.55 127 22.1 127 0 127 C0 85.09 0 43.18 0 0 Z " fill="#FDFDFD" transform="translate(558,72)"/>
<path d="M0 0 C26.4 0 52.8 0 80 0 C80 6.93 80 13.86 80 21 C70.76 21 61.52 21 52 21 C52 55.98 52 90.96 52 127 C43.75 127 35.5 127 27 127 C27 92.35 27 57.7 27 22 C18.09 22 9.18 22 0 22 C0 14.74 0 7.48 0 0 Z " fill="#F9F9F9" transform="translate(288,72)"/>
<path d="M0 0 C20.13 0 40.26 0 61 0 C61 30.01811441 61 30.01811441 55.84667969 44.47070312 C54.30493312 49.07638204 53.17935994 53.79115446 52 58.5 C49.95988968 66.48661725 47.74045704 74.39035947 45.32910156 82.2722168 C42.30028522 92.20693235 39.5457179 102.21877576 36.77441406 112.2277832 C35.86337997 115.48906697 34.93024464 118.74414376 34 122 C25.42 122 16.84 122 8 122 C9.88854712 114.44581154 11.81759401 107.04059567 14.125 99.625 C14.74288849 97.61870534 15.36003717 95.61218273 15.9765625 93.60546875 C16.46624512 92.0129126 16.46624512 92.0129126 16.96582031 90.38818359 C18.64436279 84.88893606 20.28151837 79.37738258 21.92440796 73.86740112 C25.04245176 63.41291983 28.20959167 52.97941625 31.6171875 42.61499023 C34.05140294 35.12350873 35.95819696 27.65676138 38 20 C25.46 19.67 12.92 19.34 0 19 C0 12.73 0 6.46 0 0 Z " fill="#FBFBFB" transform="translate(743,77)"/>
<path d="M0 0 C0 40.26 0 80.52 0 122 C-7.92 122 -15.84 122 -24 122 C-24.495 75.965 -24.495 75.965 -25 29 C-28.3 31.64 -31.6 34.28 -35 37 C-41.4 41 -41.4 41 -44 41 C-45.80145557 20.35758674 -45.80145557 20.35758674 -41.9375 15.30078125 C-39.1875 13.75 -39.1875 13.75 -36.09375 12.48046875 C-32.28000999 10.65545932 -30.75639275 8.38621351 -28.1875 5.0625 C-22 0 -22 0 0 0 Z " fill="#FDFDFD" transform="translate(721,77)"/>
<path d="M0 0 C5.87997468 5.30111707 7.4054252 11.38001809 8 19 C8.1465695 23.59421766 8.1858265 28.18498006 8.18530273 32.78100586 C8.18749142 34.92907476 8.205705 37.07663075 8.22460938 39.22460938 C8.30807704 58.82474773 8.30807704 58.82474773 1.73046875 65.55859375 C-5.1862685 71.31993922 -14.4999026 70.87037568 -23.05615234 70.24121094 C-27.54813787 69.68380304 -30.81866498 68.20283053 -34 65 C-41.01362423 55.07538125 -40.20440276 43.78649374 -40.25 32.125 C-40.270625 30.81402344 -40.29125 29.50304688 -40.3125 28.15234375 C-40.35170493 18.38051615 -39.74152175 8.65253821 -33 1 C-24.43707438 -5.38021909 -9.17383294 -5.29259593 0 0 Z " fill="#FBFBFB" transform="translate(172,1067)"/>
<path d="M0 0 C34 0 34 0 40 4 C45.44671781 9.74931324 46.31300146 15.63012741 46.3359375 23.328125 C46.3425943 24.11717224 46.3492511 24.90621948 46.35610962 25.71917725 C46.36619545 27.38323654 46.3709279 29.04733595 46.37060547 30.71142578 C46.37496345 33.22888629 46.41128168 35.74456952 46.44921875 38.26171875 C46.52109892 48.50070554 45.98082302 57.08263646 39.5 65.5 C37 68 37 68 33 70 C22.11 70 11.22 70 0 70 C0 46.9 0 23.8 0 0 Z " fill="#FDFDFD" transform="translate(697,1066)"/>
<path d="M0 0 C6.6 0 13.2 0 20 0 C20 11.55 20 23.1 20 35 C30.23 35 40.46 35 51 35 C51 41.6 51 48.2 51 55 C40.77 55 30.54 55 20 55 C20 66.22 20 77.44 20 89 C13.4 89 6.8 89 0 89 C0 77.78 0 66.56 0 55 C-10.23 55 -20.46 55 -31 55 C-31 48.4 -31 41.8 -31 35 C-20.77 35 -10.54 35 0 35 C0 23.45 0 11.9 0 0 Z " fill="#FBFBFB" transform="translate(842,110)"/>
<path d="M0 0 C29 0 29 0 37 4 C40.93157569 8.41603525 41.52580305 11.72861193 41.4375 17.5625 C41.43621094 18.84253906 41.43492187 20.12257813 41.43359375 21.44140625 C40.8157087 26.5125169 38.7369556 29.61894493 35 33 C35.763125 33.350625 36.52625 33.70125 37.3125 34.0625 C40.8065166 36.5814422 42.11173929 38.88666965 43 43 C43.77114302 50.91832221 44.07324706 58.47725377 39 65 C28.18010682 75.54246002 15.58300139 71 0 71 C0 47.57 0 24.14 0 0 Z " fill="#F8F8F8" transform="translate(780,1065)"/>
<path d="M0 0 C37.76017442 0 37.76017442 0 43.90234375 5.6875 C46.36720939 9.57987628 46.71787302 12.53197578 46.5625 17 C46.57345703 17.68578125 46.58441406 18.3715625 46.59570312 19.078125 C46.5229489 24.16122032 45.152291 27.08156778 42 31 C39.75 32.875 39.75 32.875 38 34 C38.763125 34.4125 39.52625 34.825 40.3125 35.25 C43.03751001 37.02442513 44.30038162 38.26913534 46 41 C46.40063477 43.25488281 46.40063477 43.25488281 46.44140625 45.703125 C46.46783203 46.60160156 46.49425781 47.50007813 46.52148438 48.42578125 C46.53501953 49.35777344 46.54855469 50.28976562 46.5625 51.25 C46.68743254 57.82978063 47.14845152 63.66458109 49 70 C44.05 70 39.1 70 34 70 C32.77643543 67.55287086 32.84327851 65.86699057 32.7890625 63.1328125 C32.76070312 62.16472656 32.73234375 61.19664063 32.703125 60.19921875 C32.65124476 58.15773127 32.6069136 56.11603731 32.5703125 54.07421875 C32.539375 53.10355469 32.5084375 52.13289063 32.4765625 51.1328125 C32.4468335 49.80080811 32.4468335 49.80080811 32.41650391 48.44189453 C31.91783565 45.51828383 31.03369425 44.13672677 29 42 C23.90098049 40.30032683 18.35900683 40.41223129 13 40 C13 49.9 13 59.8 13 70 C8.71 70 4.42 70 0 70 C0 46.9 0 23.8 0 0 Z " fill="#FBFBFB" transform="translate(484,1066)"/>
<path d="M0 0 C4.95 0 9.9 0 15 0 C17.071088 4.88553492 19.13366071 9.77455197 21.18896484 14.66674805 C21.88692209 16.32491844 22.58705763 17.98217391 23.28955078 19.63842773 C27.38870676 29.30740693 31.20059391 38.86066001 34 49 C34.0095874 48.15630859 34.0191748 47.31261719 34.02905273 46.44335938 C34.05192057 44.43098958 34.07478841 42.41861979 34.09765625 40.40625 C34.06428889 36.97827154 34.06428889 36.97827154 33.5 33.53125 C32.62617881 27.06171671 32.8960323 20.51361804 32.9375 14 C32.94252513 12.63932456 32.94708624 11.27864733 32.95117188 9.91796875 C32.96289531 6.61195989 32.98082876 3.30597406 33 0 C37.62 0 42.24 0 47 0 C47 23.43 47 46.86 47 71 C42.05 71 37.1 71 32 71 C30.07403073 66.37982911 28.15372749 61.75735601 26.23828125 57.1328125 C25.58808078 55.56513547 24.93642771 53.99805998 24.28320312 52.43164062 C23.33586152 50.15918315 22.39404707 47.88449686 21.453125 45.609375 C21.16753723 44.92760193 20.88194946 44.24582886 20.58770752 43.543396 C18.0668089 37.42276803 16.11088289 31.33264866 14 25 C14 40.18 14 55.36 14 71 C9.38 71 4.76 71 0 71 C0 47.57 0 24.14 0 0 Z " fill="#F6F6F6" transform="translate(350,1065)"/>
<path d="M0 0 C4.62 0 9.24 0 14 0 C17.73254484 7.05240044 20.70736381 14.3909889 23.69116211 21.78100586 C24.5597685 23.93073974 25.43478638 26.07778152 26.31054688 28.22460938 C29.0967288 35.08297208 31.78103153 41.93246698 34 49 C33.89171875 47.44732422 33.89171875 47.44732422 33.78125 45.86328125 C32.82832354 30.91031928 32.90722624 15.97780875 33 1 C37.29 1 41.58 1 46 1 C46 24.1 46 47.2 46 71 C41.38 71 36.76 71 32 71 C24.69216531 55.63676506 18.51975731 40.09087995 13 24 C13.0721875 25.29808594 13.144375 26.59617187 13.21875 27.93359375 C13.96900185 42.29937868 14.10769536 56.61668598 14 71 C9.38 71 4.76 71 0 71 C0 47.57 0 24.14 0 0 Z " fill="#FAFAFA" transform="translate(193,1065)"/>
<path d="M0 0 C5.94 0 11.88 0 18 0 C20.73099833 7.60895619 22.52340933 15.29635215 24.25 23.1875 C24.85837897 25.93410614 25.47021292 28.67993947 26.08203125 31.42578125 C26.23761002 32.12598389 26.39318878 32.82618652 26.55348206 33.54760742 C28.43722894 42.00494599 30.42116031 50.43881653 32.40808105 58.87240601 C32.8444242 60.72465534 33.27966302 62.57716472 33.71484375 64.4296875 C33.96355225 65.48397949 34.21226074 66.53827148 34.46850586 67.62451172 C35 70 35 70 35 71 C30.05 71 25.1 71 20 71 C17 58.625 17 58.625 17 53 C11.39 53 5.78 53 0 53 C-0.12375 54.485 -0.2475 55.97 -0.375 57.5 C-0.83412781 62.17112642 -1.74505167 66.48218602 -3 71 C-7.62 71 -12.24 71 -17 71 C-15.33488086 61.12442635 -13.07020913 51.42472812 -10.75 41.6875 C-10.55157501 40.85071716 -10.35315002 40.01393433 -10.14871216 39.15179443 C-7.03104554 26.01834295 -3.67156548 12.99169324 0 0 Z " fill="#F9F9F9" transform="translate(555,1065)"/>
<path d="M0 0 C0.73992187 0.52335937 1.47984375 1.04671875 2.2421875 1.5859375 C3.19738281 2.24722656 3.19738281 2.24722656 4.171875 2.921875 C11.02054576 8.18774185 16.08433481 16.25988324 18.2421875 24.5859375 C19.79641177 37.70326483 17.77286408 48.49788479 10.0546875 59.3984375 C2.84870577 68.02685815 -7.5898152 74.1585485 -18.7578125 75.5859375 C-33.40507996 76.70567383 -46.05952947 75.41310985 -57.6953125 65.53125 C-67.95528879 55.85422691 -72.52948342 47.48379711 -73.0078125 33.2734375 C-72.85138001 21.83822251 -68.17768562 13.21729156 -60.5703125 4.8984375 C-56.22071389 0.76007767 -51.15409801 -1.87009933 -45.7578125 -4.4140625 C-45.06171875 -4.75695312 -44.365625 -5.09984375 -43.6484375 -5.453125 C-30.08777863 -11.07711918 -11.89513881 -7.79074587 0 0 Z M-57.0703125 11.8359375 C-64.47777014 20.88456839 -65.97165125 29.11721917 -65.03710938 40.61523438 C-64.38405379 45.22315806 -62.39238801 48.82854847 -59.7578125 52.5859375 C-59.0565625 53.6378125 -58.3553125 54.6896875 -57.6328125 55.7734375 C-50.69027605 63.43416738 -40.83397459 67.77227028 -30.734375 68.93359375 C-19.60038899 69.45929043 -9.59961846 66.50871522 -1.1328125 59.1484375 C6.08207543 51.99259121 10.33106146 44.88394616 10.6171875 34.6484375 C10.27243124 23.22838651 5.65962766 15.59088068 -2.5078125 7.8359375 C-18.16953343 -5.35605052 -43.30022729 -2.72028517 -57.0703125 11.8359375 Z " fill="#080808" transform="translate(177.7578125,280.4140625)"/>
<path d="M0 0 C4.84378994 2.59488747 7.03382334 5.3615543 9.8125 10.125 C10.87983138 14.39432552 10.61712714 18.48273223 10.5 22.875 C6.21 22.875 1.92 22.875 -2.5 22.875 C-2.95572917 20.3359375 -3.41145833 17.796875 -3.8671875 15.2578125 C-4.33044703 12.70994012 -4.33044703 12.70994012 -6.5 10.875 C-9.91538144 10.29130557 -9.91538144 10.29130557 -13.5 10.875 C-16.59563987 13.65633029 -17.74159528 15.87609097 -17.98583984 19.94335938 C-17.99865502 21.53512631 -17.98911997 23.12718098 -17.9609375 24.71875 C-17.96002106 25.56546265 -17.95910461 26.41217529 -17.9581604 27.2845459 C-17.95213442 29.06980007 -17.93641851 30.8550446 -17.91162109 32.64013672 C-17.87512131 35.3659408 -17.87060195 38.09038327 -17.87109375 40.81640625 C-17.86126123 42.55469919 -17.84960364 44.29298297 -17.8359375 46.03125 C-17.83259903 47.24862854 -17.83259903 47.24862854 -17.82919312 48.49060059 C-17.75926004 52.67952009 -17.56687981 56.11238288 -15.5 59.875 C-13.21294169 61.01852916 -11.90735238 60.97834439 -9.375 60.9375 C-7.456875 60.9065625 -7.456875 60.9065625 -5.5 60.875 C-3.58697693 57.60886305 -3.14325339 54.88054752 -2.875 51.125 C-2.75125 49.3925 -2.6275 47.66 -2.5 45.875 C2.12 45.875 6.74 45.875 11.5 45.875 C11.09976897 53.77956294 10.56141198 61.31149039 5.078125 67.47265625 C-0.63797197 72.52580383 -6.0502662 73.32748586 -13.42578125 73.19140625 C-19.39258181 72.57728828 -23.70531844 70.27953339 -28.375 66.625 C-32.77631333 60.92918274 -33.95854478 54.95919145 -33.86328125 47.82421875 C-33.86377975 47.08476517 -33.86427826 46.34531158 -33.86479187 45.58345032 C-33.86246791 44.02964573 -33.85283958 42.47583617 -33.83618164 40.92211914 C-33.81266144 38.57858536 -33.81562508 36.23619966 -33.82226562 33.89257812 C-33.77845756 10.46738044 -33.77845756 10.46738044 -27.5 3.875 C-19.31328413 -2.05603115 -9.60827618 -3.00938462 0 0 Z " fill="#F7F7F7" transform="translate(110.5,1065.125)"/>
<path d="M0 0 C12.87 0 25.74 0 39 0 C39 3.63 39 7.26 39 11 C30.75 11 22.5 11 14 11 C14 16.61 14 22.22 14 28 C21.59 28 29.18 28 37 28 C37 31.63 37 35.26 37 39 C29.41 39 21.82 39 14 39 C14 45.93 14 52.86 14 60 C22.25 60 30.5 60 39 60 C39 63.63 39 67.26 39 71 C26.13 71 13.26 71 0 71 C0 47.57 0 24.14 0 0 Z " fill="#F4F4F4" transform="translate(301,1065)"/>
<path d="M0 0 C12.54 0 25.08 0 38 0 C38 3.3 38 6.6 38 10 C29.75 10 21.5 10 13 10 C13 15.94 13 21.88 13 28 C20.59 28 28.18 28 36 28 C36 31.3 36 34.6 36 38 C28.41 38 20.82 38 13 38 C13 45.26 13 52.52 13 60 C21.25 60 29.5 60 38 60 C38 63.3 38 66.6 38 70 C25.46 70 12.92 70 0 70 C0 46.9 0 23.8 0 0 Z " fill="#FDFDFD" transform="translate(647,1066)"/>
<path d="M0 0 C4.95 0 9.9 0 15 0 C19.46841036 8.41112538 22.77288594 17.06167034 26 26 C27.55422199 22.98984675 28.88723827 19.93421453 30.1640625 16.796875 C30.56367187 15.8171875 30.96328125 14.8375 31.375 13.828125 C31.99375 12.30445313 31.99375 12.30445313 32.625 10.75 C33.04523437 9.71875 33.46546875 8.6875 33.8984375 7.625 C34.93369808 5.08390586 35.96703532 2.5420283 37 0 C41.95 0 46.9 0 52 0 C50.54040957 4.3787713 49.06922265 8.14303004 47.06640625 12.24609375 C46.49986328 13.41333984 45.93332031 14.58058594 45.34960938 15.78320312 C44.75414301 17.00141784 44.15843812 18.21951599 43.5625 19.4375 C42.39499348 21.83100023 41.23033906 24.2258495 40.06640625 26.62109375 C39.55021729 27.6773999 39.03402832 28.73370605 38.50219727 29.82202148 C38.00647217 30.87075439 37.51074707 31.9194873 37 33 C36.45230957 34.13260254 35.90461914 35.26520508 35.34033203 36.43212891 C33.88128197 40.31601919 33.5741037 43.32820151 33.48828125 47.46484375 C33.47033005 48.14301651 33.45237885 48.82118927 33.43388367 49.51991272 C33.38025057 51.65904757 33.34603956 53.79796558 33.3125 55.9375 C33.27928508 57.39911843 33.24479163 58.8607084 33.20898438 60.32226562 C33.12217297 63.88153339 33.06171198 67.43985728 33 71 C28.38 71 23.76 71 19 71 C19.1134375 69.08445312 19.226875 67.16890625 19.34375 65.1953125 C19.99388676 43.14519022 14.2103114 27.39198711 3.67993164 8.1809082 C2 5 2 5 0 0 Z " fill="#F8F8F8" transform="translate(829,1065)"/>
<path d="M0 0 C15.18 0 30.36 0 46 0 C46 3.63 46 7.26 46 11 C40.72 11 35.44 11 30 11 C30 30.8 30 50.6 30 71 C25.38 71 20.76 71 16 71 C16 51.2 16 31.4 16 11 C10.72 11 5.44 11 0 11 C0 7.37 0 3.74 0 0 Z " fill="#F7F7F7" transform="translate(593,1065)"/>
<path d="M0 0 C15.18 0 30.36 0 46 0 C46 3.63 46 7.26 46 11 C40.72 11 35.44 11 30 11 C30 30.8 30 50.6 30 71 C25.38 71 20.76 71 16 71 C16 51.2 16 31.4 16 11 C10.72 11 5.44 11 0 11 C0 7.37 0 3.74 0 0 Z " fill="#F5F5F5" transform="translate(405,1065)"/>
<path d="M0 0 C15.18 0 30.36 0 46 0 C46 3.63 46 7.26 46 11 C40.72 11 35.44 11 30 11 C30 30.8 30 50.6 30 71 C25.38 71 20.76 71 16 71 C16 51.2 16 31.4 16 11 C10.72 11 5.44 11 0 11 C0 7.37 0 3.74 0 0 Z " fill="#F3F3F3" transform="translate(247,1065)"/>
<path d="M0 0 C3.96 -0.0825 7.92 -0.165 12 -0.25 C13.84851563 -0.30462402 13.84851563 -0.30462402 15.734375 -0.36035156 C23.92088842 -0.44253483 29.25517388 0.6296565 35.5 6.25 C37.52000825 9.95334846 37.686897 12.87024122 37 17 C35.2212373 21.21285902 33.02822129 22.93145393 29 25 C29.78375 25.53625 30.5675 26.0725 31.375 26.625 C36.01836051 30.8261357 36.33247081 36.37442187 37.125 42.375 C37.29257813 43.62023437 37.46015625 44.86546875 37.6328125 46.1484375 C37.75398438 47.08945312 37.87515625 48.03046875 38 49 C34.37 49 30.74 49 27 49 C26.84144531 47.80761719 26.68289062 46.61523438 26.51953125 45.38671875 C26.28501326 43.82013855 26.0492721 42.25374111 25.8125 40.6875 C25.71130859 39.90181641 25.61011719 39.11613281 25.50585938 38.30664062 C24.78880563 33.56728838 24.78880563 33.56728838 21.75 30 C18.80424257 28.92881548 16.31297924 28.50078188 13.1875 28.3125 C11.475625 28.209375 9.76375 28.10625 8 28 C8 34.93 8 41.86 8 49 C5.36 49 2.72 49 0 49 C0 32.83 0 16.66 0 0 Z " fill="#040404" transform="translate(133,289)"/>
<path d="M0 0 C3.37064959 2.55076185 4.71563984 5.02641419 6 9 C6.36973381 13.69249724 6.32937483 18.38677268 6.31567383 23.09179688 C6.31251923 25.36116823 6.33597795 27.62922753 6.36132812 29.8984375 C6.3636021 31.35676921 6.36430416 32.81510438 6.36328125 34.2734375 C6.36626221 35.58747559 6.36924316 36.90151367 6.37231445 38.25537109 C5.88718345 43.13467552 4.385612 46.73926464 1.8125 50.9375 C-1.31726676 52.77219086 -4.55097772 52.73283319 -8 52 C-11.21954645 49.46546343 -12.70432435 47.88702695 -14 44 C-14.12094407 41.25456952 -14.18812655 38.53530729 -14.203125 35.7890625 C-14.20882507 34.98391205 -14.21452515 34.1787616 -14.22039795 33.34921265 C-14.22983936 31.64623322 -14.23637852 29.9432356 -14.24023438 28.24023438 C-14.24993801 25.64160127 -14.28096784 23.04375997 -14.3125 20.4453125 C-14.31903067 18.78906719 -14.32428089 17.13281623 -14.328125 15.4765625 C-14.3404718 14.70245026 -14.3528186 13.92833801 -14.36553955 13.13076782 C-14.34208777 7.42073095 -13.09823597 4.24810997 -9.25 0.125 C-5.84106618 -1.57946691 -3.61570806 -0.96849323 0 0 Z " fill="#060606" transform="translate(160,1075)"/>
<path d="M0 0 C5.37197463 -0.09235486 10.74114217 -0.17182946 16.11328125 -0.21972656 C17.93661892 -0.23971364 19.75989356 -0.26691286 21.58300781 -0.30175781 C42.22738132 -0.68615469 42.22738132 -0.68615469 49 4 C51.49732489 7.74598733 51.62175294 9.57001031 51 14 C44.67834826 19.99746447 35.54572707 20.31093063 27.24609375 20.1953125 C26.06660912 20.19106766 26.06660912 20.19106766 24.86329651 20.18673706 C22.38786641 20.17567289 19.91281801 20.15059591 17.4375 20.125 C15.7441459 20.11495234 14.05078605 20.10582965 12.35742188 20.09765625 C8.23802114 20.07749276 4.11943037 20.03832028 0 20 C0 13.4 0 6.8 0 0 Z " fill="#010101" transform="translate(550,1182)"/>
<path d="M0 0 C5.37158939 -0.06926118 10.7415994 -0.12887515 16.11328125 -0.16479492 C17.93657715 -0.17978489 19.7598376 -0.20018384 21.58300781 -0.22631836 C44.70868523 -0.5492673 44.70868523 -0.5492673 50.71826172 4.42114258 C52 6 52 6 52.4375 8.9375 C51.89774072 12.71581496 51.01127215 13.72119946 48 16 C41.74315761 19.12842119 35.15728646 19.14299193 28.3203125 19.09765625 C27.50754852 19.0962413 26.69478455 19.09482635 25.85739136 19.09336853 C23.27988899 19.08780335 20.7024758 19.0752574 18.125 19.0625 C16.36979293 19.0574805 14.61458448 19.05291838 12.859375 19.04882812 C8.57285527 19.0386993 4.28652662 19.01911731 0 19 C0 12.73 0 6.46 0 0 Z " fill="#040404" transform="translate(774,1218)"/>
<path d="M0 0 C11 0 11 0 14.5625 1.5625 C19.97605031 6.97605031 19.30663937 14.69484659 19.37109375 21.88867188 C19.37085205 22.8872522 19.37085205 22.8872522 19.37060547 23.90600586 C19.37498319 25.92972774 19.41139016 27.95127126 19.44921875 29.97460938 C19.47148112 37.43621375 19.19682762 42.72807428 15 49 C10.36745971 52.27002844 5.93224548 51 0 51 C0 34.17 0 17.34 0 0 Z " fill="#0A0A0A" transform="translate(710,1075)"/>
<path d="M0 0 C15 0 15 0 20 3 C23.36749205 7.0985923 23.54199167 11.19231539 23.5 16.3125 C23.49577026 17.44764038 23.49577026 17.44764038 23.49145508 18.60571289 C23.32337814 24.39343273 22.28673193 28.83402108 18 33 C15 35 15 35 0 35 C0 23.45 0 11.9 0 0 Z " fill="#040404" transform="translate(495,92)"/>
<path d="M0 0 C4.82072446 -0.09236087 9.63832072 -0.17182882 14.45922852 -0.21972656 C16.09540264 -0.23971332 17.73150651 -0.26691243 19.36743164 -0.30175781 C36.1980291 -0.65100427 36.1980291 -0.65100427 44 4 C45 5 45 5 45.3125 7.8125 C45 11 45 11 43.375 13.25 C38.24404973 17.0307002 32.93918643 17.28217121 26.7578125 17.1953125 C25.98944061 17.1924826 25.22106873 17.18965271 24.42941284 17.18673706 C21.99444479 17.17561311 19.55985538 17.1505236 17.125 17.125 C15.46615118 17.11496011 13.80729654 17.10583603 12.1484375 17.09765625 C8.09869791 17.07740755 4.04976882 17.03824546 0 17 C0 11.39 0 5.78 0 0 Z " fill="#030303" transform="translate(774,1181)"/>
<path d="M0 0 C1.89965222 2.84947833 2.45506421 4.34021001 3.14501953 7.59155273 C3.34507599 8.51939072 3.54513245 9.4472287 3.75125122 10.40318298 C3.95966644 11.40321854 4.16808167 12.40325409 4.3828125 13.43359375 C4.60194305 14.46307632 4.82107361 15.4925589 5.04684448 16.55323792 C5.50879192 18.73055264 5.96754211 20.9085478 6.42333984 23.0871582 C7.12185612 26.42248834 7.83159852 29.75528111 8.54296875 33.08789062 C8.99025302 35.20298349 9.43688932 37.31821351 9.8828125 39.43359375 C10.09527618 40.43160507 10.30773987 41.42961639 10.52664185 42.45787048 C10.81727005 43.8543557 10.81727005 43.8543557 11.11376953 45.27905273 C11.28538605 46.09607162 11.45700256 46.91309052 11.63381958 47.75486755 C12 50 12 50 12 54 C4.41 54 -3.18 54 -11 54 C-8.96784058 41.95757383 -6.86142675 29.95715651 -4.375 18 C-4.06622925 16.50726563 -4.06622925 16.50726563 -3.7512207 14.984375 C-2.68395526 9.92167232 -1.49946482 4.95236087 0 0 Z " fill="#060606" transform="translate(249,97)"/>
<path d="M0 0 C13.31196581 -0.49303577 13.31196581 -0.49303577 16.42578125 1.73828125 C18.97335938 5.39844933 18.65066701 8.70559771 18 13 C15.91891892 17.54054054 15.91891892 17.54054054 13 19 C8.66396021 19.1393329 4.33919329 19.04254111 0 19 C0 12.73 0 6.46 0 0 Z " fill="#010101" transform="translate(498,1076)"/>
<path d="M0 0 C10.30769231 0 10.30769231 0 14 3 C15.34283649 5.68567297 15.24287519 7.87746853 15.3125 10.875 C15.34988281 11.92429687 15.38726563 12.97359375 15.42578125 14.0546875 C14.9023448 17.67552313 13.81568857 18.75371784 11 21 C9 22 9 22 0 22 C0 14.74 0 7.48 0 0 Z " fill="#070707" transform="translate(794,1104)"/>
<path d="M0 0 C1.588125 -0.061875 3.17625 -0.12375 4.8125 -0.1875 C6.15248047 -0.23970703 6.15248047 -0.23970703 7.51953125 -0.29296875 C10 0 10 0 11.80078125 1.16796875 C13.44871163 3.68549106 13.39911034 5.51031825 13.375 8.5 C13.38273438 9.4590625 13.39046875 10.418125 13.3984375 11.40625 C12.94328105 14.36922921 12.34768119 15.21347187 10 17 C8 18 8 18 0 18 C0 12.06 0 6.12 0 0 Z " fill="#030303" transform="translate(794,1076)"/>
<path d="M0 0 C2.60478883 -0.0809313 5.20706653 -0.14045434 7.8125 -0.1875 C8.55048828 -0.21263672 9.28847656 -0.23777344 10.04882812 -0.26367188 C15.50789408 -0.33777684 15.50789408 -0.33777684 17.98046875 1.359375 C19.49904923 3.80306773 19.54992216 5.18164894 19 8 C16.14677484 10.94994466 14.57062689 11.93722476 10.44921875 12.390625 C9.20785156 12.34421875 7.96648437 12.2978125 6.6875 12.25 C5.43324219 12.21390625 4.17898437 12.1778125 2.88671875 12.140625 C1.93410156 12.09421875 0.98148438 12.0478125 0 12 C0 8.04 0 4.08 0 0 Z " fill="#FAFAFA" transform="translate(141,297)"/>
<path d="M0 0 C0.33 0 0.66 0 1 0 C1.64613605 4.3541218 2.29185493 8.70830537 2.9375 13.0625 C3.11990234 14.29162109 3.30230469 15.52074219 3.49023438 16.78710938 C4.34054622 22.5228493 5.1895332 28.25848253 6 34 C2.04 34 -1.92 34 -6 34 C-5.71382812 32.61039063 -5.42765625 31.22078125 -5.1328125 29.7890625 C-3.90960951 23.67304754 -2.88451876 17.52932548 -1.875 11.375 C-1.69324219 10.27542969 -1.51148438 9.17585938 -1.32421875 8.04296875 C-0.88131288 5.3622227 -0.43993513 2.68123489 0 0 Z " fill="#0F0F0F" transform="translate(564,1074)"/>
<path d="M0 0 C0.33 0 0.66 0 1 0 C1.33 3.96 1.66 7.92 2 12 C1.01 11.67 0.02 11.34 -1 11 C-0.67 7.37 -0.34 3.74 0 0 Z " fill="#414141" transform="translate(564,1074)"/>
</svg>
