<?xml version="1.0" encoding="UTF-8"?>
<svg version="1.1" xmlns="http://www.w3.org/2000/svg" width="500" height="698">
<path d="M0 0 C165 0 330 0 500 0 C500 230.34 500 460.68 500 698 C335 698 170 698 0 698 C0 467.66 0 237.32 0 0 Z " fill="#020202" transform="translate(0,0)"/>
<path d="M0 0 C136.62 0 273.24 0 414 0 C414 135.63 414 271.26 414 411 C277.38 411 140.76 411 0 411 C0 275.37 0 139.74 0 0 Z " fill="#FCFCFC" transform="translate(42,127)"/>
<path d="M0 0 C3.29404417 10.01062361 6.34322142 20.03371698 8.9375 30.25 C11.69551793 41.0991793 14.91256854 51.77556941 18.22021484 62.46777344 C19.31839799 66.03394613 20.38841506 69.60652455 21.4375 73.1875 C21.74558594 74.23292969 22.05367188 75.27835937 22.37109375 76.35546875 C23 79 23 79 23 83 C21.85225098 83.27674561 20.70450195 83.55349121 19.52197266 83.83862305 C15.17112109 84.88858 10.82127156 85.94264062 6.47167969 86.99780273 C4.60638126 87.44972967 2.74082998 87.90061449 0.875 88.3503418 C-8.35440305 90.57564237 -17.56236797 92.82968644 -26.6953125 95.42578125 C-39.69340384 99.1134064 -52.85656953 102.16780501 -65.98681641 105.34326172 C-78.42002357 108.35403272 -90.82521733 111.39642472 -103.12744141 114.90893555 C-120.98867044 120 -120.98867044 120 -127 120 C-126.79842285 120.67466309 -126.5968457 121.34932617 -126.38916016 122.04443359 C-125.46315812 125.1532687 -124.54404613 128.26410179 -123.625 131.375 C-123.30789062 132.43589844 -122.99078125 133.49679687 -122.6640625 134.58984375 C-120.77193374 141.01519767 -119.17288048 147.40416348 -118 154 C-113.20182455 152.81306658 -108.40452202 151.62267984 -103.60791016 150.42944336 C-101.98508403 150.02621016 -100.36204564 149.62382999 -98.73876953 149.22241211 C-90.36200538 147.15031992 -82.01128733 145.02893646 -73.7109375 142.66796875 C-59.73518489 138.71358303 -45.57586909 135.43416431 -31.46405029 132.00531006 C-9.91946134 126.79434515 -9.91946134 126.79434515 11.47558594 121.00708008 C26.16349978 116.81009722 26.16349978 116.81009722 33 117 C35.99767914 124.45625255 38.10486362 132.14198021 40.25 139.875 C40.64785944 141.29936423 41.04589228 142.72368003 41.4440918 144.14794922 C44.24735348 154.19599855 46.98045597 164.26251831 49.67114258 174.34130859 C51.48748169 181.13894286 53.37535846 187.90916166 55.37109375 194.65625 C56 197 56 197 56 199 C31.24278636 205.93162159 6.33514532 212.19870199 -18.64702892 218.25917053 C-36.30754498 222.54129366 -36.30754498 222.54129366 -53.84840393 227.28222656 C-61.71991595 229.51408767 -69.66782636 231.41371048 -77.625 233.3125 C-79.13288217 233.67484038 -80.6406949 234.03746988 -82.1484375 234.40039062 C-85.76483743 235.27023315 -89.38213734 236.13625863 -93 237 C-92.38287797 241.07656205 -91.52200109 244.95622898 -90.37109375 248.9140625 C-90.05849609 250.00460937 -89.74589844 251.09515625 -89.42382812 252.21875 C-88.76388649 254.49783556 -88.10241692 256.77647922 -87.43945312 259.0546875 C-87.12814453 260.14265625 -86.81683594 261.230625 -86.49609375 262.3515625 C-86.06574829 263.83390381 -86.06574829 263.83390381 -85.62670898 265.34619141 C-85 268 -85 268 -85 272 C-81.70651994 271.27888461 -78.41564551 270.54643225 -75.125 269.8125 C-74.22652344 269.61591797 -73.32804688 269.41933594 -72.40234375 269.21679688 C-66.59737388 267.91568294 -60.86947386 266.42040554 -55.1484375 264.79296875 C-41.02627331 260.79575884 -26.72397247 257.4701501 -12.46405029 254.00531006 C8.90527737 248.82217489 8.90527737 248.82217489 30.13232422 243.09033203 C36.32641186 241.32993163 42.56749661 239.75654411 48.8125 238.1875 C50.02486328 237.87619141 51.23722656 237.56488281 52.48632812 237.24414062 C53.65228516 236.95087891 54.81824219 236.65761719 56.01953125 236.35546875 C57.56797729 235.96331177 57.56797729 235.96331177 59.14770508 235.56323242 C61.85303975 235.02901971 64.25216017 234.89051551 67 235 C68.52445757 240.29062883 70.0449888 245.58237452 71.5625 250.875 C71.78964691 251.66709869 72.01679382 252.45919739 72.25082397 253.27529907 C75.49699707 264.60788667 78.63688584 275.96084018 81.65087891 287.35766602 C83.58836184 294.63052615 85.75390282 301.7921547 88.15234375 308.92578125 C88.94361052 311.79549068 89.18288302 314.04616216 89 317 C80.99042284 319.84981641 72.81284855 321.86603382 64.5625 323.875 C56.25310649 325.90256007 47.97444659 327.98329964 39.74609375 330.3203125 C25.84230952 334.24937746 11.76123816 337.51194484 -2.27783203 340.91601562 C-19.19698108 344.98450179 -19.19698108 344.98450179 -36 349.5 C-49.6471193 353.39411965 -63.48823434 356.57243475 -77.27783203 359.91601562 C-95.47824145 364.32600721 -95.47824145 364.32600721 -113.55656433 369.20439148 C-121.85415486 371.5521175 -130.22327567 373.60693524 -138.6003418 375.6496582 C-141.35688035 376.3233464 -144.11102785 377.00630119 -146.86523438 377.68945312 C-148.63527952 378.1229562 -150.40545689 378.55591985 -152.17578125 378.98828125 C-153.39760857 379.29286003 -153.39760857 379.29286003 -154.64411926 379.60359192 C-158.50835292 380.53657912 -161.99076555 381.2587089 -166 381 C-169.0294703 372.32483479 -171.51293092 363.58093762 -173.8125 354.6875 C-176.2189728 345.4846999 -178.7315663 336.3332484 -181.5625 327.25 C-184.42028967 318.07409476 -186.97741325 308.83978181 -189.44555664 299.55200195 C-191.45994367 291.97729681 -193.56036017 284.43318969 -195.73071289 276.90185547 C-197.687125 270.11039377 -199.60016175 263.3074946 -201.5 256.5 C-203.83517646 248.1385208 -206.19553987 239.78501762 -208.59204102 231.44091797 C-210.1243627 226.09505133 -211.63418373 220.74321176 -213.12890625 215.38671875 C-213.89803249 212.6326992 -214.66756401 209.87879328 -215.4375 207.125 C-215.72698013 206.0894397 -215.72698013 206.0894397 -216.02230835 205.03295898 C-218.4672877 196.29937468 -220.99963686 187.5999867 -223.6875 178.9375 C-226.28862157 170.55389076 -228.570127 162.12239009 -230.73339844 153.61621094 C-232.45540849 146.91242808 -234.38328975 140.29652535 -236.4375 133.6875 C-239.27715982 124.54303107 -241.84139591 115.34868379 -244.2890625 106.09204102 C-245.87053644 100.13257348 -247.50240215 94.19159241 -249.21875 88.26953125 C-249.4968325 87.30830101 -249.4968325 87.30830101 -249.78053284 86.32765198 C-250.68339889 83.21138916 -251.59320523 80.09735785 -252.51147461 76.9855957 C-252.83639893 75.86886475 -253.16132324 74.75213379 -253.49609375 73.6015625 C-253.93199829 72.12163818 -253.93199829 72.12163818 -254.37670898 70.61181641 C-255 68 -255 68 -255 64 C-242.23464518 60.26555021 -229.34668667 57.09205725 -216.40649414 54.03125 C-209.52017417 52.3938699 -202.68319713 50.65637092 -195.875 48.71875 C-181.84512698 44.74395711 -167.63179249 41.44775244 -153.46405029 38.00531006 C-148.79817068 36.87130533 -144.13293232 35.73471689 -139.46875 34.59375 C-138.82134354 34.43542694 -138.17393707 34.27710388 -137.50691223 34.11398315 C-129.57199387 32.16975754 -121.68207995 30.12806407 -113.82739258 27.88366699 C-100.89810438 24.22921752 -87.77740427 21.24950374 -74.72216797 18.08398438 C-61.74278265 14.93317323 -48.7919479 11.75519443 -35.94238281 8.10791016 C-29.70290329 6.33973199 -23.41585139 4.76195065 -17.125 3.1875 C-15.90425781 2.87619141 -14.68351563 2.56488281 -13.42578125 2.24414062 C-12.25660156 1.95087891 -11.08742188 1.65761719 -9.8828125 1.35546875 C-8.84527832 1.09403076 -7.80774414 0.83259277 -6.73876953 0.56323242 C-4 0 -4 0 0 0 Z " fill="#000000" transform="translate(345,142)"/>
<path d="M0 0 C165 0 330 0 500 0 C500 230.34 500 460.68 500 698 C335 698 170 698 0 698 C0 467.66 0 237.32 0 0 Z M18 18 C18 236.46 18 454.92 18 680 C170.46 680 322.92 680 480 680 C480 461.54 480 243.08 480 18 C327.54 18 175.08 18 18 18 Z " fill="#FAFAFA" transform="translate(0,0)"/>
<path d="M0 0 C165 0 330 0 500 0 C500 230.34 500 460.68 500 698 C335 698 170 698 0 698 C0 467.66 0 237.32 0 0 Z M7 7 C7 232.72 7 458.44 7 691 C166.72 691 326.44 691 491 691 C491 465.28 491 239.56 491 7 C331.28 7 171.56 7 7 7 Z " fill="#030303" transform="translate(0,0)"/>
<path d="M0 0 C8.95125 -0.04125 17.9025 -0.0825 27.125 -0.125 C29.9211377 -0.14320801 32.71727539 -0.16141602 35.59814453 -0.18017578 C37.85969858 -0.18602695 40.12125477 -0.19112101 42.3828125 -0.1953125 C43.52032959 -0.20554443 44.65784668 -0.21577637 45.82983398 -0.22631836 C58.38874004 -0.22899217 71.03154409 0.36377509 81.5625 7.8125 C83.71814635 11.09283141 83.59654364 13.15560765 83 17 C80.2213828 21.12823127 77.41748992 23.72814804 73 26 C74.216875 26.391875 75.43375 26.78375 76.6875 27.1875 C80.73490621 28.6873367 83.1479722 30.71584678 86 34 C86.33 34.33 86.66 34.66 87 35 C87.26001031 38.85952802 86.98054681 42.50303187 84.828125 45.7890625 C74.21435973 56.03502403 56.43486949 55.15801254 42.7734375 55.09765625 C41.68264893 55.09664917 40.59186035 55.09564209 39.46801758 55.09460449 C35.43700085 55.08941675 31.40599924 55.07545588 27.375 55.0625 C18.34125 55.041875 9.3075 55.02125 0 55 C0 36.85 0 18.7 0 0 Z " fill="#FAFAFA" transform="translate(372,602)"/>
<path d="M0 0 C7.68768109 -0.06326345 15.37439544 -0.12332549 23.0621109 -0.15525055 C26.64365509 -0.17096045 30.22497926 -0.19187967 33.80639648 -0.22631836 C37.26886548 -0.25939725 40.73112388 -0.27695271 44.19373894 -0.28463173 C46.12927586 -0.29270946 48.06473041 -0.31604673 50.00013733 -0.33988953 C61.46789174 -0.34201922 74.16957679 0.5724156 84 7 C86.51698153 9.9102599 86.9511702 11.61633731 87.4375 15.4375 C86.90030244 19.81182302 85.92793871 21.70606896 83 25 C80.42785803 26.58549973 77.79086439 27.84842974 75 29 C75.69867188 29.32613281 76.39734375 29.65226563 77.1171875 29.98828125 C78.48230469 30.64376953 78.48230469 30.64376953 79.875 31.3125 C81.23238281 31.95638672 81.23238281 31.95638672 82.6171875 32.61328125 C85 34 85 34 87 37 C87.30066154 39.75417318 87.50925299 42.42645147 87.625 45.1875 C87.66367187 45.93708984 87.70234375 46.68667969 87.7421875 47.45898438 C87.83628216 49.30559199 87.91922319 51.1527619 88 53 C88.99 53 89.98 53 91 53 C91 53.66 91 54.32 91 55 C80.44 55 69.88 55 59 55 C58.01 48.565 58.01 48.565 57 42 C56.505 40.02 56.505 40.02 56 38 C53.04491553 37.16628641 50.29890387 36.82110466 47.234375 36.68359375 C46.34492188 36.64169922 45.45546875 36.59980469 44.5390625 36.55664062 C43.15847656 36.49766602 43.15847656 36.49766602 41.75 36.4375 C40.81414062 36.39431641 39.87828125 36.35113281 38.9140625 36.30664062 C36.60953778 36.20082061 34.30478761 36.09993083 32 36 C32 42.27 32 48.54 32 55 C21.44 55 10.88 55 0 55 C0 36.85 0 18.7 0 0 Z " fill="#F8F8F8" transform="translate(255,602)"/>
<path d="M0 0 C25.74 0 51.48 0 78 0 C78 4.29 78 8.58 78 13 C62.49 13 46.98 13 31 13 C31 15.64 31 18.28 31 21 C44.2 21 57.4 21 71 21 C71 25.29 71 29.58 71 34 C58.13 34 45.26 34 32 34 C32 36.64 32 39.28 32 42 C47.51 42 63.02 42 79 42 C79 46.29 79 50.58 79 55 C52.93 55 26.86 55 0 55 C0 36.85 0 18.7 0 0 Z " fill="#F6F6F6" transform="translate(41,602)"/>
<path d="M0 0 C2.16137025 0.01606605 4.32086434 0.00008153 6.48217773 -0.01904297 C18.97152655 -0.03913322 30.60862444 1.46570937 40.73022461 9.39111328 C42.92051802 11.7913571 44.73022461 14.01226661 44.73022461 17.39111328 C40.51273242 17.46530462 36.2955865 17.51973368 32.07763672 17.5559082 C30.64299909 17.57098917 29.20840753 17.59145708 27.77392578 17.61743164 C25.71106602 17.65384765 23.64881603 17.67084571 21.58569336 17.68408203 C19.72400513 17.70764771 19.72400513 17.70764771 17.82470703 17.73168945 C14.43096728 17.35817727 13.80564255 16.93658903 11.73022461 14.39111328 C8.16977284 13.20429602 5.29214124 13.29421496 1.54272461 13.32861328 C0.27041992 13.33763672 -1.00188477 13.34666016 -2.31274414 13.35595703 C-3.28856445 13.36755859 -4.26438477 13.37916016 -5.26977539 13.39111328 C-5.26977539 14.71111328 -5.26977539 16.03111328 -5.26977539 17.39111328 C-2.27003555 17.99659356 0.73002337 18.60042692 3.73022461 19.20361328 C4.63562988 19.38666016 5.54103516 19.56970703 6.47387695 19.75830078 C10.73185194 20.61393461 14.98826736 21.45142429 19.26928711 22.18408203 C38.61499678 25.50540893 38.61499678 25.50540893 45.73022461 32.39111328 C47.26237349 35.45541104 46.95961009 38.00767748 46.73022461 41.39111328 C44.85220565 45.77315752 41.84106021 49.00993115 37.73022461 51.39111328 C27.04165065 55.45712297 17.02712909 56.59937307 5.69213867 56.63134766 C3.63149654 56.64099034 1.57188079 56.67203618 -0.48852539 56.70361328 C-12.80746251 56.80261418 -25.77664379 55.43434671 -35.15649414 46.61767578 C-39.26977539 42.07293146 -39.26977539 42.07293146 -39.26977539 38.39111328 C-29.36977539 38.39111328 -19.46977539 38.39111328 -9.26977539 38.39111328 C-8.93977539 39.38111328 -8.60977539 40.37111328 -8.26977539 41.39111328 C-4.0599725 43.24837926 -0.33825721 43.66286796 4.23022461 43.64111328 C5.85444336 43.64884766 5.85444336 43.64884766 7.51147461 43.65673828 C10.86596717 43.37991123 13.59328874 42.58163714 16.73022461 41.39111328 C16.73022461 40.73111328 16.73022461 40.07111328 16.73022461 39.39111328 C13.21090533 37.85582371 9.99003563 36.98061241 6.19506836 36.42626953 C5.13739258 36.26578125 4.0797168 36.10529297 2.98999023 35.93994141 C1.89364258 35.77945313 0.79729492 35.61896484 -0.33227539 35.45361328 C-28.70457684 31.29781506 -28.70457684 31.29781506 -36.26977539 22.39111328 C-37.41678656 17.72660118 -37.81346472 15.59668528 -35.83227539 11.20361328 C-26.35267 0.79916834 -13.31168439 -0.11744275 0 0 Z " fill="#F9F9F9" transform="translate(183.269775390625,601.60888671875)"/>
<path d="M0 0 C4.44213008 2.69912285 7.842995 6.39302125 10.17578125 11.05859375 C10.27973542 12.41007702 10.32437939 13.76640875 10.33691406 15.12182617 C10.34652161 15.9599736 10.35612915 16.79812103 10.36602783 17.66166687 C10.37027771 18.56995743 10.37452759 19.47824799 10.37890625 20.4140625 C10.38460632 21.34906082 10.3903064 22.28405914 10.3961792 23.24739075 C10.40563781 25.2304267 10.41216659 27.21347843 10.41601562 29.1965332 C10.42568678 32.21659236 10.45668771 35.23596103 10.48828125 38.25585938 C10.49481481 40.18358971 10.50006389 42.11132492 10.50390625 44.0390625 C10.51625305 44.9372319 10.52859985 45.83540131 10.5413208 46.76078796 C10.5169839 53.68541098 9.36595356 58.39487068 4.86328125 63.87109375 C-1.90849726 69.38300649 -10.6024125 68.70679512 -18.89111328 68.25830078 C-24.14994907 67.71501615 -27.4482905 65.39831336 -31.19921875 61.74609375 C-34.82820208 55.74431363 -35.15024847 49.7441773 -35.1953125 42.90625 C-35.20434097 42.04728622 -35.21336945 41.18832245 -35.22267151 40.30332947 C-35.23710913 38.49563041 -35.2460445 36.68787986 -35.24975586 34.88012695 C-35.26167114 32.13207325 -35.31093407 29.38625414 -35.36132812 26.63867188 C-35.37079224 24.87370876 -35.37802733 23.108732 -35.3828125 21.34375 C-35.40234482 20.53204849 -35.42187714 19.72034698 -35.44200134 18.88404846 C-35.39475732 12.83927956 -33.69447402 8.72102831 -29.82421875 4.05859375 C-21.88478343 -2.1341658 -9.60611802 -3.20203934 0 0 Z " fill="#F9F9F9" transform="translate(342.82421875,40.94140625)"/>
<path d="M0 0 C35.7109375 0 35.7109375 0 40.64453125 4.5 C45.47835967 10.70799369 45.8945333 16.29923508 45 24 C43.46114867 27.7208047 41.68516981 31.1574151 38 33 C38.78375 33.598125 39.5675 34.19625 40.375 34.8125 C43.00021151 37.00017626 44.8025912 38.57986526 45.28710938 42.06542969 C45.31514648 43.23187012 45.31514648 43.23187012 45.34375 44.421875 C45.37339844 45.28296875 45.40304688 46.1440625 45.43359375 47.03125 C45.45550781 47.9284375 45.47742188 48.825625 45.5 49.75 C45.54388803 51.51584772 45.59582848 53.28151567 45.65625 55.046875 C45.68428711 56.22008301 45.68428711 56.22008301 45.71289062 57.41699219 C46.01504615 60.78943834 46.01504615 60.78943834 48 67 C41.73 67 35.46 67 29 67 C27.87091801 64.74183602 27.81963132 63.33417817 27.71875 60.82421875 C27.68136719 59.99599609 27.64398438 59.16777344 27.60546875 58.31445312 C27.57066406 57.44755859 27.53585938 56.58066406 27.5 55.6875 C27.24944834 48.28481449 27.24944834 48.28481449 26 41 C23.03 40.67 20.06 40.34 17 40 C17 48.91 17 57.82 17 67 C11.39 67 5.78 67 0 67 C0 44.89 0 22.78 0 0 Z " fill="#F8F8F8" transform="translate(199,41)"/>
<path d="M0 0 C5.61 0 11.22 0 17 0 C19.98581795 7.3031493 22.68684656 14.66412183 25.25 22.125 C26.4875 25.71375 27.725 29.3025 29 33 C29 22.11 29 11.22 29 0 C33.95 0 38.9 0 44 0 C44 21.78 44 43.56 44 66 C38.39 66 32.78 66 27 66 C26.38511719 64.288125 25.77023437 62.57625 25.13671875 60.8125 C24.32034109 58.54165639 23.50393324 56.27082363 22.6875 54 C22.28337891 52.87464844 21.87925781 51.74929687 21.46289062 50.58984375 C21.06650391 49.48769531 20.67011719 48.38554688 20.26171875 47.25 C19.90037842 46.24453125 19.53903809 45.2390625 19.16674805 44.203125 C17.80310241 40.45944834 16.39898103 36.73061609 15 33 C15 43.89 15 54.78 15 66 C10.05 66 5.1 66 0 66 C0 44.22 0 22.44 0 0 Z " fill="#FDFDFD" transform="translate(364,41)"/>
<path d="M0 0 C12.87 0 25.74 0 39 0 C39 4.29 39 8.58 39 13 C31.74 13 24.48 13 17 13 C17 17.29 17 21.58 17 26 C23.93 26 30.86 26 38 26 C38 30.29 38 34.58 38 39 C31.4 39 24.8 39 18 39 C18 43.62 18 48.24 18 53 C25.59 53 33.18 53 41 53 C41.09765625 63.05859375 41.09765625 63.05859375 41 66 C40 67 40 67 36.21459961 67.11352539 C34.52717272 67.11327425 32.8397407 67.10771112 31.15234375 67.09765625 C29.97436218 67.09614563 29.97436218 67.09614563 28.77258301 67.09460449 C25.82754057 67.08935638 22.88251888 67.07539523 19.9375 67.0625 C13.358125 67.041875 6.77875 67.02125 0 67 C0 44.89 0 22.78 0 0 Z " fill="#F5F5F5" transform="translate(43,41)"/>
<path d="M0 0 C12.87 0 25.74 0 39 0 C39 4.29 39 8.58 39 13 C31.74 13 24.48 13 17 13 C17 17.29 17 21.58 17 26 C23.93 26 30.86 26 38 26 C38 30.29 38 34.58 38 39 C31.07 39 24.14 39 17 39 C17 43.62 17 48.24 17 53 C24.59 53 32.18 53 40 53 C40 57.62 40 62.24 40 67 C26.8 67 13.6 67 0 67 C0 44.89 0 22.78 0 0 Z " fill="#F7F7F7" transform="translate(149,41)"/>
<path d="M0 0 C5.61 0 11.22 0 17 0 C19.58628548 11.17644796 21.83785551 22.32301173 23.69238281 33.64477539 C23.92779785 35.06004517 23.92779785 35.06004517 24.16796875 36.50390625 C24.37329224 37.76956421 24.37329224 37.76956421 24.58276367 39.06079102 C24.81581066 40.996661 24.81581066 40.996661 26 42 C26.20681396 40.86981445 26.41362793 39.73962891 26.62670898 38.57519531 C27.39510653 34.37801693 28.16519456 30.18115018 28.93579102 25.984375 C29.26893417 24.16870429 29.60162017 22.35294964 29.93383789 20.53710938 C30.41171742 17.92555846 30.89124564 15.31431483 31.37109375 12.703125 C31.51904892 11.89256653 31.66700409 11.08200806 31.81944275 10.24688721 C32.02954735 9.10615753 32.02954735 9.10615753 32.24389648 7.94238281 C32.36603012 7.27619934 32.48816376 6.61001587 32.61399841 5.92364502 C33.01296249 3.93540125 33.50816755 1.96732978 34 0 C39.61 0 45.22 0 51 0 C47.62802106 17.14485069 43.72521693 34.18217913 39.65487671 51.17367554 C39.19221586 53.10531101 38.73244541 55.03763804 38.27270508 56.9699707 C37.99064209 58.1374585 37.7085791 59.30494629 37.41796875 60.5078125 C37.16813232 61.54566895 36.9182959 62.58352539 36.66088867 63.65283203 C36 66 36 66 35 67 C33.5112814 67.08669432 32.018555 67.10703494 30.52734375 67.09765625 C29.62822266 67.09443359 28.72910156 67.09121094 27.80273438 67.08789062 C26.38444336 67.07532227 26.38444336 67.07532227 24.9375 67.0625 C23.98810547 67.05798828 23.03871094 67.05347656 22.06054688 67.04882812 C19.70696935 67.0370011 17.35351523 67.02052025 15 67 C14.79431396 66.0613208 14.58862793 65.1226416 14.37670898 64.15551758 C13.40071028 59.70701896 12.42010352 55.25954409 11.4375 50.8125 C11.25936768 50.00621155 11.08123535 49.1999231 10.89770508 48.36920166 C8.10737035 35.76293502 5.17815775 23.19848317 2.08374023 10.66333008 C1.80860596 9.54466553 1.53347168 8.42600098 1.25 7.2734375 C1.00765625 6.29810059 0.7653125 5.32276367 0.515625 4.31787109 C0 2 0 2 0 0 Z " fill="#F9F9F9" transform="translate(90,41)"/>
<path d="M0 0 C12.54 0 25.08 0 38 0 C38 4.29 38 8.58 38 13 C31.07 13 24.14 13 17 13 C17 16.96 17 20.92 17 25 C23.93 25 30.86 25 38 25 C38 29.62 38 34.24 38 39 C31.07 39 24.14 39 17 39 C17 43.62 17 48.24 17 53 C23.93 53 30.86 53 38 53 C38 57.29 38 61.58 38 66 C25.46 66 12.92 66 0 66 C0 44.22 0 22.44 0 0 Z " fill="#F9F9F9" transform="translate(421,41)"/>
<path d="M0 0 C5.17955739 2.89956083 10.44056678 7.15642837 12.4140625 12.94921875 C13.48362487 19.4785239 13.4245445 25.34505307 10.08203125 31.1796875 C6.24755049 36.41976972 2.01936595 39.31797499 -4.25 41 C-12.10381205 41.78355897 -19.83063458 42.10563482 -26.25 37 C-31.54825557 31.98685235 -34.28478755 27.48993424 -34.5625 20.125 C-34.40521328 14.53718224 -33.41749407 10.34811858 -29.515625 6.12109375 C-20.94221117 -1.83755979 -11.03875447 -4.97332013 0 0 Z " fill="#F9F9F9" transform="translate(89.25,144)"/>
<path d="M0 0 C5.61 0 11.22 0 17 0 C18.17538461 2.74656201 19.34049752 5.49674122 20.5 8.25 C20.83386719 9.02730469 21.16773438 9.80460937 21.51171875 10.60546875 C21.82753906 11.35957031 22.14335937 12.11367188 22.46875 12.890625 C22.90864258 13.92751465 22.90864258 13.92751465 23.35742188 14.98535156 C24 17 24 17 24 21 C24.66 21 25.32 21 26 21 C26.10183594 20.34644531 26.20367187 19.69289063 26.30859375 19.01953125 C27.20801729 15.09154033 28.61661659 11.44220069 30.0625 7.6875 C31.031875 5.150625 32.00125 2.61375 33 0 C38.61 0 44.22 0 50 0 C48.4059448 5.38423679 46.45758394 10.23576289 43.8984375 15.23828125 C35.09827053 32.7135882 32.07363698 46.15153325 33 66 C27.72 66 22.44 66 17 66 C17.1134375 64.39640625 17.226875 62.7928125 17.34375 61.140625 C18.05853149 40.45055687 11.58672453 25.20284072 2.41368103 7.00003052 C0 2.19520795 0 2.19520795 0 0 Z " fill="#FCFCFC" transform="translate(250,41)"/>
<path d="M0 0 C4.18651921 2.30685752 5.64146791 4.50503079 7 9 C7.3131212 12.29501558 7.32460811 15.56706421 7.3125 18.875 C7.32861328 19.74769531 7.34472656 20.62039063 7.36132812 21.51953125 C7.36552914 27.10688347 6.73625294 31.09140572 4 36 C-0.86899219 39.24599479 -6.31213736 38.71989239 -12 38 C-15.05615384 36.33581907 -16.44889357 34.10221286 -18 31 C-18.26855112 27.23499463 -18.23160387 23.46100555 -18.25 19.6875 C-18.2809375 18.11838867 -18.2809375 18.11838867 -18.3125 16.51757812 C-18.31765625 15.50501953 -18.3228125 14.49246094 -18.328125 13.44921875 C-18.3374707 12.52455811 -18.34681641 11.59989746 -18.35644531 10.6472168 C-17.81687756 6.64000234 -16.02695832 3.99221978 -13.15234375 1.21484375 C-9.05924077 -1.09541946 -4.54507595 -0.60690925 0 0 Z " fill="#F5F5F5" transform="translate(87,554)"/>
<path d="M0 0 C17 0 17 0 22 3 C24.97924709 7.35052161 24.3298786 12.30044764 24.3125 17.375 C24.32861328 18.30828125 24.34472656 19.2415625 24.36132812 20.203125 C24.36510108 25.53053137 24.10981007 29.46515281 21 34 C17 37 17 37 0 37 C0 24.79 0 12.58 0 0 Z " fill="#FBFBFB" transform="translate(363,555)"/>
<path d="M0 0 C16 0 16 0 20 2 C22.30575932 5.22806304 22.39651864 8.11411732 22 12 C20.5 14.875 20.5 14.875 19 17 C19.66 17.680625 20.32 18.36125 21 19.0625 C23.52217356 22.76694242 23.61871554 24.59165176 23 29 C20.69148146 33.36969581 19.48677131 34.75661434 15 37 C10.05 37 5.1 37 0 37 C0 24.79 0 12.58 0 0 Z " fill="#F0F0F0" transform="translate(406,555)"/>
<path d="M0 0 C4.5478125 -0.12375 4.5478125 -0.12375 9.1875 -0.25 C10.60712036 -0.30462402 10.60712036 -0.30462402 12.05541992 -0.36035156 C16.12369906 -0.4138986 18.47168486 -0.29797242 22.08203125 1.73828125 C24.78807356 4.92931689 24.58712312 6.78760589 24.375 10.8046875 C23.88257477 13.68742689 22.78042787 15.70028066 21 18 C21.48210937 18.3609375 21.96421875 18.721875 22.4609375 19.09375 C24.66212815 21.82009781 24.47687555 24.0385655 24.625 27.5 C24.84539768 32.33459691 24.84539768 32.33459691 26 37 C19.84765625 37.09765625 19.84765625 37.09765625 18 37 C15.66824807 34.66824807 16.47328917 29.0611792 16.28125 25.90625 C16.3214011 23.10949868 16.3214011 23.10949868 15 22 C13.65252916 21.76924918 12.29622435 21.58846937 10.9375 21.4375 C9.638125 21.293125 8.33875 21.14875 7 21 C7 26.28 7 31.56 7 37 C4.69 37 2.38 37 0 37 C0 24.79 0 12.58 0 0 Z " fill="#F9F9F9" transform="translate(252,555)"/>
<path d="M0 0 C2.64 0 5.28 0 8 0 C8.9412444 1.99824053 9.87779771 3.99869096 10.8125 6 C11.33457031 7.11375 11.85664062 8.2275 12.39453125 9.375 C14.08236671 13.18597641 15.53651304 17.09736811 17 21 C17 14.07 17 7.14 17 0 C19.64 0 22.28 0 25 0 C25 12.21 25 24.42 25 37 C22.36 37 19.72 37 17 37 C14.03 29.74 11.06 22.48 8 15 C8 22.26 8 29.52 8 37 C5.36 37 2.72 37 0 37 C0 24.79 0 12.58 0 0 Z " fill="#E9E9E9" transform="translate(100,555)"/>
<path d="M0 0 C2.64 0 5.28 0 8 0 C11.60075388 6.801424 14.29768544 13.79382785 17 21 C17.33 14.07 17.66 7.14 18 0 C20.31 0 22.62 0 25 0 C25 12.21 25 24.42 25 37 C22.36 37 19.72 37 17 37 C15.68270177 33.91869487 14.3720095 30.83462237 13.0625 27.75 C12.50272461 26.44095703 12.50272461 26.44095703 11.93164062 25.10546875 C11.39506836 23.83896484 11.39506836 23.83896484 10.84765625 22.546875 C10.51773682 21.77182617 10.18781738 20.99677734 9.84790039 20.19824219 C9 18 9 18 8 14 C8 21.59 8 29.18 8 37 C5.36 37 2.72 37 0 37 C0 24.79 0 12.58 0 0 Z " fill="#EAEAEA" transform="translate(182,555)"/>
<path d="M0 0 C3.3 0 6.6 0 10 0 C10.98254209 4.14336506 11.9609879 8.28767049 12.93579102 12.43286133 C13.26737241 13.8403477 13.60003554 15.24757972 13.93383789 16.65454102 C14.41583277 18.68698877 14.89381824 20.72034574 15.37109375 22.75390625 C15.65911865 23.97408447 15.94714355 25.1942627 16.24389648 26.45141602 C16.99091408 29.95735747 17.53564287 33.4465718 18 37 C15.36 37 12.72 37 10 37 C9.505 32.05 9.505 32.05 9 27 C6.03 27 3.06 27 0 27 C-0.33 30.3 -0.66 33.6 -1 37 C-3.64 37 -6.28 37 -9 37 C-7.50652849 28.85528844 -5.48328657 20.87963274 -3.375 12.875 C-2.88773437 11.01101563 -2.88773437 11.01101563 -2.390625 9.109375 C-1.5962972 6.07223931 -0.79936874 3.03581206 0 0 Z " fill="#F4F4F4" transform="translate(289,555)"/>
<path d="M0 0 C5.17955739 2.89956083 10.44056678 7.15642837 12.4140625 12.94921875 C13.48362487 19.4785239 13.4245445 25.34505307 10.08203125 31.1796875 C6.24755049 36.41976972 2.01936595 39.31797499 -4.25 41 C-12.10381205 41.78355897 -19.83063458 42.10563482 -26.25 37 C-31.54825557 31.98685235 -34.28478755 27.48993424 -34.5625 20.125 C-34.40521328 14.53718224 -33.41749407 10.34811858 -29.515625 6.12109375 C-20.94221117 -1.83755979 -11.03875447 -4.97332013 0 0 Z M-27.6875 9.6875 C-31.01760875 14.61606096 -30.80660084 19.16779121 -30.25 25 C-28.76456396 30.09968168 -25.35814165 33.53054169 -20.79296875 36.1171875 C-14.86635541 38.17466003 -7.91202104 38.160978 -1.93359375 36.265625 C3.20091507 33.55974994 6.45764835 29.21340733 8.75 24 C9.78374572 18.80145182 9.01825948 14.72957824 6.3125 10.1875 C2.21256923 4.70815327 -2.30607569 2.58428508 -8.9921875 1.59375 C-17.20405553 1.13879886 -22.23419886 3.67488592 -27.6875 9.6875 Z " fill="#0F0F0F" transform="translate(89.25,144)"/>
<path d="M0 0 C2.93423195 1.79646854 4.47205355 2.9441071 6 6 C6.039992 7.99960012 6.04346799 10.00047242 6 12 C3.69 12 1.38 12 -1 12 C-1.33 10.35 -1.66 8.7 -2 7 C-3.66611905 6.957279 -5.33382885 6.95936168 -7 7 C-8.64889766 8.64889766 -8.12998381 10.57345384 -8.1328125 12.83984375 C-8.13410156 13.82017578 -8.13539062 14.80050781 -8.13671875 15.81054688 C-8.13285156 16.84244141 -8.12898438 17.87433594 -8.125 18.9375 C-8.12886719 19.96552734 -8.13273437 20.99355469 -8.13671875 22.05273438 C-8.13478516 23.52516602 -8.13478516 23.52516602 -8.1328125 25.02734375 C-8.13168457 25.93218506 -8.13055664 26.83702637 -8.12939453 27.76928711 C-8.14496576 30.03895859 -8.14496576 30.03895859 -7 32 C-5.35 31.67 -3.7 31.34 -2 31 C-1.67 29.02 -1.34 27.04 -1 25 C1.31 25 3.62 25 6 25 C6.42417775 29.24177753 6.20115528 31.60487355 4.25 35.4375 C1.51865374 38.35721497 -1.10029821 38.51460682 -5 38.6875 C-9.2821772 38.48208191 -10.664816 38.24974494 -14.1875 35.625 C-17.77190968 30.43378599 -17.25577762 25.92895752 -17.3125 19.75 C-17.34150391 18.71230469 -17.37050781 17.67460938 -17.40039062 16.60546875 C-17.4518141 10.41091759 -17.22883246 6.66314498 -13 2 C-8.76447144 -0.82368571 -4.97522686 -0.66653757 0 0 Z " fill="#F3F3F3" transform="translate(57,554)"/>
<path d="M0 0 C3.5 -0.3125 3.5 -0.3125 7 0 C9.65586467 2.65586467 9.24909664 4.63522075 9.27789307 8.24827576 C9.2738446 9.10349319 9.26979614 9.95871063 9.265625 10.83984375 C9.26753845 11.71774063 9.2694519 12.59563751 9.27142334 13.50013733 C9.27278565 15.35873704 9.26908599 17.21734625 9.26074219 19.07592773 C9.25005601 21.92258089 9.26062925 24.7686011 9.2734375 27.61523438 C9.27211566 29.41927223 9.26955277 31.22330969 9.265625 33.02734375 C9.26967346 33.88053696 9.27372192 34.73373016 9.27789307 35.61277771 C9.22992618 41.65511072 9.22992618 41.65511072 7 45 C4.0625 45.4375 4.0625 45.4375 1 45 C-1.81643212 42.48519602 -2.00904007 40.90543202 -2.37231445 37.10522461 C-2.38531932 35.53764871 -2.38130106 33.96987002 -2.36328125 32.40234375 C-2.36377975 31.57166885 -2.36427826 30.74099396 -2.36479187 29.88514709 C-2.36245539 28.13263552 -2.35275199 26.38012034 -2.33618164 24.62768555 C-2.3125532 21.94354313 -2.31562821 19.26039213 -2.32226562 16.57617188 C-2.31668976 14.87238991 -2.30958046 13.16861212 -2.30078125 11.46484375 C-2.30169266 10.66167221 -2.30260406 9.85850067 -2.30354309 9.0309906 C-2.25435786 5.17310684 -2.18888065 3.28332097 0 0 Z " fill="#010101" transform="translate(327,52)"/>
<path d="M0 0 C6.6 0 13.2 0 20 0 C20 1.65 20 3.3 20 5 C15.71 5 11.42 5 7 5 C7 8.3 7 11.6 7 15 C10.96 15 14.92 15 19 15 C19 16.65 19 18.3 19 20 C15.04 20 11.08 20 7 20 C7 23.63 7 27.26 7 31 C11.29 31 15.58 31 20 31 C20 32.98 20 34.96 20 37 C13.4 37 6.8 37 0 37 C0 24.79 0 12.58 0 0 Z " fill="#F6F6F6" transform="translate(337,555)"/>
<path d="M0 0 C6.6 0 13.2 0 20 0 C20 1.65 20 3.3 20 5 C15.71 5 11.42 5 7 5 C7 8.3 7 11.6 7 15 C10.96 15 14.92 15 19 15 C19 16.65 19 18.3 19 20 C15.04 20 11.08 20 7 20 C7 23.63 7 27.26 7 31 C11.29 31 15.58 31 20 31 C20 32.98 20 34.96 20 37 C13.4 37 6.8 37 0 37 C0 24.79 0 12.58 0 0 Z " fill="#F7F7F7" transform="translate(157,555)"/>
<path d="M0 0 C7.92 0 15.84 0 24 0 C24 1.98 24 3.96 24 6 C21.36 6 18.72 6 16 6 C16 16.23 16 26.46 16 37 C13.36 37 10.72 37 8 37 C8 26.77 8 16.54 8 6 C5.36 6 2.72 6 0 6 C0 4.02 0 2.04 0 0 Z " fill="#E3E3E3" transform="translate(211,555)"/>
<path d="M0 0 C2.31 0 4.62 0 7 0 C8.65 3.63 10.3 7.26 12 11 C14.15266842 8.84733158 14.93474462 7.15226256 16.125 4.375 C16.47820312 3.55773437 16.83140625 2.74046875 17.1953125 1.8984375 C17.46085937 1.27195312 17.72640625 0.64546875 18 0 C20.64 0 23.28 0 26 0 C24.87630121 2.58390632 23.75109248 5.16713708 22.625 7.75 C22.30789063 8.47960937 21.99078125 9.20921875 21.6640625 9.9609375 C21.3546875 10.66992188 21.0453125 11.37890625 20.7265625 12.109375 C20.30238037 13.08342285 20.30238037 13.08342285 19.86962891 14.07714844 C19.26778819 15.40788889 18.61293722 16.71543734 17.91796875 18 C16.42449509 21.25386602 16.52447614 24.72485437 16.375 28.25 C16.33632813 28.99507812 16.29765625 29.74015625 16.2578125 30.5078125 C16.16394892 32.3381524 16.08090282 34.16904143 16 36 C13.69 36 11.38 36 9 36 C9.020625 34.9584375 9.04125 33.916875 9.0625 32.84375 C9.00265496 22.45025381 6.84755833 15.20772815 1.71484375 6.1953125 C0 3 0 3 0 0 Z " fill="#F7F7F7" transform="translate(433,555)"/>
<path d="M0 0 C2.206875 -0.061875 4.41375 -0.12375 6.6875 -0.1875 C8.54955078 -0.23970703 8.54955078 -0.23970703 10.44921875 -0.29296875 C14.22874952 0.01887372 16.09873361 0.58227801 19 3 C19.3125 6.6875 19.3125 6.6875 19 10 C17.02 10.99 17.02 10.99 15 12 C15 12.66 15 13.32 15 14 C15.99 14.33 16.98 14.66 18 15 C18.73046875 16.7421875 18.73046875 16.7421875 19.1875 18.875 C19.34605469 19.57367188 19.50460938 20.27234375 19.66796875 20.9921875 C20 23 20 23 20 26 C18.02 26 16.04 26 14 26 C13.34 22.7 12.68 19.4 12 16 C9.36 15.67 6.72 15.34 4 15 C4 18.3 4 21.6 4 25 C2.68 25 1.36 25 0 25 C0 16.75 0 8.5 0 0 Z " fill="#0B0B0B" transform="translate(69,151)"/>
<path d="M0 0 C5.05750294 2.58332884 7.97415097 6.38692445 10.1875 11.5625 C11.37564153 16.64223552 10.57892471 20.4449146 8 24.9375 C5.82754919 28.05341516 3.69345179 29.95977918 0.1875 31.5625 C0.15011719 30.80324219 0.11273438 30.04398438 0.07421875 29.26171875 C0.00847656 28.26785156 -0.05726562 27.27398437 -0.125 26.25 C-0.18300781 25.26386719 -0.24101563 24.27773437 -0.30078125 23.26171875 C-0.86909895 20.26395133 -1.57749605 19.5098895 -3.8125 17.5625 C-3.8125 16.9025 -3.8125 16.2425 -3.8125 15.5625 C-2.8225 14.9025 -1.8325 14.2425 -0.8125 13.5625 C-0.56234127 9.97892759 -0.56234127 9.97892759 -0.8125 6.5625 C-6.1466661 3.24885136 -12.74077505 3.89981805 -18.8125 3.5625 C-18.8125 11.8125 -18.8125 20.0625 -18.8125 28.5625 C-19.1425 28.5625 -19.4725 28.5625 -19.8125 28.5625 C-20.1425 20.3125 -20.4725 12.0625 -20.8125 3.5625 C-23.7825 6.0375 -23.7825 6.0375 -26.8125 8.5625 C-25.07257807 4.13360781 -21.9883513 1.85599971 -17.97265625 -0.53125 C-12.38945882 -2.87356791 -5.56736466 -2.06653027 0 0 Z " fill="#F0F0F0" transform="translate(87.8125,147.4375)"/>
<path d="M0 0 C7.92 0 15.84 0 24 0 C24 1.65 24 3.3 24 5 C21.03 5 18.06 5 15 5 C15 15.56 15 26.12 15 37 C12.69 37 10.38 37 8 37 C8 26.44 8 15.88 8 5 C5.36 5 2.72 5 0 5 C0 3.35 0 1.7 0 0 Z " fill="#F7F7F7" transform="translate(309,555)"/>
<path d="M0 0 C7.92 0 15.84 0 24 0 C24 1.65 24 3.3 24 5 C21.03 5 18.06 5 15 5 C15 15.56 15 26.12 15 37 C12.69 37 10.38 37 8 37 C8 26.44 8 15.88 8 5 C5.36 5 2.72 5 0 5 C0 3.35 0 1.7 0 0 Z " fill="#F6F6F6" transform="translate(129,555)"/>
<path d="M0 0 C3.20884784 -0.08127476 6.41561761 -0.14063141 9.625 -0.1875 C10.52863281 -0.21263672 11.43226563 -0.23777344 12.36328125 -0.26367188 C17.6433794 -0.32148317 21.49338467 -0.10195601 26 3 C26.875 5.6875 26.875 5.6875 27 8 C22.07930252 12.08450052 16.73004978 11.33827379 10.6875 11.1875 C9.66076172 11.17396484 8.63402344 11.16042969 7.57617188 11.14648438 C5.05055511 11.11124321 2.52520944 11.05743947 0 11 C0 7.37 0 3.74 0 0 Z " fill="#0C0C0C" transform="translate(286,615)"/>
<path d="M0 0 C3.188022 -0.08143481 6.37393474 -0.14070764 9.5625 -0.1875 C10.45775391 -0.21263672 11.35300781 -0.23777344 12.27539062 -0.26367188 C17.99784892 -0.32655603 21.91424859 0.34201469 27 3 C26.75 5.375 26.75 5.375 26 8 C22.9360754 10.04985767 20.42665861 10.23751929 16.796875 10.1953125 C15.8171875 10.18886719 14.8375 10.18242188 13.828125 10.17578125 C12.81234375 10.15902344 11.7965625 10.14226563 10.75 10.125 C9.71875 10.11597656 8.6875 10.10695313 7.625 10.09765625 C5.08323384 10.07412138 2.54158728 10.03825131 0 10 C0 6.7 0 3.4 0 0 Z " fill="#090909" transform="translate(403,634)"/>
<path d="M0 0 C3 -0.3125 3 -0.3125 6 0 C8.98648563 2.98648563 8.29249394 5.76547493 8.32226562 9.84960938 C8.31904297 10.86861328 8.31582031 11.88761719 8.3125 12.9375 C8.32861328 13.95263672 8.34472656 14.96777344 8.36132812 16.01367188 C8.36197266 16.98755859 8.36261719 17.96144531 8.36328125 18.96484375 C8.36775269 20.30470337 8.36775269 20.30470337 8.37231445 21.67163086 C8 24 8 24 6.63745117 25.82250977 C5 27 5 27 2.4375 26.875 C0 26 0 26 -2 23 C-2.25878906 20.87109375 -2.25878906 20.87109375 -2.265625 18.4375 C-2.26820312 17.55835938 -2.27078125 16.67921875 -2.2734375 15.7734375 C-2.26570313 14.85820313 -2.25796875 13.94296875 -2.25 13 C-2.25773437 12.08476563 -2.26546875 11.16953125 -2.2734375 10.2265625 C-2.27085938 9.34742188 -2.26828125 8.46828125 -2.265625 7.5625 C-2.26336914 6.75941406 -2.26111328 5.95632813 -2.25878906 5.12890625 C-2 3 -2 3 0 0 Z " fill="#050505" transform="translate(78,560)"/>
<path d="M0 0 C7 0 7 0 8.9140625 1.4375 C10.54310863 5.28158009 10.4344042 8.86810806 10.375 13 C10.38660156 13.80695312 10.39820313 14.61390625 10.41015625 15.4453125 C10.39336762 18.83661668 10.2457251 21.42015947 8.9140625 24.5625 C7 26 7 26 0 26 C0 17.42 0 8.84 0 0 Z " fill="#0C0C0C" transform="translate(370,560)"/>
<path d="M0 0 C2.89608593 -0.05413245 5.79115195 -0.09373641 8.6875 -0.125 C9.91243164 -0.15013672 9.91243164 -0.15013672 11.16210938 -0.17578125 C15.5144267 -0.21102269 19.10305099 -0.20262336 23 2 C23.9375 4 23.9375 4 24 6 C21.41774944 8.58225056 19.48252517 8.92010035 15.89355469 9.11352539 C15.16040039 9.10828857 14.42724609 9.10305176 13.671875 9.09765625 C12.87265625 9.09443359 12.0734375 9.09121094 11.25 9.08789062 C10.425 9.07951172 9.6 9.07113281 8.75 9.0625 C7.90953125 9.05798828 7.0690625 9.05347656 6.203125 9.04882812 C4.13538599 9.03707961 2.06768376 9.01914522 0 9 C0 6.03 0 3.06 0 0 Z " fill="#0E0E0E" transform="translate(403,615)"/>
<path d="M0 0 C8 0 8 0 9.9765625 1.1875 C11.32232501 3.57083513 11.39937162 5.27037835 11.375 8 C11.38273438 8.86625 11.39046875 9.7325 11.3984375 10.625 C11 13 11 13 9.9765625 14.8125 C8 16 8 16 0 16 C0 10.72 0 5.44 0 0 Z " fill="#020202" transform="translate(216,53)"/>
<path d="M0 0 C6.0546875 -0.1953125 6.0546875 -0.1953125 8 0 C10 2 10 2 10.25 5 C10 8 10 8 8 10 C5.31160615 10.26991906 2.70858064 10.08737357 0 10 C0 6.7 0 3.4 0 0 Z " fill="#0F0F0F" transform="translate(259,560)"/>
<path d="M0 0 C2.875 -0.125 2.875 -0.125 6 0 C8 2 8 2 8.23046875 3.91015625 C8.11111111 9.88888889 8.11111111 9.88888889 7 11 C4.66702567 11.04092937 2.33294775 11.04241723 0 11 C0 7.37 0 3.74 0 0 Z " fill="#161616" transform="translate(413,575)"/>
<path d="M0 0 C1.99954746 -0.04254356 4.00041636 -0.04080783 6 0 C7 1 7 1 7.09765625 2.84765625 C7.06510417 4.8984375 7.03255208 6.94921875 7 9 C4.69 9.33 2.38 9.66 0 10 C0 6.7 0 3.4 0 0 Z " fill="#191919" transform="translate(413,560)"/>
<path d="M0 0 C6.0546875 -0.1953125 6.0546875 -0.1953125 8 0 C8.66 0.66 9.32 1.32 10 2 C9.46428571 5.53571429 9.46428571 5.53571429 8 7 C5.32941149 7.14115161 2.67567762 7.04247107 0 7 C0 4.69 0 2.38 0 0 Z " fill="#E7E7E7" transform="translate(73,154)"/>
<path d="M0 0 C0.66 0.33 1.32 0.66 2 1 C2.4140625 3.94140625 2.4140625 3.94140625 2.625 7.5625 C2.69976562 8.76003906 2.77453125 9.95757813 2.8515625 11.19140625 C2.90054687 12.11824219 2.94953125 13.04507813 3 14 C1.35 14 -0.3 14 -2 14 C-1.34 9.38 -0.68 4.76 0 0 Z " fill="#151515" transform="translate(293,563)"/>
</svg>
