<?xml version="1.0" encoding="UTF-8"?>
<svg version="1.1" xmlns="http://www.w3.org/2000/svg" width="287" height="388">
<path d="M0 0 C94.71 0 189.42 0 287 0 C287 128.04 287 256.08 287 388 C192.29 388 97.58 388 0 388 C0 259.96 0 131.92 0 0 Z " fill="#161616" transform="translate(0,0)"/>
<path d="M0 0 C81.51 0 163.02 0 247 0 C247 74.25 247 148.5 247 225 C165.49 225 83.98 225 0 225 C0 150.75 0 76.5 0 0 Z " fill="#FCFCFC" transform="translate(20,91)"/>
<path d="M0 0 C7.83984166 24.95717018 7.83984166 24.95717018 11 37 C11.20713623 37.78737549 11.41427246 38.57475098 11.62768555 39.38598633 C13 44.7214348 13 44.7214348 13 47 C-5.48 51.62 -23.96 56.24 -43 61 C-41.66113483 67.69432585 -40.22693821 74.10776353 -38.3125 80.625 C-38.05339844 81.51960938 -37.79429687 82.41421875 -37.52734375 83.3359375 C-36.68928197 86.22525526 -35.84511101 89.1127369 -35 92 C-34.4203976 93.98692803 -33.84097199 95.97390765 -33.26171875 97.9609375 C-32.37758411 100.9926074 -31.49294591 104.02412542 -30.60668945 107.05517578 C-28.4650276 114.38405217 -26.35974383 121.7227182 -24.26953125 129.06640625 C-22.08484888 136.73013328 -19.85169009 144.37936591 -17.61425781 152.02783203 C-15.39154774 159.63463171 -13.20319749 167.25077745 -11.04101562 174.875 C-10.81607422 175.66648437 -10.59113281 176.45796875 -10.359375 177.2734375 C-10.14216797 178.04397461 -9.92496094 178.81451172 -9.70117188 179.60839844 C-9.20311428 181.30720491 -8.67517177 182.99737528 -8.12695312 184.68066406 C-7.84271484 185.56206055 -7.55847656 186.44345703 -7.265625 187.3515625 C-6.86778809 188.54386475 -6.86778809 188.54386475 -6.46191406 189.76025391 C-5.95047833 192.24012253 -6.31795726 193.60127969 -7 196 C-14.90059112 197.95985284 -22.8020965 199.91595813 -30.70480061 201.86727142 C-34.37421706 202.77343851 -38.04330369 203.68089848 -41.71166992 204.59130859 C-45.25112091 205.46967434 -48.79139413 206.34464976 -52.33226585 207.2172699 C-53.68376764 207.5509706 -55.03496746 207.88589672 -56.38585854 208.22206116 C-58.27637613 208.69228872 -60.16807048 209.15777761 -62.05981445 209.62304688 C-63.67530937 210.02275696 -63.67530937 210.02275696 -65.32344055 210.43054199 C-68 211 -68 211 -71 211 C-75.45248507 196.35171078 -79.88146747 181.71284021 -83.83056641 166.91943359 C-85.84604343 159.42563723 -88.10404769 152.01723466 -90.39501953 144.60375977 C-92.66767613 137.20541734 -94.72871844 129.76441172 -96.72387695 122.28710938 C-98.80342249 114.55892816 -101.11942504 106.91306557 -103.55273438 99.2890625 C-105.84919797 91.95328652 -107.48050173 84.53220307 -109 77 C-109.68016174 77.17539307 -110.36032349 77.35078613 -111.06109619 77.53149414 C-117.47486436 79.18450095 -123.88979923 80.83289083 -130.30607986 82.47612 C-133.60461542 83.32105803 -136.90267498 84.16776701 -140.19970703 85.01855469 C-143.99115932 85.99684247 -147.78457634 86.96737172 -151.578125 87.9375 C-152.76053772 88.24373291 -153.94295044 88.54996582 -155.16119385 88.86547852 C-156.8124527 89.28591431 -156.8124527 89.28591431 -158.49707031 89.71484375 C-159.46525696 89.96355225 -160.4334436 90.21226074 -161.43096924 90.46850586 C-164 91 -164 91 -168 91 C-168.35191406 89.7625 -168.70382813 88.525 -169.06640625 87.25 C-169.56499904 85.49997005 -170.06370649 83.74997276 -170.5625 82 C-170.82627441 81.0733252 -171.09004883 80.14665039 -171.36181641 79.19189453 C-172.86939417 73.9096585 -174.39814051 68.63452411 -175.95703125 63.3671875 C-176.27663818 62.284375 -176.59624512 61.2015625 -176.92553711 60.0859375 C-177.55187829 57.96774795 -178.18152766 55.85053343 -178.81469727 53.734375 C-179.10014404 52.76757812 -179.38559082 51.80078125 -179.6796875 50.8046875 C-179.93476074 49.94858887 -180.18983398 49.09249023 -180.45263672 48.21044922 C-181 46 -181 46 -181 43 C-167.82432225 39.65732005 -154.64851736 36.3151426 -141.47192383 32.97607422 C-140.66672145 32.77202784 -139.86151907 32.56798145 -139.03191662 32.35775185 C-135.66772216 31.50524659 -132.30352273 30.65276094 -128.93930626 29.80034256 C-117.77155652 26.97065223 -106.60442232 24.13855182 -95.43800259 21.30361748 C-87.57614413 19.30778032 -79.71377975 17.31394388 -71.85109043 15.32138252 C-67.06573159 14.10859245 -62.28061237 12.89487488 -57.49606323 11.67889404 C-52.94886424 10.52326445 -48.40102063 9.37020503 -43.85271454 8.21894073 C-42.18601076 7.79660539 -40.51953038 7.3733871 -38.85330963 6.94915009 C-33.57534676 5.60567265 -28.29198159 4.28717228 -23 3 C-21.78416418 2.70263065 -21.78416418 2.70263065 -20.54376602 2.39925385 C-18.08831628 1.80443226 -15.62961146 1.22572469 -13.16918945 0.65185547 C-12.42299693 0.47024431 -11.67680441 0.28863316 -10.90799999 0.10151863 C-6.95533251 -0.80020003 -3.91235075 -1.18631739 0 0 Z " fill="#0F0F0F" transform="translate(219,98)"/>
<path d="M0 0 C82.17 0 164.34 0 249 0 C249 19.47 249 38.94 249 59 C166.83 59 84.66 59 0 59 C0 39.53 0 20.06 0 0 Z " fill="#F5F5F5" transform="translate(19,18)"/>
<path d="M0 0 C94.71 0 189.42 0 287 0 C287 128.04 287 256.08 287 388 C192.29 388 97.58 388 0 388 C0 259.96 0 131.92 0 0 Z M4 4 C4 129.4 4 254.8 4 384 C96.07 384 188.14 384 283 384 C283 258.6 283 133.2 283 4 C190.93 4 98.86 4 4 4 Z " fill="#FCFCFC" transform="translate(0,0)"/>
<path d="M0 0 C6.26295179 -0.09210223 12.52353031 -0.17165986 18.78662109 -0.21972656 C20.91463202 -0.23977468 23.04258832 -0.26702054 25.17041016 -0.30175781 C28.23874433 -0.35057548 31.30634673 -0.37303726 34.375 -0.390625 C35.78954468 -0.42159271 35.78954468 -0.42159271 37.23266602 -0.45318604 C43.35462084 -0.45524038 47.87426114 0.55437771 53 4 C53.66 4.66 54.32 5.32 55 6 C54.83754442 9.73647845 54.41216356 11.52538742 51.9375 14.375 C50.9784375 15.179375 50.9784375 15.179375 50 16 C50.78375 16.45375 51.5675 16.9075 52.375 17.375 C55 19 55 19 57 21 C56.77848101 27.09177215 56.77848101 27.09177215 54.5 29.75 C47.27404668 33.36297666 40.7397608 34.4319395 32.71484375 34.29296875 C31.77314835 34.28872391 30.83145294 34.28447906 29.86122131 34.28010559 C26.88634282 34.26346216 23.91216986 34.22583772 20.9375 34.1875 C18.9069109 34.1724346 16.87631107 34.15874946 14.84570312 34.14648438 C9.8966523 34.11617169 4.94910543 34.05742409 0 34 C0 22.78 0 11.56 0 0 Z " fill="#F4F4F4" transform="translate(212,332)"/>
<path d="M0 0 C17 0 17 0 21.36328125 2.88671875 C22.91992188 4.73242188 22.91992188 4.73242188 24.3125 6.6875 C24.82232422 7.31333984 25.33214844 7.93917969 25.85742188 8.58398438 C26.80179222 9.75372975 27.72688651 10.93959583 28.62231445 12.1472168 C30.35490433 14.47729381 32.18611033 16.73263791 34 19 C34.33 12.73 34.66 6.46 35 0 C40.61 0 46.22 0 52 0 C52 13.2 52 26.4 52 40 C35 40 35 40 30.890625 37.3671875 C29.484375 35.671875 29.484375 35.671875 28.25 33.875 C27.79625 33.30523437 27.3425 32.73546875 26.875 32.1484375 C26.02626984 31.0753304 25.19718924 29.98602263 24.39941406 28.87451172 C22.37601748 26.16417694 20.16530469 23.59836563 18 21 C17.67 27.27 17.34 33.54 17 40 C11.39 40 5.78 40 0 40 C0 26.8 0 13.6 0 0 Z " fill="#121212" transform="translate(210,28)"/>
<path d="M0 0 C6.24464649 -0.0921719 12.48690299 -0.17170821 18.73168945 -0.21972656 C20.85286487 -0.23975746 22.97398565 -0.26699025 25.0949707 -0.30175781 C28.15589941 -0.35065214 31.21609376 -0.37305452 34.27734375 -0.390625 C35.21521225 -0.41127014 36.15308075 -0.43191528 37.11936951 -0.45318604 C43.49898212 -0.45532702 48.47411328 0.73294256 54 4 C56 6 56 6 56.5 9.3125 C55.97063044 13.2166005 55.82615991 13.60458498 53 15.9375 C52.01 16.618125 51.02 17.29875 50 18 C50.804375 18.474375 51.60875 18.94875 52.4375 19.4375 C55 21 55 21 56 22 C56.07205511 23.68608966 56.08386068 25.37500659 56.0625 27.0625 C56.05347656 27.98160156 56.04445312 28.90070313 56.03515625 29.84765625 C56.02355469 30.55792969 56.01195312 31.26820313 56 32 C56.66 32 57.32 32 58 32 C58 32.66 58 33.32 58 34 C51.07 34 44.14 34 37 34 C36.505 29.545 36.505 29.545 36 25 C32.2311658 23.1155829 30.31987525 22.66570538 26.25 22.375 C23.65125 22.189375 23.65125 22.189375 21 22 C21 25.96 21 29.92 21 34 C14.07 34 7.14 34 0 34 C0 22.78 0 11.56 0 0 Z " fill="#F7F7F7" transform="translate(144,332)"/>
<path d="M0 0 C14.85 0 29.7 0 45 0 C45 3.3 45 6.6 45 10 C36.42 10 27.84 10 19 10 C19 11.65 19 13.3 19 15 C26.26 15 33.52 15 41 15 C41 18.3 41 21.6 41 25 C33.74 25 26.48 25 19 25 C19 26.65 19 28.3 19 30 C27.91 30 36.82 30 46 30 C46 33.3 46 36.6 46 40 C30.82 40 15.64 40 0 40 C0 26.8 0 13.6 0 0 Z " fill="#1B1B1B" transform="translate(88,28)"/>
<path d="M0 0 C14.85 0 29.7 0 45 0 C45 3.3 45 6.6 45 10 C36.09 10 27.18 10 18 10 C18 11.65 18 13.3 18 15 C25.26 15 32.52 15 40 15 C40 17.97 40 20.94 40 24 C32.74 24 25.48 24 18 24 C18 25.98 18 27.96 18 30 C26.91 30 35.82 30 45 30 C45 33.3 45 36.6 45 40 C30.15 40 15.3 40 0 40 C0 26.8 0 13.6 0 0 Z " fill="#161616" transform="translate(150,28)"/>
<path d="M0 0 C0.79164551 -0.00547852 1.58329102 -0.01095703 2.39892578 -0.01660156 C10.49683015 0.0815959 17.54209111 1.61696377 24.25 6.3125 C24.91 7.9625 25.57 9.6125 26.25 11.3125 C19.65 11.3125 13.05 11.3125 6.25 11.3125 C6.25 10.6525 6.25 9.9925 6.25 9.3125 C1.96 9.3125 -2.33 9.3125 -6.75 9.3125 C-7.08 9.9725 -7.41 10.6325 -7.75 11.3125 C-7.13592285 11.38243164 -6.5218457 11.45236328 -5.88916016 11.52441406 C-3.04923047 11.85613918 -0.21232332 12.20920043 2.625 12.5625 C4.07326172 12.72685547 4.07326172 12.72685547 5.55078125 12.89453125 C13.00800215 13.84545204 22.23392666 15.10547591 27.25 21.3125 C27.75 24.1875 27.75 24.1875 27.25 27.3125 C23.06698999 33.11473969 17.19788392 34.50944538 10.50390625 35.87109375 C-0.98160249 37.42915196 -14.68688711 38.00205585 -24.5546875 31.0390625 C-26.80106365 28.94498304 -27.77589019 27.23482944 -28.75 24.3125 C-25.50017 24.22521118 -22.2506425 24.17201342 -19 24.125 C-17.61941406 24.08729492 -17.61941406 24.08729492 -16.2109375 24.04882812 C-15.32148437 24.03916016 -14.43203125 24.02949219 -13.515625 24.01953125 C-12.69868164 24.0038208 -11.88173828 23.98811035 -11.04003906 23.97192383 C-8.22640555 24.39036932 -6.92568081 25.53656343 -4.75 27.3125 C-2.49654591 27.7453895 -2.49654591 27.7453895 -0.1875 27.625 C0.95912109 27.61919922 0.95912109 27.61919922 2.12890625 27.61328125 C4.54788749 27.42618696 4.54788749 27.42618696 7.25 25.3125 C1.70733298 22.62759061 -4.32151655 22.29113109 -10.35742188 21.54492188 C-16.2034645 20.75231235 -20.65383462 19.37661025 -25.625 16.0625 C-27.54354828 13.07809156 -27.23141121 10.74255488 -26.75 7.3125 C-20.90378238 -0.20406551 -8.71663325 0.04404907 0 0 Z " fill="#F5F5F5" transform="translate(106.75,330.6875)"/>
<path d="M0 0 C16.5 0 33 0 50 0 C50 2.31 50 4.62 50 7 C40.1 7 30.2 7 20 7 C20 8.98 20 10.96 20 13 C28.25 13 36.5 13 45 13 C45 15.31 45 17.62 45 20 C36.75 20 28.5 20 20 20 C20 21.98 20 23.96 20 26 C30.23 26 40.46 26 51 26 C51 28.64 51 31.28 51 34 C34.17 34 17.34 34 0 34 C0 22.78 0 11.56 0 0 Z " fill="#FAFAFA" transform="translate(20,332)"/>
<path d="M0 0 C16.5 0 33 0 50 0 C50 3.63 50 7.26 50 11 C44.72 11 39.44 11 34 11 C34 20.57 34 30.14 34 40 C27.73 40 21.46 40 15 40 C15 30.43 15 20.86 15 11 C10.05 11 5.1 11 0 11 C0 7.37 0 3.74 0 0 Z " fill="#1B1B1B" transform="translate(24,28)"/>
<path d="M0 0 C4.29992077 1.56360755 6.59182117 3.14416951 9 7 C9.79893471 11.03462028 9.92775262 15.19603657 8.015625 18.9140625 C5.22248494 22.41410838 2.28119839 24.64330353 -2.1484375 25.3359375 C-8.68467643 25.45060836 -11.98306051 23.71524554 -16.875 19.3125 C-18.70065186 15.55977117 -18.86870112 12.06989893 -18 8 C-13.36353033 0.3576234 -8.57810473 -0.73790148 0 0 Z " fill="#2A2A2A" transform="translate(251,284)"/>
<path d="M0 0 C4.29992077 1.56360755 6.59182117 3.14416951 9 7 C9.79893471 11.03462028 9.92775262 15.19603657 8.015625 18.9140625 C5.22248494 22.41410838 2.28119839 24.64330353 -2.1484375 25.3359375 C-8.68467643 25.45060836 -11.98306051 23.71524554 -16.875 19.3125 C-18.70065186 15.55977117 -18.86870112 12.06989893 -18 8 C-13.36353033 0.3576234 -8.57810473 -0.73790148 0 0 Z M-13.671875 6.15234375 C-15.1834296 8.25518294 -15.55091141 9.49170764 -15.6875 12.0625 C-14.94821199 16.29660406 -14.05011827 18.03959109 -11 21 C-7.51556578 22.74221711 -3.80112955 22.58675154 0 22 C3.07469523 20.29748281 5.40613254 18.18773492 7 15 C7.41906739 11.22839349 7.31200824 9.49029866 5.25 6.25 C2.01494835 3.01494835 0.21881756 2.18397246 -4.3125 1.5 C-8.61226973 2.08301962 -10.57503203 3.20197308 -13.671875 6.15234375 Z " fill="#212121" transform="translate(251,284)"/>
<path d="M0 0 C0 5.28 0 10.56 0 16 C0.99 16 1.98 16 3 16 C3 13.69 3 11.38 3 9 C4.65 9.33 6.3 9.66 8 10 C8 11.98 8 13.96 8 16 C9.32 16.33 10.64 16.66 12 17 C8.54260443 18.72869779 4.78024432 18.48966895 1 18 C-1.87029869 16.20606332 -3.49131638 15.01736724 -5 12 C-5.58435438 4.75400566 -5.58435438 4.75400566 -3.0625 1.5 C-1 0 -1 0 0 0 Z " fill="#F6F6F6" transform="translate(241,288)"/>
<path d="M0 0 C5.28 0 10.56 0 16 0 C16.33 1.32 16.66 2.64 17 4 C13.40537669 6.25998595 10.43404325 6.20868087 6.25 6.125 C5.07953125 6.10695313 3.9090625 6.08890625 2.703125 6.0703125 C1.36507812 6.03550781 1.36507812 6.03550781 0 6 C0 4.02 0 2.04 0 0 Z " fill="#1E1E1E" transform="translate(233,352)"/>
<path d="M0 0 C0.99 0.33 1.98 0.66 3 1 C0.66666667 3.33333333 -1.66666667 5.66666667 -4 8 C-4.55224134 12.81238884 -4.74881868 14.90017257 -2 18.9375 C1.86975974 21.59795982 4.35317161 21.76372059 9 22 C9 22.33 9 22.66 9 23 C7.02 23 5.04 23 3 23 C3 23.66 3 24.32 3 25 C-1.40475377 23.97563866 -4.3113035 22.52582432 -7.07421875 18.8359375 C-8.88617718 15.24260222 -8.97209885 11.86828302 -8 8 C-5.93538806 4.63010148 -3.56419573 1.78209787 0 0 Z " fill="#313131" transform="translate(241,284)"/>
<path d="M0 0 C5.70939788 -0.45675183 8.55127459 0.37894444 13 4 C15.34549674 7.51824511 15.57991403 8.85775694 15 13 C12.5 15.875 12.5 15.875 10 18 C7.70387244 8.58997722 7.70387244 8.58997722 8 4 C3.545 3.01 3.545 3.01 -1 2 C-0.67 1.34 -0.34 0.68 0 0 Z " fill="#E5E5E5" transform="translate(243,286)"/>
<path d="M0 0 C2.29160319 -0.02692484 4.58329546 -0.04636124 6.875 -0.0625 C8.15117187 -0.07410156 9.42734375 -0.08570313 10.7421875 -0.09765625 C14 0 14 0 16 1 C15.67 2.65 15.34 4.3 15 6 C10.05 6 5.1 6 0 6 C0 4.02 0 2.04 0 0 Z " fill="#131313" transform="translate(165,340)"/>
<path d="M0 0 C2.12493141 -0.02693575 4.24995912 -0.04636628 6.375 -0.0625 C7.55835938 -0.07410156 8.74171875 -0.08570313 9.9609375 -0.09765625 C13 0 13 0 15 1 C14.34 2.32 13.68 3.64 13 5 C8.71 5 4.42 5 0 5 C0 3.35 0 1.7 0 0 Z " fill="#141414" transform="translate(233,340)"/>
<path d="M0 0 C0.99 0.33 1.98 0.66 3 1 C0.19195732 3.96404505 -2.18315774 6.44499019 -6 8 C-6 7.01 -6 6.02 -6 5 C-3.1875 2.25 -3.1875 2.25 0 0 Z " fill="#282828" transform="translate(241,284)"/>
<path d="M0 0 C6.75 -0.125 6.75 -0.125 9 1 C8.67 1.99 8.34 2.98 8 4 C3.545 3.01 3.545 3.01 -1 2 C-0.67 1.34 -0.34 0.68 0 0 Z " fill="#DEDEDE" transform="translate(243,286)"/>
<path d="M0 0 C1.65 0 3.3 0 5 0 C4.67 1.32 4.34 2.64 4 4 C2.68 4 1.36 4 0 4 C0 2.68 0 1.36 0 0 Z " fill="#D6D6D6" transform="translate(244,291)"/>
<path d="M0 0 C-0.33 0.99 -0.66 1.98 -1 3 C-3.31 3 -5.62 3 -8 3 C-8 2.34 -8 1.68 -8 1 C-2.25 0 -2.25 0 0 0 Z " fill="#171717" transform="translate(252,306)"/>
</svg>
