<?xml version="1.0" encoding="UTF-8"?>
<svg version="1.1" xmlns="http://www.w3.org/2000/svg" width="1920" height="2881">
<path d="M0 0 C633.6 0 1267.2 0 1920 0 C1920 950.73 1920 1901.46 1920 2881 C1286.4 2881 652.8 2881 0 2881 C0 1930.27 0 979.54 0 0 Z " fill="#FEFEFE" transform="translate(0,0)"/>
<path d="M0 0 C633.6 0 1267.2 0 1920 0 C1920 950.73 1920 1901.46 1920 2881 C1286.4 2881 652.8 2881 0 2881 C0 1930.27 0 979.54 0 0 Z M121 700 C121 1267.27 121 1834.54 121 2419 C670.12 2419 1219.24 2419 1785 2419 C1785 1851.73 1785 1284.46 1785 700 C1235.88 700 686.76 700 121 700 Z " fill="#000000" transform="translate(0,0)"/>
<path d="M0 0 C0.68170321 -0.00486483 1.36340641 -0.00972965 2.06576729 -0.0147419 C7.2417555 -0.05110602 12.41764446 -0.0674509 17.59375 -0.07421875 C18.73937975 -0.07594463 18.73937975 -0.07594463 19.90815353 -0.07770538 C67.52359213 -0.12745515 114.04372225 4.04550879 160.34179688 15.56640625 C162.82051035 16.17157121 165.30300731 16.73100969 167.796875 17.26953125 C194.95320807 23.30589592 221.85340418 33.68909086 247.09375 45.23828125 C248.74093018 45.98779053 248.74093018 45.98779053 250.42138672 46.75244141 C266.89520766 54.30813903 282.64629919 62.76711848 298.09375 72.23828125 C299.0518457 72.82254883 300.00994141 73.40681641 300.99707031 74.00878906 C312.97931352 81.35222136 324.39911587 89.15169849 335.40185547 97.89599609 C337.57218383 99.61785256 339.7707405 101.30197767 341.96875 102.98828125 C349.70837308 109.04278408 357.25805437 115.27114794 364.51171875 121.90234375 C365.89178576 123.15087639 367.27753323 124.39397522 368.69750977 125.59692383 C375.07065944 131.02440746 380.94377853 136.93706583 386.84838867 142.86254883 C388.65237085 144.67189058 390.46163665 146.47582444 392.27148438 148.27929688 C398.09233662 154.09649293 403.78685763 159.94170808 409.09375 166.23828125 C410.04239142 167.3219606 410.99286786 168.40403677 411.9453125 169.484375 C419.13110764 177.7225315 425.86419859 186.24613298 432.4140625 194.99658203 C434.10146944 197.24858356 435.80065442 199.49137462 437.5 201.734375 C455.40475743 225.52978751 471.0059101 251.01910794 485.09375 277.23828125 C485.60631348 278.18960937 486.11887695 279.1409375 486.64697266 280.12109375 C531.09375 363.05691684 531.09375 363.05691684 531.09375 383.23828125 C516.55270393 387.7566954 501.99319225 392.1930288 487.36523438 396.42211914 C481.52506138 398.11216794 475.68780252 399.81205118 469.8515625 401.515625 C467.74104914 402.13143232 465.63053479 402.74723626 463.52001953 403.36303711 C461.92072601 403.82974319 461.92072601 403.82974319 460.28912354 404.30587769 C455.22414021 405.78382962 450.15893835 407.26103213 445.09375 408.73828125 C443.09374886 409.32161067 441.09374886 409.90494401 439.09375 410.48828125 C355.09375 434.98828125 271.09375 459.48828125 187.09375 483.98828125 C186.10197754 484.27759521 185.11020508 484.56690918 184.08837891 484.86499023 C182.10638477 485.4429776 180.12428985 486.02061948 178.14208984 486.59790039 C172.86568349 488.13507663 167.59161665 489.67978444 162.3203125 491.234375 C161.21558594 491.55921875 160.11085938 491.8840625 158.97265625 492.21875 C156.84180405 492.84547124 154.71156971 493.47429795 152.58203125 494.10546875 C151.62941406 494.38519531 150.67679688 494.66492187 149.6953125 494.953125 C148.85307129 495.2018335 148.01083008 495.45054199 147.14306641 495.70678711 C145.09375 496.23828125 145.09375 496.23828125 143.09375 496.23828125 C142.79307617 495.48546875 142.49240234 494.73265625 142.18261719 493.95703125 C130.54300788 464.95918372 117.78685636 436.78628536 98.09375 412.23828125 C97.289375 411.23023438 96.485 410.2221875 95.65625 409.18359375 C65.88360797 372.6057764 23.40637619 346.25328236 -23.90625 340.23828125 C-34.38674712 339.19836496 -44.88228415 338.95921154 -55.40625 338.92578125 C-56.2046228 338.92316284 -57.00299561 338.92054443 -57.82556152 338.91784668 C-79.46965013 338.91032428 -101.03963392 341.30840825 -121.90625 347.23828125 C-122.7617041 347.47385742 -123.6171582 347.70943359 -124.49853516 347.95214844 C-161.1265389 358.12553021 -193.99774843 375.57422046 -221.51806641 401.91748047 C-222.67789751 403.02101305 -223.8580789 404.10310568 -225.04296875 405.1796875 C-270.89452555 448.14749859 -289.99341029 522.06192375 -292.02532959 582.79766846 C-292.23262148 591.62632218 -292.28506016 600.4539851 -292.28186417 609.28474045 C-292.28125965 611.3306322 -292.28377282 613.3765041 -292.28646851 615.4223938 C-292.28394442 632.79114674 -291.58398129 649.95150236 -289.90625 667.23828125 C-289.77871141 668.6263963 -289.65183379 670.01457238 -289.52587891 671.40283203 C-287.98761349 687.796606 -285.75561942 704.0242692 -282.90625 720.23828125 C-282.72579132 721.27399261 -282.72579132 721.27399261 -282.54168701 722.33062744 C-278.9074347 743.18720087 -274.86886227 763.86120041 -269.83300781 784.43115234 C-268.83635599 788.52540642 -267.8658004 792.62532014 -266.8984375 796.7265625 C-263.60370739 810.65072536 -260.22956788 824.50815649 -255.88183594 838.14794922 C-254.90276978 841.24930543 -253.94743528 844.35717273 -252.99571228 847.46699524 C-230.30371441 921.53166536 -199.23184206 1003.41068293 -133.90625 1050.23828125 C-133.31521484 1050.66302734 -132.72417969 1051.08777344 -132.11523438 1051.52539062 C-99.3074501 1074.81856506 -61.58298318 1085.94964678 -21.53125 1085.67578125 C-20.57946869 1085.67273987 -19.62768738 1085.66969849 -18.64706421 1085.66656494 C6.95142115 1085.54640557 31.38595359 1082.06276462 56.09375 1075.23828125 C57.07956055 1074.96612793 58.06537109 1074.69397461 59.08105469 1074.41357422 C114.8154277 1058.75486942 163.04126761 1027.1653511 192.09375 976.23828125 C214.84440011 934.68103617 222.3242214 887.86172519 222.28125 840.98828125 C222.2819751 840.17365417 222.2827002 839.3590271 222.28344727 838.51971436 C222.28196777 823.35380388 221.5033855 808.34312552 220.09375 793.23828125 C233.97434268 788.90473196 247.8792034 784.6677407 261.84375 780.61328125 C262.50301483 780.42186554 263.16227966 780.23044983 263.84152222 780.03323364 C271.94550691 777.68469652 280.06683318 775.41467122 288.21875 773.23828125 C298.03626881 770.6142269 307.72009112 767.60043929 317.4152832 764.55908203 C327.08271736 761.53189923 336.79288626 758.70557038 346.54345703 755.9609375 C350.98395852 754.70266788 355.41374611 753.4079413 359.84375 752.11328125 C360.79975098 751.83411865 361.75575195 751.55495605 362.74072266 751.26733398 C368.61860292 749.54960361 374.4952554 747.82769466 380.37173462 746.10517883 C425.31382928 732.93193726 425.31382928 732.93193726 441.12109375 728.57421875 C452.05730647 725.55227117 462.90576665 722.38888384 473.69262695 718.87011719 C482.02083733 716.18811287 490.44548847 713.91755004 498.91381836 711.72265625 C505.13575024 710.09659783 511.23098567 708.26300484 517.31176758 706.16772461 C521.38903173 704.80553552 525.52238877 703.66635598 529.66015625 702.50390625 C535.65506571 700.8070981 541.62189174 699.0141041 547.59375 697.23828125 C555.50912411 694.88695267 563.42627803 692.55064057 571.37109375 690.30078125 C576.701255 688.77947604 582.02237387 687.22749726 587.34375 685.67578125 C588.35074951 685.38243896 589.35774902 685.08909668 590.39526367 684.78686523 C591.37342041 684.50141846 592.35157715 684.21597168 593.359375 683.921875 C594.31650391 683.64327637 595.27363281 683.36467773 596.25976562 683.07763672 C598.14825655 682.51831282 600.03248727 681.94439729 601.91210938 681.35595703 C602.79189453 681.08122559 603.67167969 680.80649414 604.578125 680.5234375 C605.35381836 680.27601807 606.12951172 680.02859863 606.92871094 679.77368164 C609.09375 679.23828125 609.09375 679.23828125 613.09375 679.23828125 C614.80429004 687.67918854 615.795839 696.10481416 616.59375 704.67578125 C616.71105469 705.87009766 616.82835937 707.06441406 616.94921875 708.29492188 C617.35991712 712.60725473 617.73246025 716.92157779 618.09375 721.23828125 C618.21982635 722.70720825 618.21982635 722.70720825 618.34844971 724.20581055 C619.92755899 742.93334295 620.49761311 761.57419375 620.46875 780.36328125 C620.46851082 781.05947948 620.46827164 781.75567772 620.46802521 782.47297287 C620.44095559 845.1676531 614.54776323 911.52655935 594.11157227 971.21313477 C593.0675065 974.31628153 592.10659759 977.43610531 591.16015625 980.5703125 C588.9652983 987.75299848 586.54022595 994.84745177 584.03125 1001.92578125 C583.79453583 1002.5936969 583.55782166 1003.26161255 583.31393433 1003.94976807 C558.94864656 1072.4035148 521.38333105 1136.97391778 472.359375 1190.7265625 C470.49119283 1192.79766791 468.65618884 1194.88983504 466.828125 1196.99609375 C463.01682478 1201.3605321 459.07268483 1205.58936077 455.09375 1209.80078125 C454.08441406 1210.87489258 454.08441406 1210.87489258 453.0546875 1211.97070312 C447.12033371 1218.26592978 441.14238694 1224.38807025 434.58203125 1230.03125 C431.91881776 1232.39344093 429.32957778 1234.82286468 426.74047852 1237.265625 C420.07013078 1243.55611617 413.26555252 1249.52009239 406.09375 1255.23828125 C404.90332047 1256.21807812 403.71463217 1257.19999293 402.52734375 1258.18359375 C353.34156149 1298.81640793 296.86177139 1331.60578488 238.09375 1356.23828125 C236.46638916 1356.92688232 236.46638916 1356.92688232 234.80615234 1357.62939453 C204.80607342 1370.24940179 173.78100768 1380.95856237 142.40039062 1389.59130859 C140.27135167 1390.18846706 138.15847153 1390.82075136 136.046875 1391.4765625 C109.25912163 1399.78002587 81.64263766 1405.17842383 54.09375 1410.23828125 C52.97758301 1410.44437012 51.86141602 1410.65045898 50.71142578 1410.86279297 C45.10285912 1411.89044681 39.48832057 1412.8681174 33.86083984 1413.78662109 C31.97492643 1414.09445062 30.08985804 1414.40749178 28.20556641 1414.72509766 C20.18889764 1416.06577813 12.15278531 1417.18494248 4.09375 1418.23828125 C2.72945453 1418.426159 1.36519752 1418.61431629 0.00097656 1418.80273438 C-25.63659917 1422.26819927 -51.29427867 1422.64139707 -77.12123871 1422.67173767 C-79.73077149 1422.67570452 -82.34025088 1422.68455241 -84.94976807 1422.69421387 C-117.1118916 1422.78918445 -149.05971214 1420.90933218 -180.90625 1416.23828125 C-182.30713867 1416.035979 -182.30713867 1416.035979 -183.73632812 1415.82958984 C-233.3502486 1408.51904106 -282.32444749 1394.12766073 -327.90625 1373.23828125 C-328.96457031 1372.75391602 -330.02289062 1372.26955078 -331.11328125 1371.77050781 C-350.14613697 1362.98746681 -369.25006664 1353.57808689 -386.90625 1342.23828125 C-385.44127093 1337.95361127 -383.25668371 1334.83691217 -380.53125 1331.23828125 C-355.91578069 1297.61892346 -342.25891523 1257.04586372 -335.90625 1216.23828125 C-335.67325195 1214.77310059 -335.67325195 1214.77310059 -335.43554688 1213.27832031 C-331.47332106 1187.47239503 -331.2066243 1160.16231339 -334.46875 1134.2421875 C-334.97084698 1130.21854703 -334.97934792 1126.29064693 -334.90625 1122.23828125 C-350.27701868 1126.50641434 -365.61582976 1130.87035609 -380.92236328 1135.36328125 C-385.91529928 1136.82741827 -390.91090957 1138.2823733 -395.90625 1139.73828125 C-397.90626276 1140.32157084 -399.90626276 1140.90490416 -401.90625 1141.48828125 C-405.90625 1142.65494792 -409.90625 1143.82161458 -413.90625 1144.98828125 C-414.89778076 1145.27751465 -415.88931152 1145.56674805 -416.91088867 1145.86474609 C-418.89534613 1146.44347205 -420.87988291 1147.02192606 -422.86450195 1147.60009766 C-428.10301192 1149.12661368 -433.3397469 1150.65890793 -438.57421875 1152.19921875 C-439.66541016 1152.51955078 -440.75660156 1152.83988281 -441.88085938 1153.16992188 C-443.97251666 1153.78406806 -446.06368924 1154.39986827 -448.15429688 1155.01757812 C-449.09724609 1155.29408203 -450.04019531 1155.57058594 -451.01171875 1155.85546875 C-452.25151489 1156.22067627 -452.25151489 1156.22067627 -453.51635742 1156.59326172 C-455.9648258 1157.25409055 -458.41466935 1157.76863202 -460.90625 1158.23828125 C-460.69512573 1159.17655762 -460.69512573 1159.17655762 -460.47973633 1160.13378906 C-458.4565225 1170.38806807 -458.55389184 1180.58171912 -458.59375 1190.98828125 C-458.59598572 1192.41992615 -458.59598572 1192.41992615 -458.5982666 1193.88049316 C-458.6659387 1217.95459061 -461.31607643 1239.72196168 -469.46875 1262.48828125 C-469.76168945 1263.31175049 -470.05462891 1264.13521973 -470.35644531 1264.98364258 C-470.64229492 1265.75345459 -470.92814453 1266.5232666 -471.22265625 1267.31640625 C-471.47474854 1268.0012207 -471.72684082 1268.68603516 -471.98657227 1269.39160156 C-473.0072617 1271.4411091 -474.21308787 1272.71493916 -475.90625 1274.23828125 C-478.26244114 1272.05295373 -480.61581287 1269.86461155 -482.96875 1267.67578125 C-483.62552734 1267.06669922 -484.28230469 1266.45761719 -484.95898438 1265.83007812 C-491.19768412 1260.02163353 -497.20456292 1254.12301218 -502.765625 1247.66015625 C-504.99077282 1245.14265325 -507.27577505 1242.69187775 -509.57568359 1240.24291992 C-515.64024934 1233.78163122 -521.36957273 1227.16142331 -526.90625 1220.23828125 C-527.88753222 1219.04670016 -528.87073045 1217.85669529 -529.85546875 1216.66796875 C-538.27391483 1206.47681081 -546.20610834 1195.98107486 -553.90625 1185.23828125 C-554.56061035 1184.32594727 -555.2149707 1183.41361328 -555.88916016 1182.47363281 C-564.7127565 1170.11509773 -572.97564944 1157.56854472 -580.61279297 1144.44433594 C-581.79547202 1142.42721854 -583.00066229 1140.42706724 -584.22265625 1138.43359375 C-590.86332881 1127.59540388 -596.89974152 1116.43745038 -602.90625 1105.23828125 C-603.40463379 1104.31144531 -603.90301758 1103.38460938 -604.41650391 1102.4296875 C-605.83558431 1099.78561302 -607.24758087 1097.13791473 -608.65625 1094.48828125 C-609.08671631 1093.68422852 -609.51718262 1092.88017578 -609.96069336 1092.05175781 C-612.90625 1086.47147298 -612.90625 1086.47147298 -612.90625 1084.23828125 C-603.43706239 1080.46834707 -593.66250482 1077.82943305 -583.86523438 1075.07666016 C-578.72401512 1073.61998137 -573.59693299 1072.11508615 -568.46875 1070.61328125 C-562.28579374 1068.80532834 -556.10256406 1067.0000522 -549.90625 1065.23828125 C-543.91945375 1063.53495506 -537.94353953 1061.79563991 -531.96875 1060.05078125 C-522.38720713 1057.25294317 -512.80422302 1054.46012322 -503.21875 1051.67578125 C-502.55472168 1051.4828952 -501.89069336 1051.29000916 -501.20654297 1051.09127808 C-492.30317872 1048.50590103 -483.39377627 1045.9427077 -474.47705078 1043.40380859 C-463.9388058 1040.39909382 -453.4237388 1037.31468866 -442.90625 1034.23828125 C-430.39414868 1030.57844173 -417.87821823 1026.93535348 -405.34033203 1023.36474609 C-399.41929189 1021.67639928 -393.50733948 1019.95982983 -387.60375977 1018.21142578 C-383.25776966 1016.92528868 -378.90629867 1015.65978916 -374.55078125 1014.40625 C-372.90299683 1013.93046509 -372.90299683 1013.93046509 -371.22192383 1013.44506836 C-369.03631135 1012.8143773 -366.84996467 1012.1862242 -364.6628418 1011.56079102 C-363.17457886 1011.13044556 -363.17457886 1011.13044556 -361.65625 1010.69140625 C-360.31820312 1010.30710449 -360.31820312 1010.30710449 -358.953125 1009.91503906 C-356.93653197 1009.41836 -356.93653197 1009.41836 -355.90625 1008.23828125 C-356.42036179 1005.58375395 -357.0033446 1002.98410997 -357.64453125 1000.359375 C-357.84070038 999.5370639 -358.03686951 998.71475281 -358.23898315 997.86752319 C-358.89274156 995.13542084 -359.55537735 992.40556397 -360.21875 989.67578125 C-360.67706311 987.7750377 -361.13514958 985.87423949 -361.59301758 983.97338867 C-362.78547866 979.03383692 -363.98738907 974.09663714 -365.19299316 969.16027832 C-365.88141364 966.34002829 -366.56742401 963.51920192 -367.25292969 960.69824219 C-373.93109341 933.15757165 -373.93109341 933.15757165 -382.00683594 906.00244141 C-382.99491218 902.96579666 -383.95366539 899.9205057 -384.9140625 896.875 C-396.14364788 861.74478088 -411.20469182 827.46783381 -430.90625 796.23828125 C-431.3492041 795.53574219 -431.7921582 794.83320312 -432.24853516 794.109375 C-451.9409038 763.18259705 -476.3019164 735.90942741 -505.90625 714.23828125 C-506.50888672 713.79484375 -507.11152344 713.35140625 -507.73242188 712.89453125 C-548.56140562 683.23442955 -598.04591452 671.10768441 -647.84375 670.92578125 C-648.61417633 670.92216583 -649.38460266 670.91855042 -650.17837524 670.91482544 C-665.30002948 670.88665798 -679.90603737 672.46794568 -694.83740234 674.78076172 C-698.85198075 675.37927564 -702.8686573 675.826282 -706.90625 676.23828125 C-707.2971525 620.04821822 -699.32765198 564.24535687 -685.78125 509.80078125 C-685.40054352 508.26898224 -685.40054352 508.26898224 -685.012146 506.70623779 C-682.37200411 496.1527152 -679.60094677 485.72075341 -675.99487305 475.45263672 C-674.80078574 471.92687904 -673.81609993 468.39393918 -672.84375 464.80078125 C-651.37398018 389.31707998 -609.09721746 316.05075442 -559.33886719 255.97509766 C-557.27742868 253.4759372 -555.25208293 250.94782754 -553.21875 248.42578125 C-549.45020302 243.82054769 -545.49836696 239.40954591 -541.4609375 235.0390625 C-539.46361477 232.84933712 -537.50614938 230.63903985 -535.5625 228.40234375 C-531.97157875 224.28562634 -528.27404247 220.27940895 -524.53125 216.30078125 C-523.87568115 215.603479 -523.2201123 214.90617676 -522.54467773 214.18774414 C-515.88399087 207.12427601 -509.17825883 200.24233626 -501.8046875 193.91796875 C-499.92654247 192.25623549 -498.16319484 190.527026 -496.40625 188.73828125 C-492.74366605 185.02642487 -488.87262933 181.62097934 -484.90625 178.23828125 C-483.97039062 177.43648437 -483.03453125 176.6346875 -482.0703125 175.80859375 C-467.45868925 163.3347506 -452.51232445 151.44936438 -436.90625 140.23828125 C-436.08576172 139.64869629 -435.26527344 139.05911133 -434.41992188 138.45166016 C-422.51780092 129.93452474 -410.37487076 121.90013365 -397.90625 114.23828125 C-397.28540527 113.85397949 -396.66456055 113.46967773 -396.02490234 113.07373047 C-391.69007957 110.39552786 -387.31284458 107.79654069 -382.90625 105.23828125 C-382.05981934 104.74666504 -381.21338867 104.25504883 -380.34130859 103.74853516 C-344.02777888 82.7816062 -306.26588832 65.62051921 -266.90625 51.23828125 C-266.01502441 50.91214844 -265.12379883 50.58601562 -264.20556641 50.25 C-255.18866544 46.96784082 -246.10892189 43.96141106 -236.90625 41.23828125 C-235.64941406 40.86058594 -234.39257812 40.48289062 -233.09765625 40.09375 C-216.92856971 35.25818985 -200.66802858 30.7694259 -184.22167969 26.97460938 C-179.97211717 25.99064452 -175.75778283 24.93741365 -171.5546875 23.76953125 C-125.59044591 11.09209597 -77.36982142 4.81738759 -29.90625 1.23828125 C-28.76638138 1.15136017 -27.62651276 1.06443909 -26.45210266 0.97488403 C-17.62530419 0.34107205 -8.8506339 0.05229002 0 0 Z " fill="#000000" transform="translate(1116.90625,827.76171875)"/>
<path d="M0 0 C548.79 0 1097.58 0 1663 0 C1663 154.11 1663 308.22 1663 467 C1114.21 467 565.42 467 0 467 C0 312.89 0 158.78 0 0 Z " fill="#FEFEFE" transform="translate(122,131)"/>
<path d="M0 0 C633.6 0 1267.2 0 1920 0 C1920 950.73 1920 1901.46 1920 2881 C1286.4 2881 652.8 2881 0 2881 C0 1930.27 0 979.54 0 0 Z M28 31 C28 961.27 28 1891.54 28 2850 C643.12 2850 1258.24 2850 1892 2850 C1892 1919.73 1892 989.46 1892 31 C1276.88 31 661.76 31 28 31 Z " fill="#FEFEFE" transform="translate(0,0)"/>
<path d="M0 0 C0.01839432 0.5796048 0.03678864 1.15920959 0.05574036 1.75637817 C1.28962983 40.43666491 1.28962983 40.43666491 4.03442383 79.03173828 C4.78482899 87.37898683 5.17902801 95.61642563 5 104 C4.45287354 104.1451001 3.90574707 104.2902002 3.34204102 104.43969727 C-41.05017977 116.33849968 -74.73652992 138.86357469 -98.56713867 178.80908203 C-111.11810924 200.5524283 -118.20434635 225.30939866 -122 250 C-122.26925293 251.68258911 -122.26925293 251.68258911 -122.54394531 253.39916992 C-124.10224103 264.21382521 -124.30714319 274.90081566 -124.26074219 285.81665039 C-124.25005236 288.79789743 -124.26068358 291.7785371 -124.2734375 294.75976562 C-124.28782505 312.04939715 -122.67199466 328.70880252 -119.4375 345.6875 C-116.77671016 359.9223378 -116.77671016 359.9223378 -116 367 C-111.5413268 365.70950534 -107.08302938 364.41771679 -102.625 363.125 C-101.93883606 362.92603119 -101.25267212 362.72706238 -100.54571533 362.52206421 C-89.48087985 359.31227459 -78.42575916 356.07038451 -67.375 352.8125 C-57.40037536 349.87223965 -47.42009398 346.95560942 -37.41674805 344.11425781 C-26.92790976 341.1333634 -16.46561153 338.0612331 -6 335 C36.45817517 322.58081447 36.45817517 322.58081447 54 318 C52.97063381 312.23554934 51.30333697 306.95140729 49.1875 301.5 C46.86806816 295.48849699 44.8616956 289.44837029 43.10180664 283.24951172 C41.43718839 277.41139772 39.63026563 271.62552196 37.79736328 265.83813477 C24.81404458 224.71708226 16.18134115 182.64342948 10 140 C9.81518066 138.73075684 9.63036133 137.46151367 9.43994141 136.15380859 C8.86741013 132.20798577 8.30751551 128.26047333 7.75 124.3125 C7.57460693 123.08869629 7.39921387 121.86489258 7.21850586 120.60400391 C6.44432525 115.02193915 5.76889568 109.6372946 6 104 C8.04111542 103.51849058 10.08291932 103.03989917 12.125 102.5625 C13.26195312 102.29566406 14.39890625 102.02882813 15.5703125 101.75390625 C34.72334065 97.54373036 56.16651147 98.82493666 75 104 C76.04534912 104.27287842 76.04534912 104.27287842 77.11181641 104.55126953 C99.98151437 110.6054905 119.17647818 122.55347587 136 139 C137.34964844 140.25683594 137.34964844 140.25683594 138.7265625 141.5390625 C169.7538017 171.1356509 187.8833858 214.18352603 198.46484375 254.99072266 C199.64323666 259.41507196 200.98905742 263.79344892 202.30078125 268.1796875 C203 271 203 271 203 275 C193.67628099 278.28218146 184.29234747 281.07115344 174.74707031 283.62963867 C164.79671149 286.30305851 154.91594223 289.20032301 145.03222656 292.10888672 C140.02386342 293.58074867 135.0117635 295.03976736 130 296.5 C127.99998177 297.08327082 125.99998177 297.66660418 124 298.25 C112 301.75 112 301.75 108.99731445 302.62573242 C107.00622978 303.20649924 105.01518133 303.78739027 103.02416992 304.3684082 C97.88806222 305.86705301 92.751258 307.36324334 87.61328125 308.85546875 C77.38480575 311.82829626 67.16169907 314.80462197 57 318 C57.63146166 323.15676765 59.21240965 327.53991047 61.140625 332.31640625 C61.45925507 333.11768951 61.77788513 333.91897278 62.10617065 334.74453735 C63.14696719 337.35345267 64.19772597 339.95819473 65.25 342.5625 C65.60737244 343.45216461 65.96474487 344.34182922 66.33294678 345.25845337 C73.30479197 362.60197494 80.7441965 379.69517582 88.69824219 396.61181641 C89.24899414 397.7879248 89.79974609 398.9640332 90.3671875 400.17578125 C90.8710498 401.24352783 91.37491211 402.31127441 91.89404297 403.41137695 C93 406 93 406 93 408 C80.26057062 412.78385725 67.32763739 416.50926479 54.2109375 420.10888672 C49.10602038 421.52562543 44.02126898 423.00943377 38.9375 424.5 C37.95193115 424.78866943 36.9663623 425.07733887 35.95092773 425.37475586 C33.96180078 425.95778424 31.97278686 426.54119835 29.98388672 427.125 C24.99095072 428.58913702 19.99534043 430.04409205 15 431.5 C12.99998724 432.08328959 10.99998724 432.66662291 9 433.25 C-3 436.75 -3 436.75 -6.0012207 437.62524414 C-7.99723196 438.20748857 -9.99316324 438.79000724 -11.98901367 439.37280273 C-17.04941429 440.85007793 -22.11120124 442.32226841 -27.17578125 443.78515625 C-37.29049784 446.71206679 -47.3655733 449.71706084 -57.39160156 452.93505859 C-63.44050782 454.86137048 -69.53027101 456.53322678 -75.67578125 458.12109375 C-79.50325581 459.13305824 -83.2764567 460.27886711 -87.046875 461.484375 C-89 462 -89 462 -92 462 C-91.74605469 463.05316406 -91.49210938 464.10632812 -91.23046875 465.19140625 C-89.55661115 472.19117441 -87.93704698 479.17123154 -86.625 486.25 C-81.14675055 513.8430775 -71.31670031 541.74222592 -59 567 C-58.21305752 568.66253134 -57.42661079 570.32529741 -56.640625 571.98828125 C-48.55993187 588.84535631 -38.83955605 604.52530765 -27 619 C-26.56333008 619.53818359 -26.12666016 620.07636719 -25.67675781 620.63085938 C-3.109054 648.34900387 25.60144363 669.3658051 61 677 C61.98097656 677.22429688 62.96195312 677.44859375 63.97265625 677.6796875 C105.11153508 685.59309502 153.46821407 669.56226429 187.72265625 646.94140625 C194.78432822 642.11559424 201.06746915 637.17830851 207 631 C207.804375 630.21625 208.60875 629.4325 209.4375 628.625 C216.88534141 620.99550393 222.62937765 613.19317173 228 604 C228.99834245 602.33233992 229.99773335 600.66530458 231 599 C234.67956291 600.56232021 237.16515793 602.83584082 240.0625 605.5625 C244.55711804 609.73097455 249.17045751 613.68686661 253.9453125 617.53515625 C256.1831158 619.34085175 258.40481899 621.15979312 260.6171875 622.99609375 C277.14494981 636.66620367 294.71565819 648.62212834 312.62841797 660.39697266 C314.80651654 661.8692184 316.91288471 663.40219394 319 665 C311.31277869 682.96564082 289.28851479 700.54450316 274 712 C272.79354731 712.93396196 271.58787891 713.86893754 270.3828125 714.8046875 C242.09079316 736.59311656 210.40776403 753.1059808 176.77685547 765.00927734 C174.18534777 765.93387188 171.60942267 766.89190883 169.03515625 767.86328125 C149.81863087 775.0146634 129.89659719 779.59099464 109.6875 782.875 C108.44379639 783.07818848 107.20009277 783.28137695 105.91870117 783.49072266 C92.11863797 785.61891185 78.35953543 786.18678646 64.42138672 786.18530273 C62.13360017 786.18749177 59.84629602 786.20575334 57.55859375 786.22460938 C13.43318272 786.39420545 -32.31625797 772.2035837 -68 746 C-68.98742187 745.28328125 -69.97484375 744.5665625 -70.9921875 743.828125 C-88.76728135 730.71164353 -105.79314906 715.983522 -120 699 C-120.45358887 698.46020508 -120.90717773 697.92041016 -121.37451172 697.36425781 C-138.4645348 676.94798863 -153.11299817 654.87438138 -165.70068359 631.41796875 C-166.59098347 629.76116117 -167.48746144 628.10766285 -168.38916016 626.45703125 C-187.67319837 591.11275005 -201.09519018 553.3605296 -213 515 C-213.32452148 513.96246582 -213.64904297 512.92493164 -213.98339844 511.85595703 C-222.08860415 485.76273075 -227.97962764 459.08658832 -232.46191406 432.14892578 C-232.96856899 429.18393699 -233.51712388 426.23095735 -234.0859375 423.27734375 C-237.18470858 406.96394304 -238.71005054 390.54045954 -240 374 C-240.08365814 372.98991379 -240.16731628 371.97982758 -240.25350952 370.93913269 C-240.93167315 362.28207011 -241.17479332 353.67790833 -241.203125 344.99609375 C-241.20595238 344.30594744 -241.20877975 343.61580112 -241.21169281 342.90474129 C-241.22655286 339.24028289 -241.23586087 335.5758624 -241.24023438 331.91137695 C-241.2445817 328.95551965 -241.25834599 325.9999604 -241.28125 323.04418945 C-241.43217359 303.13949528 -240.59898664 283.76746158 -238 264 C-237.89286682 263.17883698 -237.78573364 262.35767395 -237.675354 261.5116272 C-237.10080704 257.22029693 -236.42980345 252.95276431 -235.6875 248.6875 C-235.47367676 247.44718018 -235.25985352 246.20686035 -235.03955078 244.92895508 C-229.83855019 215.67379614 -221.27322209 186.02798733 -208.12695312 159.29492188 C-206.94078892 156.87942285 -205.79034256 154.44866068 -204.640625 152.015625 C-193.68599107 129.14268378 -179.4405906 107.46236257 -162 89 C-160.86970833 87.69205429 -159.74456689 86.37963752 -158.625 85.0625 C-151.61217399 77.04784171 -144.04931748 69.78181094 -135.7109375 63.16015625 C-133.98229941 61.78272561 -132.27609773 60.37631222 -130.6015625 58.93359375 C-98.92418467 31.80296889 -57.45147185 12.27283625 -17 3 C-16.30036133 2.83773926 -15.60072266 2.67547852 -14.87988281 2.50830078 C-3.96139706 0 -3.96139706 0 0 0 Z " fill="#000000" transform="translate(410,1504)"/>
<path d="M0 0 C56.244375 -0.061875 56.244375 -0.061875 113.625 -0.125 C131.30505615 -0.15231201 131.30505615 -0.15231201 149.34228516 -0.18017578 C163.86987305 -0.18920898 163.86987305 -0.18920898 170.6968689 -0.19088745 C175.40807018 -0.19273122 180.1192252 -0.20014692 184.83041382 -0.21115112 C248.19679826 -0.35258191 248.19679826 -0.35258191 277.33789062 4.06738281 C279.42904632 4.38316136 281.52258476 4.67679253 283.6171875 4.96875 C308.00302505 8.47368096 338.22333883 14.68765615 354.375 34.9375 C355.27878055 36.27263036 356.15501705 37.62690271 357 39 C357.4125 39.6290625 357.825 40.258125 358.25 40.90625 C362.25382536 48.13537912 362.20967933 56.98515781 361 65 C356.51513094 79.79160588 344.05454017 89.91668522 330.96630859 97.11914062 C324.1174343 100.73765298 317.13701989 103.99396837 310 107 C310.88558594 107.14695312 311.77117187 107.29390625 312.68359375 107.4453125 C333.81840013 111.27201001 354.31783347 118.69212115 368.3125 135.8125 C374.86890915 145.28286878 377.36152146 154.5352258 376 166 C372.87863643 181.2929377 364.83810169 192.97651165 351.875 201.625 C327.01686445 216.58142696 298.60263349 222.06023608 270.125 225.3125 C269.0979747 225.43433151 269.0979747 225.43433151 268.05020142 225.55862427 C236.93402307 229.17839191 205.24056391 228.13932749 173.97624207 228.10128021 C168.4424128 228.09549823 162.90858819 228.09531244 157.37475586 228.09460449 C141.29150119 228.08939956 125.20825031 228.07543841 109.125 228.0625 C73.11375 228.041875 37.1025 228.02125 0 228 C0 152.76 0 77.52 0 0 Z " fill="#FEFEFE" transform="translate(1410,2520)"/>
<path d="M0 0 C58.0139787 -0.08060607 58.0139787 -0.08060607 82.47460938 -0.09765625 C88.06209322 -0.10157077 93.64957695 -0.10561138 99.23706055 -0.10986328 C100.28721046 -0.11065453 100.28721046 -0.11065453 101.35857552 -0.11146176 C112.59527649 -0.12011127 123.83195655 -0.13585115 135.0686452 -0.15430559 C146.63898135 -0.17314657 158.20930547 -0.18399711 169.77965623 -0.18817699 C176.26232177 -0.19076336 182.74494025 -0.1967557 189.22759056 -0.21146011 C220.6652198 -0.27997114 251.70047441 -0.07211995 282.91650391 4.06738281 C285.29570417 4.38102503 287.67681107 4.67542939 290.05859375 4.96875 C300.56531391 6.30483108 310.74307372 8.37112098 321 11 C321.94576904 11.24121582 322.89153809 11.48243164 323.8659668 11.73095703 C342.09644898 16.55756685 359.72942581 25.75382368 369.640625 42.1796875 C373.18399912 49.53117059 374.55977882 56.16016342 374.5 64.3125 C374.49355469 65.23530762 374.48710938 66.15811523 374.48046875 67.10888672 C374.12670891 80.34927959 368.12035911 90.96632352 358.75390625 100.21875 C352.18703743 105.82592863 344.81358298 109.44837137 337 113 C335.93007812 113.5053125 334.86015625 114.010625 333.7578125 114.53125 C329.03413246 116.53593373 324.05217925 117.55859786 319.0625 118.6875 C317.6074707 119.02491211 317.6074707 119.02491211 316.12304688 119.36914062 C313.74997081 119.91857203 311.37569528 120.46202842 309 121 C309.70906494 121.15033691 310.41812988 121.30067383 311.14868164 121.45556641 C355.48545739 130.96631701 355.48545739 130.96631701 368 148 C374.25422298 158.05142979 375.09666241 169.14418396 375.2109375 180.69140625 C375.23898557 182.31185942 375.26764987 183.93230201 375.296875 185.55273438 C375.33813946 188.06274337 375.37510515 190.57255015 375.40136719 193.08276367 C375.42914462 195.53603754 375.47497668 197.98846491 375.5234375 200.44140625 C375.5283168 201.55111534 375.5283168 201.55111534 375.53329468 202.6832428 C375.67030696 208.56448456 376.65112582 214.4891345 380.8125 218.9375 C383.51664335 220.25094106 386.02565724 220.6620065 389 221 C389 223.31 389 225.62 389 228 C344.12 228 299.24 228 253 228 C250.0114256 221.27570761 248.20006828 216.39707224 247.3125 209.375 C247.12880859 208.03550293 247.12880859 208.03550293 246.94140625 206.66894531 C245.93370292 198.76887983 245.56098236 190.86462098 245.46606445 182.90380859 C245.29622533 175.14666638 244.11522068 168.08954843 239 162 C239 161.34 239 160.68 239 160 C221.37988662 150.9811742 204.67565249 149.91399035 185.171875 149.68359375 C183.86686035 149.66494263 182.5618457 149.6462915 181.21728516 149.6270752 C176.3949182 149.55935792 171.57245228 149.49884123 166.75 149.4375 C155.9425 149.293125 145.135 149.14875 134 149 C134 175.07 134 201.14 134 228 C89.78 228 45.56 228 0 228 C0 152.76 0 77.52 0 0 Z " fill="#FEFEFE" transform="translate(953,2520)"/>
<path d="M0 0 C110.22 0 220.44 0 334 0 C334 17.49 334 34.98 334 53 C268 53 202 53 134 53 C134 63.89 134 74.78 134 86 C190.1 86 246.2 86 304 86 C304 103.49 304 120.98 304 139 C247.9 139 191.8 139 134 139 C134 150.88 134 162.76 134 175 C202.64 175 271.28 175 342 175 C342 192.49 342 209.98 342 228 C229.14 228 116.28 228 0 228 C0 152.76 0 77.52 0 0 Z " fill="#FEFEFE" transform="translate(121,2520)"/>
<path d="M0 0 C1.57167938 0.00140488 1.57167938 0.00140488 3.17510986 0.00283813 C36.60572092 0.06759029 71.28952874 1.92950687 103.375 12.1875 C104.18678711 12.44257324 104.99857422 12.69764648 105.83496094 12.96044922 C132.56037455 21.47694769 158.18531364 34.50997001 171.88671875 60.09375 C175.375 67.34498031 175.375 67.34498031 175.375 72.1875 C158.92003415 72.37447356 142.46541339 72.5154988 126.00964165 72.60199738 C118.36869653 72.64322994 110.72841181 72.69943131 103.08789062 72.79101562 C96.42749467 72.87081338 89.76757698 72.92237934 83.10671628 72.94020796 C79.58029598 72.95062863 76.05524377 72.97507128 72.52926254 73.03334045 C68.59070162 73.0978984 64.65347268 73.09941545 60.71435547 73.09570312 C59.54838333 73.12446533 58.38241119 73.15322754 57.18110657 73.18286133 C49.41445048 73.10354414 49.41445048 73.10354414 46.37454605 70.42454529 C44.87132638 68.41003071 43.64339667 66.35296661 42.375 64.1875 C30.01364881 53.59205612 11.03928826 53.83479366 -4.31274414 53.87182617 C-7.05330097 53.87498938 -9.79277876 53.85144847 -12.53320312 53.82617188 C-30.15588884 53.64788301 -30.15588884 53.64788301 -45.625 61.1875 C-47.99018182 63.09974313 -47.99018182 63.09974313 -47.75 66.4375 C-46.4037818 70.92489402 -45.04638227 72.29955919 -41.234375 74.84765625 C-36.59145261 77.23167179 -31.72146667 78.44529519 -26.67391968 79.68305969 C-24.71664783 80.16493647 -22.76288076 80.66098275 -20.80932617 81.15771484 C-11.18172934 83.55840743 -1.60874849 85.19902519 8.23690796 86.396698 C10.70965633 86.69780874 13.18068852 87.01069112 15.65161133 87.32641602 C19.00055131 87.75378223 22.34988293 88.1777646 25.69970703 88.59814453 C142.9772057 103.34550719 142.9772057 103.34550719 171.375 129.1875 C172.43460938 130.14462891 172.43460938 130.14462891 173.515625 131.12109375 C182.55167089 139.70533734 187.39079231 148.76236007 187.875 161.3125 C187.49529094 177.7720624 179.9413053 190.45214837 168.2265625 201.7421875 C145.58019772 221.16222086 113.67832775 229.29682731 84.85131836 233.94287109 C82.5730857 234.31079048 80.29729122 234.69161082 78.02148438 235.07421875 C53.85220545 239.08190715 29.93007334 240.37434713 5.44360352 240.37280273 C1.60877107 240.3749738 -2.22576562 240.3931436 -6.06054688 240.41210938 C-27.8777316 240.46330922 -49.6791635 239.72713332 -71.1875 235.8125 C-73.0749292 235.48052612 -73.0749292 235.48052612 -75.00048828 235.1418457 C-78.54574105 234.50897678 -82.08584546 233.85351274 -85.625 233.1875 C-86.51010254 233.02523926 -87.39520508 232.86297852 -88.30712891 232.69580078 C-115.37689119 227.64568021 -143.03374814 217.5746138 -164.625 200.1875 C-165.78322266 199.29998047 -165.78322266 199.29998047 -166.96484375 198.39453125 C-175.86473554 191.20287205 -182.46137454 181.18414042 -185.625 170.1875 C-185.625 168.2075 -185.625 166.2275 -185.625 164.1875 C-143.055 164.1875 -100.485 164.1875 -56.625 164.1875 C-54.645 167.6525 -54.645 167.6525 -52.625 171.1875 C-42.39265827 181.80725779 -24.99601938 185.79410739 -10.79541016 186.33276367 C-9.41833678 186.34596809 -8.04119743 186.35327317 -6.6640625 186.35546875 C-5.91522797 186.35879715 -5.16639343 186.36212555 -4.39486694 186.36555481 C-2.81321826 186.37059321 -1.23155905 186.37296409 0.35009766 186.37280273 C2.70885011 186.37496232 5.06711297 186.3930759 7.42578125 186.41210938 C15.21260221 186.44146111 22.88134905 186.18914132 30.62109375 185.29296875 C31.64527908 185.17480049 31.64527908 185.17480049 32.69015503 185.054245 C41.22243989 183.9584165 49.61323812 181.67000964 56.375 176.1875 C57.96439347 173.00871306 57.79076711 170.6918228 57.375 167.1875 C41.01573887 147.55638664 -8.35609099 148.95744238 -32.09008789 145.95239258 C-49.17877154 143.78849109 -66.11170884 141.58552057 -82.92871094 137.78320312 C-85.73957512 137.16218641 -88.55775903 136.59954092 -91.3828125 136.046875 C-115.16709558 131.31078371 -139.22699363 124.29486928 -158.625 109.1875 C-159.57246094 108.48560547 -159.57246094 108.48560547 -160.5390625 107.76953125 C-169.02870143 101.09375791 -174.60038346 91.76314402 -176.625 81.1875 C-178.12690192 68.0198048 -176.34626364 57.29045133 -168.3125 46.4375 C-167.10469069 45.00258125 -165.87562618 43.58525867 -164.625 42.1875 C-164.05265625 41.52234375 -163.4803125 40.8571875 -162.890625 40.171875 C-133.68241971 8.4672419 -79.53923069 4.69328749 -39.49072266 1.50219727 C-37.1557801 1.31211637 -34.82168897 1.11037163 -32.48974609 0.88647461 C-21.67988163 -0.10129596 -10.84551049 -0.01248229 0 0 Z " fill="#FEFEFE" transform="translate(698.625,2513.8125)"/>
<path d="M0 0 C68.82683983 0 68.82683983 0 79 10 C92.07240464 25.07498577 95.75144483 45.4766949 97.75800514 64.70373154 C97.91867468 66.22831101 98.08359706 67.75244859 98.25287437 69.27609634 C99.76982044 82.96287389 100.31187603 96.47773083 100.30078125 110.2421875 C100.30468671 112.30941857 100.30902502 114.37664886 100.31376648 116.44387817 C100.32115386 120.7414207 100.32099218 125.03888097 100.31567383 129.33642578 C100.30988321 134.77391517 100.32683773 140.21106347 100.3500185 145.64849663 C100.36492993 149.90770348 100.36560432 154.16683138 100.36250877 158.42605972 C100.36301309 160.42780356 100.3680778 162.42955291 100.37832069 164.4312706 C100.51746559 195.40739472 97.64962354 231.93100857 75.57421875 255.73046875 C55.52215502 273.40914709 22.62374238 265 0 265 C0 177.55 0 90.1 0 0 Z " fill="#010101" transform="translate(1637,232)"/>
<path d="M0 0 C68.44504021 0 68.44504021 0 78 9 C101.54149909 34.50329068 100.34359681 79.87335305 100.265625 112.17578125 C100.26697897 114.20729112 100.26892551 116.23880066 100.27142334 118.27030945 C100.27433692 122.4827286 100.27019834 126.69506172 100.26074219 130.9074707 C100.24931292 136.25340985 100.25595337 141.5991488 100.26788712 146.94508076 C100.27517724 151.12429769 100.2727859 155.30346854 100.26763153 159.482687 C100.26631664 161.45227267 100.26786497 163.42186281 100.27259064 165.39144325 C100.32965085 195.81732367 98.09254825 231.8289253 76.03515625 255.0703125 C56.22402678 273.82223307 23.63751856 265 0 265 C0 177.55 0 90.1 0 0 Z " fill="#010101" transform="translate(1135,232)"/>
<path d="M0 0 C1.03833984 -0.02449219 2.07667969 -0.04898438 3.14648438 -0.07421875 C14.40728974 -0.11657915 21.96469545 3.19246215 30.05859375 10.95703125 C58.15757894 41.10134985 51.7485917 94.27624464 51.57678223 131.89324951 C51.55766796 136.88754581 51.55362875 141.88180495 51.5500679 146.87613297 C51.54488726 152.90181331 51.53040201 158.92746196 51.515625 164.953125 C51.51374428 166.07501472 51.51186356 167.19690445 51.50992584 168.35279083 C51.47418896 184.82376982 51.35404596 201.15692824 48.5625 217.4375 C48.30134399 218.97301514 48.30134399 218.97301514 48.03491211 220.53955078 C44.91309289 237.9782996 38.99177856 256.95083575 24 267.8125 C13.40429779 274.1627256 -0.04624448 275.35507618 -12.01171875 272.61328125 C-22.96855363 268.8314542 -31.42612989 261.75595218 -37.14453125 251.68359375 C-52.40629913 218.95772693 -51.07078267 181.42692098 -50.94524765 146.09041595 C-50.9373704 143.71085007 -50.93287566 141.3312969 -50.92910767 138.95172119 C-50.89309481 119.3750489 -50.70780875 99.81159057 -49.875 80.25 C-49.84015503 79.36431335 -49.80531006 78.47862671 -49.76940918 77.56610107 C-49.32893534 66.87664552 -48.10601815 56.80531495 -45.6875 46.375 C-45.52612549 45.60655762 -45.36475098 44.83811523 -45.19848633 44.04638672 C-42.24666961 30.01755611 -35.65376779 14.14737996 -23.359375 5.79296875 C-21.16648294 4.533145 -18.99557849 3.4067981 -16.6875 2.375 C-15.92872559 2.03186768 -15.16995117 1.68873535 -14.38818359 1.33520508 C-9.6998687 -0.3316854 -4.92957729 0.00600802 0 0 Z " fill="#020202" transform="translate(1434.6875,227.625)"/>
<path d="M0 0 C14.37316385 9.31285989 21.3623662 24.12651499 25.05078125 40.46875 C25.50802 42.81916266 25.94610241 45.17339743 26.36328125 47.53125 C26.63785156 49.05685547 26.63785156 49.05685547 26.91796875 50.61328125 C30.89251628 75.40834312 30.65379489 100.49688287 30.55889893 125.52441406 C30.54806862 129.11909904 30.54847606 132.71374652 30.54890537 136.30844498 C30.54613138 232.47222335 30.54613138 232.47222335 10.36328125 256.53125 C9.56470703 257.51351562 9.56470703 257.51351562 8.75 258.515625 C3.16472319 264.7540726 -5.26421252 268.97387673 -13.66040039 269.70825195 C-27.0731102 270.09296115 -37.84028919 269.56388476 -48.57421875 260.57421875 C-61.37380734 247.89583838 -65.99238146 230.60646553 -68.82421875 213.40625 C-69.07473999 211.96282227 -69.07473999 211.96282227 -69.33032227 210.49023438 C-73.0142747 186.47913113 -71.7981977 161.49456701 -71.76708984 137.26074219 C-71.76138436 132.79589193 -71.76479216 128.33110115 -71.77052307 123.8662529 C-71.80481448 92.531667 -71.80481448 92.531667 -71.20703125 77.2578125 C-71.17038361 76.32085541 -71.13373596 75.38389832 -71.09597778 74.41854858 C-69.92225354 48.94275446 -66.34458755 21.7440391 -46.63671875 3.53125 C-34.36810633 -5.96125304 -13.73694612 -7.15673025 0 0 Z " fill="#010101" transform="translate(1581.63671875,231.46875)"/>
<path d="M0 0 C67.61798337 0 67.61798337 0 76.12109375 8.00390625 C93.39038621 26.35028556 92.75436423 55.39555587 92.13183594 79.04394531 C91.43219901 94.73135994 89.15186179 115.59551923 77 127 C74.71106189 128.71960833 72.39815277 130.28479815 69.953125 131.7734375 C67.87259242 132.97890107 67.87259242 132.97890107 66 135 C66.6290625 135.18433594 67.258125 135.36867188 67.90625 135.55859375 C76.37367647 138.42782712 81.39019832 143.00618101 85.53515625 150.9375 C89.77730339 160.63383633 91.28948424 169.62767796 91.37890625 180.15625 C91.39590073 181.21622192 91.4128952 182.27619385 91.43040466 183.36828613 C91.48314406 186.74546395 91.52350995 190.12263797 91.5625 193.5 C91.62181711 197.90632145 91.68627822 202.31254856 91.75390625 206.71875 C91.77894478 208.35747826 91.77894478 208.35747826 91.80448914 210.02931213 C91.93537925 217.83456435 92.15914491 225.63310011 92.4609375 233.43359375 C92.51653587 234.92306519 92.51653587 234.92306519 92.57325745 236.44262695 C92.96925617 246.01408626 93.94220829 255.47987462 95 265 C84.77 265 74.54 265 64 265 C60.62585132 249.25397284 60.62585132 249.25397284 60.61523438 243.08349609 C60.6098616 242.40822372 60.60448883 241.73295135 60.59895325 241.03721619 C60.58934021 239.6040567 60.58617969 238.17084013 60.58930969 236.73765182 C60.59388478 234.45622821 60.57952445 232.17554174 60.56091309 229.89419556 C60.5184348 224.23644533 60.50693187 218.57871899 60.49468994 212.9208374 C60.48307287 208.11316547 60.45928194 203.30583789 60.41999817 198.49831009 C60.40662839 196.27389304 60.41055913 194.04997095 60.41540527 191.82553101 C60.37303054 180.70894185 59.65870152 168.75581578 52 160 C45.22772363 154.38045152 40.8117856 155.70084183 31 155 C31 191.3 31 227.6 31 265 C20.77 265 10.54 265 0 265 C0 177.55 0 90.1 0 0 Z " fill="#010101" transform="translate(396,232)"/>
<path d="M0 0 C13.86 0 27.72 0 42 0 C44.58957529 15.53745177 47.0218157 31.07203357 49.23046875 46.6640625 C49.33961609 47.43325516 49.44876343 48.20244781 49.56121826 48.99494934 C50.11009678 52.86397081 50.65664248 56.73329262 51.19873047 60.60327148 C52.18341364 67.59035086 53.24293226 74.54540052 54.55102539 81.48071289 C55.33186044 85.86213589 55.87187316 90.27410126 56.4375 94.6875 C57.29478739 101.18659135 58.24342512 107.62831032 59.5 114.0625 C61.8165569 125.94535661 63.31941775 137.95111337 64.9375 149.9453125 C66.63206516 162.45464941 68.42739744 174.92359903 70.56567383 187.36523438 C71.88347455 195.09842058 72.97020197 202.85006943 73.99633789 210.62670898 C74.67771166 215.75597834 75.47922247 220.82667535 76.46875 225.90625 C77.43856966 231.5540233 78.13411945 237.24311656 78.88793945 242.9230957 C79.6590205 248.67487682 80.52226039 254.38293575 81.66796875 260.07421875 C82 262 82 262 82 265 C71.11 265 60.22 265 49 265 C46.69102872 251.06370907 44.55189639 237.13410705 42.75 223.125 C42.66141724 222.44065887 42.57283447 221.75631775 42.48156738 221.05123901 C41 209.56494755 41 209.56494755 41 206 C26.81 206 12.62 206 -2 206 C-2 209.3 -2 212.6 -2 216 C-2.34741211 218.71044922 -2.34741211 218.71044922 -2.83984375 220.9296875 C-3.84918141 225.97904366 -4.5854813 231.02969291 -5.25390625 236.1328125 C-5.36076752 236.94248474 -5.46762878 237.75215698 -5.57772827 238.58636475 C-6.02178808 241.96397472 -6.46125856 245.34216437 -6.89819336 248.72070312 C-7.22150444 251.2127254 -7.5499105 253.70403536 -7.87890625 256.1953125 C-7.97683975 256.96497345 -8.07477325 257.7346344 -8.17567444 258.52761841 C-8.8867949 263.8867949 -8.8867949 263.8867949 -10 265 C-12.21855264 265.08783542 -14.43988496 265.10694609 -16.66015625 265.09765625 C-17.65685585 265.09553383 -17.65685585 265.09553383 -18.6736908 265.09336853 C-20.80333899 265.08775518 -22.93288339 265.07520054 -25.0625 265.0625 C-26.50325369 265.05748671 -27.94400903 265.05292351 -29.38476562 265.04882812 C-32.92321102 265.03778145 -36.46159539 265.02050792 -40 265 C-39.4725537 252.90346945 -37.57943612 241.11862731 -35.625 229.1875 C-35.31717983 227.27547564 -35.00988547 225.36336654 -34.703125 223.45117188 C-33.32196359 214.88073723 -31.89456121 206.32156639 -30.359375 197.77734375 C-29.26248922 191.6599085 -28.35457679 185.54659973 -27.625 179.375 C-26.44724908 169.92533826 -25.02578581 160.52349112 -23.5 151.125 C-23.39095337 150.45281433 -23.28190674 149.78062866 -23.16955566 149.08807373 C-21.96945078 141.71297688 -20.72363695 134.34929312 -19.375 127 C-18.2211452 120.6247911 -17.36360022 114.24095739 -16.5625 107.8125 C-15.64120599 100.42461674 -14.53078625 93.12328271 -13.125 85.8125 C-11.15690127 75.49724157 -9.72287427 65.12719056 -8.31759644 54.72439575 C-5.84181587 36.4327665 -2.92434207 18.226132 0 0 Z " fill="#020202" transform="translate(300,232)"/>
<path d="M0 0 C10.23 0 20.46 0 31 0 C31 34.98 31 69.96 31 106 C42.88 106 54.76 106 67 106 C67 71.02 67 36.04 67 0 C77.23 0 87.46 0 98 0 C98 87.45 98 174.9 98 265 C87.77 265 77.54 265 67 265 C67 225.73 67 186.46 67 146 C55.12 146 43.24 146 31 146 C31 185.27 31 224.54 31 265 C20.77 265 10.54 265 0 265 C0 177.55 0 90.1 0 0 Z " fill="#010101" transform="translate(1261,232)"/>
<path d="M0 0 C10.23 0 20.46 0 31 0 C31 34.98 31 69.96 31 106 C42.55 106 54.1 106 66 106 C66 71.02 66 36.04 66 0 C76.23 0 86.46 0 97 0 C97 87.45 97 174.9 97 265 C86.77 265 76.54 265 66 265 C66 226.06 66 187.12 66 147 C54.45 147 42.9 147 31 147 C31 185.94 31 224.88 31 265 C20.77 265 10.54 265 0 265 C0 177.55 0 90.1 0 0 Z " fill="#020202" transform="translate(862,232)"/>
<path d="M0 0 C13.1957373 7.87670083 18.54946825 21.25182819 22.48828125 35.58984375 C24.85904678 46.91553058 25.5403005 57.65769231 25.40234375 69.171875 C25.39228027 70.65429074 25.38316045 72.13671319 25.375 73.61914062 C25.35500901 77.19952777 25.31581994 80.77895173 25.27734375 84.359375 C15.37734375 84.359375 5.47734375 84.359375 -4.72265625 84.359375 C-4.8928125 81.86503906 -5.06296875 79.37070312 -5.23828125 76.80078125 C-5.41643815 74.35783685 -5.60028526 71.91538187 -5.78466797 69.47290039 C-5.90877459 67.78875745 -6.02705797 66.10417402 -6.13916016 64.41918945 C-6.60706367 51.22785399 -6.60706367 51.22785399 -11.72265625 39.359375 C-15.491415 36.84686917 -17.25415759 36.82921414 -21.72265625 37.359375 C-27.40333423 40.81233612 -29.87306405 45.04268734 -31.72265625 51.359375 C-33.01777237 57.30344223 -33.94709374 63.32709284 -34.72265625 69.359375 C-34.80346215 69.96337002 -34.88426805 70.56736504 -34.96752262 71.18966293 C-35.71846537 77.25120467 -35.87684087 83.22576836 -35.88378906 89.32910156 C-35.88875397 90.38908356 -35.89371887 91.44906555 -35.89883423 92.54116821 C-35.91336501 96.02745226 -35.92024513 99.51369071 -35.92578125 103 C-35.92860863 104.20118217 -35.931436 105.40236435 -35.93434906 106.63994598 C-35.94931021 113.00540891 -35.95855722 119.37084937 -35.96289062 125.73632812 C-35.96834927 132.25496643 -35.99233105 138.77339312 -36.02086258 145.29196548 C-36.03965641 150.35232099 -36.04470353 155.4126274 -36.0462265 160.47301483 C-36.04921945 162.87275083 -36.05713154 165.27248669 -36.07041168 167.67218781 C-37.40383576 198.83153331 -37.40383576 198.83153331 -26.03515625 226.546875 C-25.27203125 227.145 -24.50890625 227.743125 -23.72265625 228.359375 C-23.39265625 228.689375 -23.06265625 229.019375 -22.72265625 229.359375 C-20.72516306 229.63647427 -20.72516306 229.63647427 -18.41015625 229.671875 C-17.63027344 229.70925781 -16.85039063 229.74664062 -16.046875 229.78515625 C-12.8469345 229.19894866 -11.83863378 227.7925026 -9.72265625 225.359375 C-4.68250246 215.71015972 -4.86464862 204.71562684 -4.47265625 194.109375 C-4.39610422 192.38144001 -4.31799033 190.65357348 -4.23828125 188.92578125 C-4.04552643 184.73737968 -3.88480017 180.54951519 -3.72265625 176.359375 C6.50734375 176.359375 16.73734375 176.359375 27.27734375 176.359375 C27.43697561 190.88587437 27.51339966 204.99822716 25.27734375 219.359375 C25.08269531 220.638125 24.88804687 221.916875 24.6875 223.234375 C22.09133917 237.98179745 17.4529559 254.05423489 5.33984375 263.796875 C-4.33254634 270.43258448 -15.32738415 271.19878455 -26.72265625 270.359375 C-38.20564977 267.66652233 -47.18677982 260.96865905 -53.72265625 251.234375 C-65.05703839 231.27006116 -67.52101247 207.16514435 -68.26953125 184.67578125 C-68.33198029 182.80787682 -68.33198029 182.80787682 -68.39569092 180.90223694 C-68.88203103 165.40402039 -68.94585394 149.90144609 -68.96289062 134.39672852 C-68.96726617 131.00924867 -68.98116759 127.62202481 -69.00390625 124.23461914 C-69.12397184 105.94023886 -68.87676417 87.7846544 -67.32421875 69.546875 C-67.26093636 68.79977201 -67.19765396 68.05266903 -67.13245392 67.28292656 C-65.21911416 45.2447108 -61.86375174 21.18710561 -44.72265625 5.359375 C-32.889125 -4.21014731 -13.9417966 -6.4312869 0 0 Z " fill="#020202" transform="translate(813.72265625,230.640625)"/>
<path d="M0 0 C26.73 0 53.46 0 81 0 C81 13.2 81 26.4 81 40 C64.5 40 48 40 31 40 C31 61.78 31 83.56 31 106 C46.18 106 61.36 106 77 106 C77 119.2 77 132.4 77 146 C61.82 146 46.64 146 31 146 C31 171.74 31 197.48 31 224 C48.16 224 65.32 224 83 224 C83 237.53 83 251.06 83 265 C55.61 265 28.22 265 0 265 C0 177.55 0 90.1 0 0 Z " fill="#010101" transform="translate(168,232)"/>
<path d="M0 0 C10.89 0 21.78 0 33 0 C34.42520294 4.27560882 35.49988438 8.04834297 36.34106445 12.41894531 C36.58504471 13.67596252 36.82902496 14.93297974 37.08039856 16.22808838 C37.34144161 17.59475156 37.60240012 18.9614309 37.86328125 20.328125 C38.13955774 21.75948738 38.41619148 23.19078084 38.69316101 24.62200928 C39.42308468 28.39903657 40.14815116 32.17698044 40.87219238 35.95513916 C41.5909223 39.7011228 42.31420832 43.44622576 43.03710938 47.19140625 C45.19049225 58.35520593 47.34003515 69.51970984 49.46240234 80.68945312 C49.68832565 81.87472595 49.91424896 83.05999878 50.14701843 84.28118896 C50.5622327 86.46070831 50.97564277 88.64057256 51.38679504 90.82086182 C52.42557713 96.2670491 53.5953818 101.63611673 55 107 C56.8906235 101.81813418 57.98957307 96.60542426 59.05859375 91.2109375 C59.24841324 90.27126129 59.43823273 89.33158508 59.63380432 88.36343384 C60.23860578 85.36799458 60.83851621 82.37160759 61.4375 79.375 C65.99655726 56.60750153 65.99655726 56.60750153 68.40307617 47.36328125 C69.24435139 44.03258834 69.84839361 40.69711743 70.4375 37.3125 C71.60420118 30.80720896 73.0330146 24.39166651 74.58300781 17.96777344 C75.71653908 13.25976688 76.73136659 8.54778762 77.60546875 3.78515625 C78 2 78 2 79 0 C89.23 0 99.46 0 110 0 C108.70086133 8.44440134 107.30588352 16.51032025 105.25 24.75 C104.71339653 26.94267282 104.17694243 29.1353822 103.640625 31.328125 C103.36798828 32.43478516 103.09535156 33.54144531 102.81445312 34.68164062 C101.52156589 39.94930347 100.26185039 45.22483361 99 50.5 C98.50017253 52.58337473 98.0001722 54.666708 97.5 56.75 C97.12875 58.296875 97.12875 58.296875 96.75 59.875 C96 63 95.25 66.125 94.5 69.25 C94.2527417 70.28036377 94.0054834 71.31072754 93.75073242 72.37231445 C93.24851243 74.46465277 92.7460695 76.55693758 92.2434082 78.64916992 C91.02557955 83.71932172 89.81107748 88.79020885 88.60546875 93.86328125 C85.12251775 108.49143366 81.49915452 123.08200169 77.82059765 137.66198158 C77.27916422 139.8212387 76.74788052 141.9827776 76.2172699 144.14471436 C75.42874387 147.33578355 74.58981336 150.50703593 73.71176147 153.67454529 C70.16704764 166.86119359 69.2622408 179.22378096 69.29296875 192.83203125 C69.27980956 194.93195503 69.26449269 197.03186627 69.24714661 199.13175964 C69.20777693 204.58135842 69.19713762 210.03062256 69.19311523 215.48034668 C69.18369189 221.07228443 69.14622244 226.66403284 69.11132812 232.25585938 C69.04724283 243.17060975 69.01620321 254.08507346 69 265 C58.77 265 48.54 265 38 265 C38.00636475 262.31480225 38.01272949 259.62960449 38.01928711 256.86303711 C38.03544066 247.85451614 38.01239446 238.84637601 37.97153378 229.83794308 C37.94797486 224.39169032 37.93643786 218.94603994 37.95532227 213.49975586 C38.03043915 189.18328203 37.49395898 166.5064825 30.83407593 143.01004028 C29.67807188 138.83821534 28.78131242 134.63085775 27.91796875 130.390625 C27.62925021 129.02823721 27.33940283 127.66608807 27.04833984 126.30419922 C26.90853699 125.64514587 26.76873413 124.98609253 26.62469482 124.30706787 C23.53947095 109.79062222 20.25673897 95.32505399 16.875 80.875 C16.66036102 79.95778168 16.44572205 79.04056335 16.22457886 78.09555054 C16.01181305 77.186409 15.79904724 76.27726746 15.57983398 75.34057617 C12.53607141 62.3327894 9.55647773 49.31434103 6.71191406 36.26123047 C6.0587493 33.26912658 5.39965776 30.2783744 4.73913574 27.28788757 C4.02957713 24.06798378 3.32775918 20.84639347 2.625 17.625 C2.36170898 16.43463135 2.09841797 15.2442627 1.82714844 14.01782227 C1.58770508 12.91108154 1.34826172 11.80434082 1.1015625 10.6640625 C0.78179443 9.20154053 0.78179443 9.20154053 0.45556641 7.70947266 C0 5 0 5 0 0 Z " fill="#020202" transform="translate(576,232)"/>
<path d="M0 0 C10.23 0 20.46 0 31 0 C31 72.93 31 145.86 31 221 C46.51 221 62.02 221 78 221 C78 235.52 78 250.04 78 265 C52.26 265 26.52 265 0 265 C0 177.55 0 90.1 0 0 Z " fill="#040404" transform="translate(1043,232)"/>
<path d="M0 0 C10.23 0 20.46 0 31 0 C31 72.93 31 145.86 31 221 C46.18 221 61.36 221 77 221 C77 235.19 77 249.38 77 264 C51.59 264 26.18 264 0 264 C0 176.88 0 89.76 0 0 Z " fill="#000000" transform="translate(511,232)"/>
<path d="M0 0 C10.23 0 20.46 0 31 0 C31 87.45 31 174.9 31 265 C20.77 265 10.54 265 0 265 C0 177.55 0 90.1 0 0 Z " fill="#020202" transform="translate(986,232)"/>
<path d="M0 0 C4.57399928 1.59558114 6.64462042 4.73083777 8.80078125 8.88671875 C15.86032024 27.21392584 15.1705819 47.40672797 15.203125 66.69921875 C15.20736607 68.40663207 15.20736607 68.40663207 15.21169281 70.14853859 C15.22662759 76.18146618 15.23589113 82.21437023 15.24023438 88.24731445 C15.24568777 94.40339401 15.269666 100.55924893 15.29820633 106.7152586 C15.31705972 111.51413042 15.32205036 116.31295077 15.32357025 121.11185646 C15.32655019 123.37710602 15.33441537 125.64235574 15.34775543 127.90756798 C15.62684236 178.97236344 15.62684236 178.97236344 5.02734375 191.29296875 C1.44844057 194.30641902 -2.22265577 194.41231865 -6.71875 194.33203125 C-10.50255861 193.78130568 -12.74438618 191.91984366 -15 189 C-26.46972437 171.28824876 -24.31247592 141.56528104 -24.23046875 121.3515625 C-24.22927116 119.35484853 -24.22882501 117.35813399 -24.2290802 115.36141968 C-24.22753335 111.21861131 -24.21938155 107.07589156 -24.20581055 102.93310547 C-24.18875645 97.66532863 -24.18499934 92.39764781 -24.18575573 87.12984657 C-24.18548195 83.02195344 -24.1799687 78.91408062 -24.17275429 74.80619431 C-24.16960992 72.86483284 -24.16761033 70.92346912 -24.16686058 68.98210526 C-24.12677993 19.51109718 -24.12677993 19.51109718 -15 5 C-10.03556156 0.59310619 -6.64770563 -0.65450384 0 0 Z " fill="#FCFCFC" transform="translate(1565,267)"/>
<path d="M0 0 C5.04135654 1.61323409 7.33789343 4.13091392 9.82925415 8.61959839 C21.4639866 32.27574535 17.47374263 66.15876583 17.39111328 91.72021484 C17.37400067 97.05934834 17.38419025 102.39803382 17.40144253 107.7371521 C17.59148294 177.10861946 17.59148294 177.10861946 6.875 190.25 C2.65548096 194.28606169 0.13962822 194.35922433 -5.52734375 194.26953125 C-9.17565415 193.87184813 -10.63418382 192.78331315 -13 190 C-18.81279242 181.04914211 -20.41881293 170.24265937 -21.16650391 159.8034668 C-21.24607141 158.76749454 -21.32563892 157.73152227 -21.40761757 156.66415691 C-22.20440325 145.4940149 -22.32800891 134.33858703 -22.3359375 123.14453125 C-22.34239859 120.93902001 -22.34912909 118.73350954 -22.35610962 116.52799988 C-22.36795671 111.94402078 -22.37180346 107.36011632 -22.37060547 102.77612305 C-22.37044296 98.14250068 -22.38434864 93.50927383 -22.41162109 88.87573242 C-22.66788345 44.58187324 -22.66788345 44.58187324 -20.2890625 26.88671875 C-20.14197845 25.78592484 -19.99489441 24.68513092 -19.84335327 23.55097961 C-18.56720481 15.65434221 -16.08214299 7.53773245 -10.125 1.875 C-6.32030116 -0.4078193 -4.37120814 -0.62445831 0 0 Z " fill="#FDFDFD" transform="translate(1438,267)"/>
<path d="M0 0 C19 0 19 0 25 3 C39.53758638 17.96516245 38.32149413 44.77258247 38.265625 64.28125 C38.26697926 65.99068252 38.26892604 67.70011466 38.27142334 69.4095459 C38.2743453 72.96935745 38.27017697 76.52906759 38.26074219 80.08886719 C38.24941762 84.57197884 38.25606167 89.05485114 38.26763344 93.53795433 C38.42669347 166.36272384 38.42669347 166.36272384 25.5625 180.66015625 C17.93324464 187.20224272 11.29105789 184 0 184 C0 123.28 0 62.56 0 0 Z " fill="#FBFBFB" transform="translate(1668,272)"/>
<path d="M0 0 C19 0 19 0 25 3 C31.36393655 9.55111115 33.67263034 17.53648294 35.1875 26.3125 C35.35185547 27.18583984 35.51621094 28.05917969 35.68554688 28.95898438 C37.79258984 40.55198597 38.16203069 52.04856916 38.16796875 63.8046875 C38.17119675 65.3337507 38.17456186 66.86281361 38.17805481 68.39187622 C38.18401464 71.59410309 38.18589853 74.79630314 38.18530273 77.99853516 C38.18522231 81.21734337 38.19203322 84.43600672 38.20581055 87.65478516 C38.53782634 166.52117884 38.53782634 166.52117884 25.5625 180.6953125 C17.81581523 187.16379428 11.54397157 184 0 184 C0 123.28 0 62.56 0 0 Z " fill="#FBFBFB" transform="translate(1166,272)"/>
<path d="M0 0 C18.24505171 -0.12032643 18.24505171 -0.12032643 26.13671875 -0.14648438 C31.48170113 -0.16428621 36.82652662 -0.18513937 42.17138672 -0.22631836 C46.4897341 -0.25937321 50.80791279 -0.27694804 55.12637711 -0.28463173 C56.75826796 -0.29009385 58.39015161 -0.30075419 60.02196884 -0.31719017 C77.66788679 -0.48754376 99.46905018 0.08623086 112.875 13.1875 C116.26381463 17.49260356 116.96195729 21.07092376 116.5234375 26.484375 C115.50458247 31.38096186 113.22657962 33.95740732 109.5 37.125 C92.19893583 46.39342723 71.75298478 46.16748523 52.63671875 46.09765625 C51.10830227 46.09578567 49.57988519 46.0943648 48.0514679 46.09336853 C44.07482173 46.08959363 40.09821347 46.07980779 36.12158203 46.06866455 C31.32556186 46.05651816 26.52952885 46.0520242 21.73349762 46.04621124 C14.48897224 46.03659212 7.24452965 46.01740079 0 46 C0 30.82 0 15.64 0 0 Z " fill="#020202" transform="translate(1087,2573)"/>
<path d="M0 0 C17.66570224 -0.08021762 17.66570224 -0.08021762 25.328125 -0.09765625 C30.51045951 -0.10950742 35.69272188 -0.12336239 40.875 -0.15087891 C101.14004683 -0.46213217 101.14004683 -0.46213217 114 11 C116.92942619 14.49641191 117.48736577 17.44672553 117.28125 22.015625 C116.63000074 26.61055037 114.62124984 29.36359773 111.4375 32.625 C92.75968696 46.63335978 61.91130868 42.37483347 39.86376953 42.20599365 C34.5603412 42.16934571 29.25680491 42.15603707 23.95328522 42.13863373 C15.96863944 42.10991079 7.98468216 42.05228873 0 42 C0 28.14 0 14.28 0 0 Z " fill="#020202" transform="translate(1544,2653)"/>
<path d="M0 0 C16.57830786 -0.08021762 16.57830786 -0.08021762 23.74609375 -0.09765625 C28.60177076 -0.1095265 33.45737104 -0.12343556 38.31298828 -0.15087891 C42.23580251 -0.17290671 46.15853425 -0.18463035 50.08140564 -0.18975449 C51.56421708 -0.19339738 53.04702496 -0.20050735 54.52980042 -0.21146011 C69.39592135 -0.31671727 85.11935644 -0.38124897 98 7.9375 C101.24613427 11.28507596 101.90131168 13.89469078 102.3125 18.5 C101.84632895 23.72111573 100.13232576 25.94427275 96.34375 29.4765625 C93.04345261 32.17571646 89.69864482 33.45651278 85.625 34.75 C84.37976562 35.15734375 83.13453125 35.5646875 81.8515625 35.984375 C72.62288162 38.4179014 63.37726829 38.13113289 53.90625 38.09765625 C52.34826707 38.09578842 50.79028354 38.09436624 49.2322998 38.09336853 C45.15529729 38.08957208 41.07833107 38.0797667 37.00134277 38.06866455 C32.09698232 38.05657777 27.19260965 38.0520345 22.28823853 38.04621124 C14.85880053 38.03655311 7.42944199 38.01737655 0 38 C0 25.46 0 12.92 0 0 Z " fill="#020202" transform="translate(1544,2573)"/>
<path d="M0 0 C18 0 18 0 22.375 2.3125 C29.42426482 10.54296095 29.6387909 21.36648962 29.52148438 31.64208984 C29.5000926 33.86537551 29.52134935 36.08540754 29.546875 38.30859375 C29.56788516 49.42992107 28.44418222 61.16003361 21 70 C17 73 17 73 0 73 C0 48.91 0 24.82 0 0 Z " fill="#FDFDFD" transform="translate(427,273)"/>
<path d="M0 0 C0.33 0 0.66 0 1 0 C1.10022461 0.85303711 1.20044922 1.70607422 1.30371094 2.58496094 C3.05345866 17.4121882 4.82804999 32.22749818 7 47 C8.72910437 58.77002882 10.20958321 70.55982587 11.60546875 82.37304688 C11.75886719 83.66919922 11.91226562 84.96535156 12.0703125 86.30078125 C12.22016602 87.56744629 12.37001953 88.83411133 12.52441406 90.13916016 C12.85330715 92.80913723 13.19535671 95.4734252 13.56152344 98.13818359 C13.6542453 98.81390915 13.74696716 99.4896347 13.84249878 100.18583679 C14.10107369 102.05169275 14.36458227 103.91686308 14.62841797 105.78198242 C15 109 15 109 15 114 C5.43 114 -4.14 114 -14 114 C-13.3179509 101.46433877 -11.88592249 89.0925975 -10.3125 76.640625 C-10.04699416 74.51694269 -9.78178126 72.39322374 -9.5168457 70.26947021 C-8.96480092 65.85182617 -8.40980419 61.43456661 -7.85253906 57.01757812 C-7.13794566 51.3522685 -6.43001384 45.68615012 -5.72413635 40.01974869 C-5.17914533 35.64954583 -4.63112277 31.27972744 -4.0821228 26.91002655 C-3.81973605 24.81929762 -3.55819584 22.72846226 -3.29751587 20.63751984 C-2.93443923 17.7296361 -2.5673918 14.82228132 -2.19921875 11.91503906 C-2.09217621 11.05171967 -1.98513367 10.18840027 -1.87484741 9.29891968 C-1.46283978 6.07223253 -1.03144798 3.09434394 0 0 Z " fill="#F9F9F9" transform="translate(319,283)"/>
</svg>
