<?xml version="1.0" encoding="UTF-8"?>
<svg version="1.1" xmlns="http://www.w3.org/2000/svg" width="287" height="388">
<path d="M0 0 C94.71 0 189.42 0 287 0 C287 128.04 287 256.08 287 388 C192.29 388 97.58 388 0 388 C0 259.96 0 131.92 0 0 Z " fill="#F8F8F8" transform="translate(0,0)"/>
<path d="M0 0 C94.71 0 189.42 0 287 0 C287 128.04 287 256.08 287 388 C192.29 388 97.58 388 0 388 C0 259.96 0 131.92 0 0 Z M19 90 C19 164.91 19 239.82 19 317 C101.17 317 183.34 317 268 317 C268 242.09 268 167.18 268 90 C185.83 90 103.66 90 19 90 Z " fill="#121212" transform="translate(0,0)"/>
<path d="M0 0 C1.34936523 1.38842773 1.34936523 1.38842773 2.55859375 3.18359375 C3.02104492 3.85575928 3.48349609 4.5279248 3.95996094 5.22045898 C4.44754883 5.95208252 4.93513672 6.68370605 5.4375 7.4375 C6.49211913 8.98010448 7.5481608 10.5217372 8.60546875 12.0625 C9.15509277 12.86816406 9.7047168 13.67382812 10.27099609 14.50390625 C13.73624644 19.50654951 17.36767269 24.39234783 20.98608398 29.28491211 C21.51145752 30.00428955 22.03683105 30.72366699 22.578125 31.46484375 C23.04637695 32.100271 23.51462891 32.73569824 23.99707031 33.39038086 C25 35 25 35 25 37 C25.83402344 36.59007812 26.66804688 36.18015625 27.52734375 35.7578125 C39.13409228 30.20040026 50.78771319 26.32035084 63.6875 30.125 C74.78386003 34.43913636 82.22261098 41.86532849 87.3125 52.5 C92.20347354 63.899229 94.38446161 75.65441503 90.5 87.875 C87.85703225 94.16733247 83.59082853 100.37521376 77.24609375 103.24609375 C76.50488281 103.49488281 75.76367188 103.74367188 75 104 C78.66175798 111.19724845 83.17209839 117.46178632 87.9765625 123.9140625 C92.58830184 130.11379234 96.99638128 136.45758701 101.43554688 142.78125 C103.07811258 145.11078139 104.7329736 147.4311825 106.390625 149.75 C106.94242432 150.52424316 107.49422363 151.29848633 108.06274414 152.09619141 C109.12416649 153.58489407 110.18834109 155.07163931 111.25561523 156.55615234 C111.73200439 157.22598145 112.20839355 157.89581055 112.69921875 158.5859375 C113.12033936 159.1742334 113.54145996 159.7625293 113.9753418 160.36865234 C115 162 115 162 116 165 C109.63989496 167.54460875 103.25416724 169.32441731 96.60546875 170.953125 C95.00171135 171.34984406 95.00171135 171.34984406 93.36555481 171.75457764 C91.11972987 172.30830587 88.87327199 172.85947265 86.6262207 173.40820312 C83.17871473 174.25215063 79.73487336 175.11005239 76.29101562 175.96875 C74.10437542 176.50605857 71.91753325 177.04254608 69.73046875 177.578125 C68.69923386 177.83636047 67.66799896 178.09459595 66.60551453 178.36065674 C65.65054581 178.59129822 64.69557709 178.8219397 63.71166992 179.05957031 C62.45213753 179.36909637 62.45213753 179.36909637 61.16716003 179.68487549 C59 180 59 180 56 179 C54.55786133 177.17407227 54.55786133 177.17407227 53.08203125 174.81640625 C52.55029297 173.97142578 52.01855469 173.12644531 51.47070312 172.25585938 C50.92349609 171.36705078 50.37628906 170.47824219 49.8125 169.5625 C49.25369141 168.67755859 48.69488281 167.79261719 48.11914062 166.88085938 C44 160.27715774 44 160.27715774 44 158 C43.29256149 158.17539307 42.58512299 158.35078613 41.85624695 158.53149414 C35.19162314 160.18317879 28.52618185 161.83152572 21.85980511 163.47612 C18.43252576 164.32175441 15.0055762 165.16867975 11.5793457 166.01855469 C7.64107947 166.99537988 3.70144743 167.9665898 -0.23828125 168.9375 C-1.46960281 169.24373291 -2.70092438 169.54996582 -3.96955872 169.86547852 C-5.11051498 170.14576904 -6.25147125 170.42605957 -7.42700195 170.71484375 C-8.432939 170.96355225 -9.43887604 171.21226074 -10.47529602 171.46850586 C-13 172 -13 172 -16 172 C-16 180.58 -16 189.16 -16 198 C-27.41794876 201.27737418 -38.89191171 204.28991666 -50.41027832 207.19119263 C-52.05253052 207.60517178 -53.69437824 208.02075881 -55.33581543 208.43795776 C-57.67839739 209.03258002 -60.02251522 209.62071279 -62.3671875 210.20703125 C-63.07698761 210.38805389 -63.78678772 210.56907654 -64.51809692 210.75558472 C-67.82473714 211.57467179 -70.56349607 212 -74 212 C-74.08725557 204.12083826 -73.86218846 196.33085716 -73.30078125 188.47265625 C-73.14442473 186.17277189 -72.98809476 183.87288573 -72.83178711 181.57299805 C-72.74750458 180.35526703 -72.66322205 179.13753601 -72.5763855 177.88290405 C-72.11055187 171.13879465 -71.65891641 164.3937525 -71.2109375 157.6484375 C-71.16270529 156.92325361 -71.11447308 156.19806973 -71.06477928 155.45091057 C-70.22563335 142.79621096 -69.4621657 130.1376697 -68.7265625 117.4765625 C-68.67300032 116.55607809 -68.61943813 115.63559368 -68.56425285 114.68721581 C-68.08325912 106.41464131 -67.60459441 98.14193613 -67.13540649 89.86868286 C-65.69971334 64.55559225 -63.98231331 39.27631562 -62 14 C-57.87263494 12.81175788 -53.7426457 11.64951437 -49.5871582 10.5637207 C-48.57953934 10.3003743 -47.57192047 10.03702789 -46.5337677 9.76570129 C-41.99114352 8.58554135 -37.4471238 7.41087251 -32.90209961 6.23999023 C-30.5026944 5.62002558 -28.10425624 4.99630648 -25.70678711 4.36889648 C-22.24038744 3.46215369 -18.77102336 2.56768923 -15.30078125 1.67578125 C-13.69134392 1.25091179 -13.69134392 1.25091179 -12.0493927 0.81745911 C-11.05123032 0.56356918 -10.05306793 0.30967926 -9.0246582 0.0480957 C-8.14864456 -0.1790361 -7.27263092 -0.40616791 -6.37007141 -0.6401825 C-3.86587852 -1.02036194 -2.36281255 -0.87060207 0 0 Z " fill="#0E0E0E" transform="translate(131,97)"/>
<path d="M0 0 C82.17 0 164.34 0 249 0 C249 19.47 249 38.94 249 59 C166.83 59 84.66 59 0 59 C0 39.53 0 20.06 0 0 Z " fill="#F2F2F2" transform="translate(19,18)"/>
<path d="M0 0 C94.71 0 189.42 0 287 0 C287 128.04 287 256.08 287 388 C192.29 388 97.58 388 0 388 C0 259.96 0 131.92 0 0 Z M4 4 C4 129.4 4 254.8 4 384 C96.07 384 188.14 384 283 384 C283 258.6 283 133.2 283 4 C190.93 4 98.86 4 4 4 Z " fill="#FDFDFD" transform="translate(0,0)"/>
<path d="M0 0 C9.05446689 8.11013599 14.37522568 20.41911516 15.25 32.43359375 C15.64675174 44.74529622 13.42523869 53.06728232 5.09765625 62.22265625 C2.83161645 64.14267135 0.75405672 64.95150125 -2 66 C-2.33 66.66 -2.66 67.32 -3 68 C-12.78782368 72.45458364 -27.29785486 73.07603498 -37.5 69.5625 C-48.83933614 63.92210732 -54.22908976 55.22248203 -59 44 C-59.37125 43.18015625 -59.7425 42.3603125 -60.125 41.515625 C-63.04535141 33.11961469 -63.6939055 21.99076857 -60.8359375 13.5703125 C-59.38074351 10.57783666 -57.7995925 7.79695701 -56 5 C-55.29875 3.88625 -54.5975 2.7725 -53.875 1.625 C-38.5538366 -12.36388832 -15.88015575 -12.7624004 0 0 Z " fill="#131313" transform="translate(208,135)"/>
<path d="M0 0 C6.26295179 -0.09210223 12.52353031 -0.17165986 18.78662109 -0.21972656 C20.91463202 -0.23977468 23.04258832 -0.26702054 25.17041016 -0.30175781 C28.23874433 -0.35057548 31.30634673 -0.37303726 34.375 -0.390625 C35.78954468 -0.42159271 35.78954468 -0.42159271 37.23266602 -0.45318604 C43.35462084 -0.45524038 47.87426114 0.55437771 53 4 C53.66 4.66 54.32 5.32 55 6 C54.83754442 9.73647845 54.41216356 11.52538742 51.9375 14.375 C50.9784375 15.179375 50.9784375 15.179375 50 16 C50.78375 16.45375 51.5675 16.9075 52.375 17.375 C55 19 55 19 57 21 C56.77848101 27.09177215 56.77848101 27.09177215 54.5 29.75 C47.27404668 33.36297666 40.7397608 34.4319395 32.71484375 34.29296875 C31.77314835 34.28872391 30.83145294 34.28447906 29.86122131 34.28010559 C26.88634282 34.26346216 23.91216986 34.22583772 20.9375 34.1875 C18.9069109 34.1724346 16.87631107 34.15874946 14.84570312 34.14648438 C9.8966523 34.11617169 4.94910543 34.05742409 0 34 C0 22.78 0 11.56 0 0 Z " fill="#F4F4F4" transform="translate(212,332)"/>
<path d="M0 0 C6.24464649 -0.0921719 12.48690299 -0.17170821 18.73168945 -0.21972656 C20.85286487 -0.23975746 22.97398565 -0.26699025 25.0949707 -0.30175781 C28.15589941 -0.35065214 31.21609376 -0.37305452 34.27734375 -0.390625 C35.21521225 -0.41127014 36.15308075 -0.43191528 37.11936951 -0.45318604 C43.49898212 -0.45532702 48.47411328 0.73294256 54 4 C56 6 56 6 56.5 9.3125 C55.97063044 13.2166005 55.82615991 13.60458498 53 15.9375 C52.01 16.618125 51.02 17.29875 50 18 C50.804375 18.474375 51.60875 18.94875 52.4375 19.4375 C55 21 55 21 56 22 C56.07205511 23.68608966 56.08386068 25.37500659 56.0625 27.0625 C56.05347656 27.98160156 56.04445312 28.90070313 56.03515625 29.84765625 C56.02355469 30.55792969 56.01195312 31.26820313 56 32 C56.66 32 57.32 32 58 32 C58 32.66 58 33.32 58 34 C54.68751813 34.02888146 51.37506833 34.04675799 48.0625 34.0625 C47.11697266 34.07087891 46.17144531 34.07925781 45.19726562 34.08789062 C43.84858398 34.09272461 43.84858398 34.09272461 42.47265625 34.09765625 C41.22367554 34.10551147 41.22367554 34.10551147 39.94946289 34.11352539 C38 34 38 34 37 33 C36.85806663 29.99668982 36.95763622 27.00782866 37 24 C31.72 23.34 26.44 22.68 21 22 C21 25.96 21 29.92 21 34 C14.07 34 7.14 34 0 34 C0 22.78 0 11.56 0 0 Z " fill="#F7F7F7" transform="translate(144,332)"/>
<path d="M0 0 C0.79164551 -0.00547852 1.58329102 -0.01095703 2.39892578 -0.01660156 C10.49683015 0.0815959 17.54209111 1.61696377 24.25 6.3125 C24.91 7.9625 25.57 9.6125 26.25 11.3125 C19.65 11.3125 13.05 11.3125 6.25 11.3125 C6.25 10.6525 6.25 9.9925 6.25 9.3125 C1.96 9.3125 -2.33 9.3125 -6.75 9.3125 C-7.08 9.9725 -7.41 10.6325 -7.75 11.3125 C-7.13592285 11.38243164 -6.5218457 11.45236328 -5.88916016 11.52441406 C-3.04923047 11.85613918 -0.21232332 12.20920043 2.625 12.5625 C4.07326172 12.72685547 4.07326172 12.72685547 5.55078125 12.89453125 C13.00800215 13.84545204 22.23392666 15.10547591 27.25 21.3125 C27.75 24.1875 27.75 24.1875 27.25 27.3125 C23.06698999 33.11473969 17.19788392 34.50944538 10.50390625 35.87109375 C-0.98160249 37.42915196 -14.68688711 38.00205585 -24.5546875 31.0390625 C-26.80106365 28.94498304 -27.77589019 27.23482944 -28.75 24.3125 C-25.50017 24.22521118 -22.2506425 24.17201342 -19 24.125 C-17.61941406 24.08729492 -17.61941406 24.08729492 -16.2109375 24.04882812 C-15.32148437 24.03916016 -14.43203125 24.02949219 -13.515625 24.01953125 C-12.69868164 24.0038208 -11.88173828 23.98811035 -11.04003906 23.97192383 C-8.22640555 24.39036932 -6.92568081 25.53656343 -4.75 27.3125 C-2.49654591 27.7453895 -2.49654591 27.7453895 -0.1875 27.625 C0.95912109 27.61919922 0.95912109 27.61919922 2.12890625 27.61328125 C4.54788749 27.42618696 4.54788749 27.42618696 7.25 25.3125 C1.70733298 22.62759061 -4.32151655 22.29113109 -10.35742188 21.54492188 C-16.2034645 20.75231235 -20.65383462 19.37661025 -25.625 16.0625 C-27.54354828 13.07809156 -27.23141121 10.74255488 -26.75 7.3125 C-20.90378238 -0.20406551 -8.71663325 0.04404907 0 0 Z " fill="#F5F5F5" transform="translate(106.75,330.6875)"/>
<path d="M0 0 C16.5 0 33 0 50 0 C50 2.31 50 4.62 50 7 C40.1 7 30.2 7 20 7 C20 8.98 20 10.96 20 13 C28.25 13 36.5 13 45 13 C45 15.31 45 17.62 45 20 C36.75 20 28.5 20 20 20 C20 21.98 20 23.96 20 26 C30.23 26 40.46 26 51 26 C51 28.64 51 31.28 51 34 C34.17 34 17.34 34 0 34 C0 22.78 0 11.56 0 0 Z " fill="#FAFAFA" transform="translate(20,332)"/>
<path d="M0 0 C5.83147856 -0.46037989 9.83404191 1.02569575 14.6796875 4.24609375 C23.24580707 11.56416941 27.28303296 22.96642342 28.41796875 33.91796875 C28.64558254 40.79043676 28.37269359 46.68363279 24.0390625 52.26171875 C21.7890625 54.26171875 21.7890625 54.26171875 20.0390625 55.26171875 C16.96368489 53.93523747 15.33018241 52.70481898 13.4453125 49.9453125 C12.97826904 49.27185791 12.51122559 48.59840332 12.0300293 47.90454102 C11.53801025 47.17678467 11.04599121 46.44902832 10.5390625 45.69921875 C9.4729081 44.15477403 8.40649429 42.61050836 7.33984375 41.06640625 C6.79537598 40.27202148 6.2509082 39.47763672 5.68994141 38.65917969 C3.07092832 34.85576228 0.3969802 31.09162709 -2.2734375 27.32421875 C-6.51862664 21.3145457 -10.75044649 15.29576749 -14.9609375 9.26171875 C-13.121072 5.10240196 -10.93674554 3.52247234 -6.9609375 1.26171875 C-4.61815522 0.50189747 -2.4277026 0.32401608 0 0 Z " fill="#F9F9F9" transform="translate(179.9609375,136.73828125)"/>
<path d="M0 0 C2.54613155 3.18266444 4.77782692 6.06337385 6.92578125 9.45703125 C7.46799316 10.31103516 8.01020508 11.16503906 8.56884766 12.04492188 C9.14425293 12.95822266 9.7196582 13.87152344 10.3125 14.8125 C10.91626465 15.76576172 11.5200293 16.71902344 12.14208984 17.70117188 C17.47212953 26.1295624 22.75743436 34.58618705 28.0246582 43.05395508 C28.61722412 44.0055249 29.20979004 44.95709473 29.8203125 45.9375 C30.36977539 46.82308594 30.91923828 47.70867187 31.48535156 48.62109375 C32.76521598 50.63124831 34.10302171 52.56538759 35.4921875 54.5 C35.98976562 55.325 36.48734375 56.15 37 57 C36.67 57.99 36.34 58.98 36 60 C33.44311523 60.96728516 33.44311523 60.96728516 30.05859375 61.7890625 C28.83462891 62.09070313 27.61066406 62.39234375 26.34960938 62.703125 C25.38510864 62.93032227 25.38510864 62.93032227 24.40112305 63.16210938 C22.46668386 63.6181204 20.53698053 64.09407263 18.60742188 64.5703125 C12.34710608 66.08875815 6.42952734 67.19630908 0 68 C0 45.56 0 23.12 0 0 Z " fill="#F6F6F6" transform="translate(115,160)"/>
<path d="M0 0 C4.1089256 1.36964187 5.00442476 3.22266115 7 7 C6.80463583 10.32119092 6.04902998 12.85291006 5 16 C3.80986346 29.3841585 7.4698032 41.60935659 14.8125 52.75 C18.52924399 56.57293668 21.5672006 58.76200875 26.875 59.28125 C31.36805555 59.32618056 35.5632314 59.16831571 39.9375 58.125 C43 58 43 58 44.56640625 59.1640625 C46 60.75 46 60.75 48 64 C47.505 65.485 47.505 65.485 47 67 C37.99012541 71.42302935 26.70435497 71.29427702 16.96484375 69.4140625 C7.24790132 66.05702058 0.42842299 58.7868728 -4 49.75 C-5.03307078 47.5149911 -6.03669607 45.26595356 -7 43 C-7.37125 42.18015625 -7.7425 41.3603125 -8.125 40.515625 C-11.05678172 32.08675255 -11.6935774 20.94281873 -8.80078125 12.5 C-6.4133861 7.59291073 -4.01664098 3.72849065 0 0 Z " fill="#F9F9F9" transform="translate(156,136)"/>
<path d="M0 0 C11 0 11 0 14.1484375 2.125 C17.52098834 7.31635197 16.71615863 14.06861213 16.625 20 C16.65400391 21.8871875 16.65400391 21.8871875 16.68359375 23.8125 C16.62933706 34.05616273 16.62933706 34.05616273 14.1484375 37.875 C11 40 11 40 0 40 C0 26.8 0 13.6 0 0 Z " fill="#202020" transform="translate(45,28)"/>
<path d="M0 0 C3.625 0.4375 3.625 0.4375 6 2.75 C9.31039467 8.2248835 8.84405599 13.40912105 8.875 19.625 C8.895625 20.64142578 8.91625 21.65785156 8.9375 22.70507812 C8.96999108 28.9961636 8.38036096 33.74620831 5.625 39.4375 C2.43422238 41.03288881 -0.9107288 40.94862198 -4.375 40.4375 C-7.35124865 37.84528344 -7.74316373 35.21953087 -8.375 31.4375 C-8.61076386 27.81459536 -8.60581971 24.19237082 -8.625 20.5625 C-8.645625 19.59441406 -8.66625 18.62632813 -8.6875 17.62890625 C-8.71942842 11.76205844 -8.21451141 7.60651349 -5.375 2.4375 C-3.375 0.4375 -3.375 0.4375 0 0 Z " fill="#202020" transform="translate(147.375,27.5625)"/>
<path d="M0 0 C4.03309859 1.4839452 6.58583036 3.37874554 9 7 C9.66175067 11.04712777 9.94221821 15.22065714 7.984375 18.91796875 C5.45517299 22.00329048 2.77779561 24.73684953 -1.26953125 25.3359375 C-8.22818366 25.44282924 -11.64806398 24.01674242 -16.875 19.3125 C-18.70065186 15.55977117 -18.86870112 12.06989893 -18 8 C-13.42426409 0.45773195 -8.53044739 -0.94357714 0 0 Z " fill="#F5F5F5" transform="translate(251,284)"/>
<path d="M0 0 C3.5 0.5 3.5 0.5 5.203125 2.15625 C6.84432238 5.12226936 6.83432209 7.12711651 6.75 10.5 C6.73453125 11.53125 6.7190625 12.5625 6.703125 13.625 C6.5 16.5 6.5 16.5 5.921875 18.75 C5.27848606 20.59395111 5.27848606 20.59395111 6.5 22.5 C6.64901491 24.60053716 6.72138453 26.70687825 6.75 28.8125 C6.78867188 30.50826172 6.78867188 30.50826172 6.828125 32.23828125 C6.4662712 35.83528029 5.7576978 37.69341237 3.5 40.5 C0 41.0625 0 41.0625 -3.5 40.5 C-6.05851666 38.09992359 -6.47944054 36.70755264 -6.828125 33.1875 C-6.80234375 31.970625 -6.7765625 30.75375 -6.75 29.5 C-6.73453125 28.283125 -6.7190625 27.06625 -6.703125 25.8125 C-6.5409195 23.16730265 -6.1341114 21.03644558 -5.5 18.5 C-5.83 17.84 -6.16 17.18 -6.5 16.5 C-6.6481544 14.54550156 -6.72124849 12.5848947 -6.75 10.625 C-6.77578125 9.57570313 -6.8015625 8.52640625 -6.828125 7.4453125 C-6.27976969 2.52317076 -4.92406889 0.70343841 0 0 Z " fill="#1B1B1B" transform="translate(238.5,27.5)"/>
<path d="M0 0 C1.98 0 3.96 0 6 0 C8.40174798 5.11969248 9.75539357 9.87564124 10.6875 15.4375 C11.120625 17.933125 11.55375 20.42875 12 23 C12.33 15.41 12.66 7.82 13 0 C14.32 0 15.64 0 17 0 C17 12.87 17 25.74 17 39 C14.69 39 12.38 39 10 39 C8.35 31.08 6.7 23.16 5 15 C4.67 22.59 4.34 30.18 4 38 C2.68 38 1.36 38 0 38 C0 25.46 0 12.92 0 0 Z " fill="#121212" transform="translate(160,29)"/>
<path d="M0 0 C2.31 0 4.62 0 7 0 C7.86116747 4.73107695 8.71543657 9.46332965 9.56347656 14.19677734 C9.85262171 15.80518764 10.14361338 17.41326717 10.43652344 19.02099609 C10.85843905 21.33866177 11.2735895 23.65745552 11.6875 25.9765625 C11.81874268 26.68930328 11.94998535 27.40204407 12.08520508 28.13638306 C12.7923771 32.14102328 13.13346238 35.9349584 13 40 C11.02 40 9.04 40 7 40 C7 37.03 7 34.06 7 31 C4.69 31 2.38 31 0 31 C-0.33 33.97 -0.66 36.94 -1 40 C-2.98 40 -4.96 40 -7 40 C-6.1680711 34.62416732 -5.33179826 29.24903553 -4.49145508 23.87451172 C-4.20607287 22.04527184 -3.92188809 20.21584473 -3.63891602 18.38623047 C-3.23246324 15.75959171 -2.82173833 13.13365176 -2.41015625 10.5078125 C-2.28407486 9.68693146 -2.15799347 8.86605042 -2.02809143 8.02029419 C-1.11387171 2.22774341 -1.11387171 2.22774341 0 0 Z " fill="#1E1E1E" transform="translate(30,28)"/>
<path d="M0 0 C1.65 0 3.3 0 5 0 C5.02505615 0.89831543 5.0501123 1.79663086 5.07592773 2.72216797 C5.17098693 6.05074869 5.27022421 9.37914994 5.37231445 12.70751953 C5.41566231 14.1488762 5.45733752 15.59028418 5.49731445 17.03173828 C5.55502088 19.10204541 5.61871371 21.17209432 5.68359375 23.2421875 C5.72025146 24.4885498 5.75690918 25.73491211 5.79467773 27.01904297 C5.80289479 29.92636942 5.80289479 29.92636942 7 32 C7.99 32 8.98 32 10 32 C10.33 21.44 10.66 10.88 11 0 C12.65 0 14.3 0 16 0 C16.09913574 4.75050819 16.17159264 9.50040976 16.21972656 14.25170898 C16.23979892 15.86672458 16.2670633 17.48166789 16.30175781 19.09643555 C16.35047215 21.42254501 16.37301154 23.74769093 16.390625 26.07421875 C16.41127014 26.79212082 16.43191528 27.51002289 16.45318604 28.24967957 C16.45480594 31.89741785 16.09405624 33.85383805 14.10058594 36.95166016 C11.86395824 39.13265811 11.06886893 39.70548165 8 39.6875 C7.34 39.71199219 6.68 39.73648438 6 39.76171875 C2.65441931 38.48752298 1.69011877 36.06111358 0 33 C-0.33663684 30.24935123 -0.47224142 27.92651634 -0.390625 25.1953125 C-0.38496521 24.4713327 -0.37930542 23.74735291 -0.37347412 23.00143433 C-0.35123667 20.70859212 -0.30106987 18.41736284 -0.25 16.125 C-0.22991841 14.56252271 -0.21167055 13.00002071 -0.1953125 11.4375 C-0.15141416 7.6243867 -0.08247971 3.81246598 0 0 Z " fill="#101010" transform="translate(65,29)"/>
<path d="M0 0 C3.5 0.5625 3.5 0.5625 5.9375 2.625 C7.82482417 6.17316944 7.81087045 8.59890173 7.5 12.5625 C5.52 12.5625 3.54 12.5625 1.5 12.5625 C1.5 10.5825 1.5 8.6025 1.5 6.5625 C0.51 6.8925 -0.48 7.2225 -1.5 7.5625 C-1.37148628 13.73115851 0.67822805 16.45331573 4.90625 20.86328125 C8.2654019 24.44472997 7.8954941 28.13983252 7.83984375 32.8515625 C7.5 35.5625 7.5 35.5625 5.4375 38.75 C1.76785437 41.01424943 -0.26151934 41.26891344 -4.5 40.5625 C-6.4375 39.0625 -6.4375 39.0625 -7.5 36.5625 C-7.72844671 33.84190731 -7.63704173 31.3033346 -7.5 28.5625 C-5.85 28.5625 -4.2 28.5625 -2.5 28.5625 C-2.17 30.2125 -1.84 31.8625 -1.5 33.5625 C-0.84 33.5625 -0.18 33.5625 0.5 33.5625 C0.83049595 29.97352056 0.96556521 28.17875038 -1.25 25.24609375 C-1.9925 24.50488281 -2.735 23.76367188 -3.5 23 C-7.88625936 17.87492036 -8.33125443 14.05955874 -8.171875 7.4453125 C-7.0327984 2.55787919 -4.88159397 0.78454189 0 0 Z " fill="#1A1A1A" transform="translate(121.5,27.4375)"/>
<path d="M0 0 C1.98 0 3.96 0 6 0 C6.13277344 0.78246094 6.26554688 1.56492187 6.40234375 2.37109375 C6.57894531 3.38300781 6.75554687 4.39492188 6.9375 5.4375 C7.11152344 6.44683594 7.28554687 7.45617188 7.46484375 8.49609375 C7.74751097 10.9287438 7.74751097 10.9287438 9 12 C9.13277344 11.21753906 9.26554688 10.43507813 9.40234375 9.62890625 C9.57894531 8.61699219 9.75554687 7.60507812 9.9375 6.5625 C10.11152344 5.55316406 10.28554687 4.54382812 10.46484375 3.50390625 C11 1 11 1 12 0 C13.66617115 -0.04063832 15.33388095 -0.042721 17 0 C16.42751124 5.38497241 15.45955067 10.33065477 14 15.5625 C11.91120855 23.38150542 11.23224336 30.91793124 11 39 C9.35 39 7.7 39 6 39 C5.96132812 37.51113281 5.96132812 37.51113281 5.921875 35.9921875 C5.60517997 27.58414275 4.47602733 20.23123863 1.921875 12.15234375 C0.72930787 8.07437055 0.29165943 4.22906171 0 0 Z " fill="#1C1C1C" transform="translate(192,29)"/>
<path d="M0 0 C5.28 0 10.56 0 16 0 C16 2.31 16 4.62 16 7 C14.35 7 12.7 7 11 7 C11 17.56 11 28.12 11 39 C9.02 39 7.04 39 5 39 C5 28.11 5 17.22 5 6 C3.35 6 1.7 6 0 6 C0 4.02 0 2.04 0 0 Z " fill="#252525" transform="translate(96,29)"/>
<path d="M0 0 C1.98 0 3.96 0 6 0 C6 10.89 6 21.78 6 33 C8.31 33 10.62 33 13 33 C13 35.31 13 37.62 13 40 C8.71 40 4.42 40 0 40 C0 26.8 0 13.6 0 0 Z " fill="#2A2A2A" transform="translate(181,28)"/>
<path d="M0 0 C1.65 0 3.3 0 5 0 C5 10.56 5 21.12 5 32 C7.64 32 10.28 32 13 32 C13 34.31 13 36.62 13 39 C8.71 39 4.42 39 0 39 C0 26.13 0 13.26 0 0 Z " fill="#121212" transform="translate(85,29)"/>
<path d="M0 0 C1.65 0 3.3 0 5 0 C5 13.2 5 26.4 5 40 C3.35 40 1.7 40 0 40 C-0.33 30.76 -0.66 21.52 -1 12 C-1.99 12.66 -2.98 13.32 -4 14 C-4.32545548 9.28089547 -4.39149665 6.81199306 -2.3125 2.5 C-1.549375 1.675 -0.78625 0.85 0 0 Z " fill="#1C1C1C" transform="translate(222,28)"/>
<path d="M0 0 C4.03309859 1.4839452 6.58583036 3.37874554 9 7 C9.66175067 11.04712777 9.94221821 15.22065714 7.984375 18.91796875 C5.45517299 22.00329048 2.77779561 24.73684953 -1.26953125 25.3359375 C-8.22818366 25.44282924 -11.64806398 24.01674242 -16.875 19.3125 C-18.70065186 15.55977117 -18.86870112 12.06989893 -18 8 C-13.42426409 0.45773195 -8.53044739 -0.94357714 0 0 Z M-13 5 C-15.45665197 8.68497796 -15.70086491 11.71971786 -15 16 C-13.20636089 18.8100346 -11.98119065 20.50940468 -9 22 C-4.41025729 22.64256398 -0.33836316 22.77900671 3.5 19.9375 C6.51036637 16.40031952 7.1624757 14.63055736 7 10 C5.40233677 6.86384626 3.99463459 4.75455038 1.1875 2.625 C-4.27367786 1.06466347 -8.49734388 1.52652242 -13 5 Z " fill="#242424" transform="translate(251,284)"/>
<path d="M0 0 C1.32 0 2.64 0 4 0 C4 3.63 4 7.26 4 11 C5.65 11 7.3 11 9 11 C9 12.98 9 14.96 9 17 C7.35 17 5.7 17 4 17 C4 20.63 4 24.26 4 28 C2.68 28 1.36 28 0 28 C0 24.37 0 20.74 0 17 C-1.98 17 -3.96 17 -6 17 C-6 15.02 -6 13.04 -6 11 C-4.02 11 -2.04 11 0 11 C0 7.37 0 3.74 0 0 Z " fill="#131313" transform="translate(252,36)"/>
<path d="M0 0 C1.98 0.495 1.98 0.495 4 1 C4 9.58 4 18.16 4 27 C2.68 27.33 1.36 27.66 0 28 C-1.77449594 26.22550406 -1.13030072 23.64982739 -1.1328125 21.25 C-1.13410156 20.0846875 -1.13539063 18.919375 -1.13671875 17.71875 C-1.13285156 16.4915625 -1.12898437 15.264375 -1.125 14 C-1.12886719 12.7728125 -1.13273438 11.545625 -1.13671875 10.28125 C-1.13542969 9.1159375 -1.13414062 7.950625 -1.1328125 6.75 C-1.13168457 5.67234375 -1.13055664 4.5946875 -1.12939453 3.484375 C-1 1 -1 1 0 0 Z " fill="#F5F5F5" transform="translate(146,34)"/>
<path d="M0 0 C7.71484375 -0.09765625 7.71484375 -0.09765625 10 0 C11 1 11 1 11.0625 3.4375 C11.041875 4.283125 11.02125 5.12875 11 6 C11 9.04200046 11.55486342 11.99532806 12 15 C10.68 15 9.36 15 8 15 C8 13.02 8 11.04 8 9 C6.35 8.67 4.7 8.34 3 8 C3 10.31 3 12.62 3 15 C2.01 15 1.02 15 0 15 C0 10.05 0 5.1 0 0 Z " fill="#1F1F1F" transform="translate(241,289)"/>
<path d="M0 0 C4 1 4 1 5 2 C5.0991918 3.61083745 5.1307982 5.22595644 5.1328125 6.83984375 C5.13474609 8.3103418 5.13474609 8.3103418 5.13671875 9.81054688 C5.13285156 10.84244141 5.12898438 11.87433594 5.125 12.9375 C5.12886719 13.96552734 5.13273437 14.99355469 5.13671875 16.05273438 C5.13542969 17.03435547 5.13414063 18.01597656 5.1328125 19.02734375 C5.13168457 19.93218506 5.13055664 20.83702637 5.12939453 21.76928711 C5 24 5 24 4 26 C2.68 26 1.36 26 0 26 C0 17.42 0 8.84 0 0 Z " fill="#F6F6F6" transform="translate(51,35)"/>
<path d="M0 0 C3.08798053 1.63138594 5.2664262 3.07505912 7.4375 5.8125 C8.29972945 9.16561453 7.84741162 11.6708829 7 15 C4.9375 16.9375 4.9375 16.9375 3 18 C2.814375 16.2984375 2.814375 16.2984375 2.625 14.5625 C2.41875 13.386875 2.2125 12.21125 2 11 C1.34 10.67 0.68 10.34 0 10 C0.33 9.67 0.66 9.34 1 9 C1 7.35 1 5.7 1 4 C-2.3 3.67 -5.6 3.34 -9 3 C-9 2.34 -9 1.68 -9 1 C-5.89046621 -0.5547669 -3.43733239 -0.28644437 0 0 Z " fill="#E7E7E7" transform="translate(250,286)"/>
<path d="M0 0 C2.45840605 -0.02691685 4.91651882 -0.04679802 7.375 -0.0625 C8.07367188 -0.07087891 8.77234375 -0.07925781 9.4921875 -0.08789062 C14.7734375 -0.11328125 14.7734375 -0.11328125 17 1 C16.6875 2.9375 16.6875 2.9375 16 5 C12.57767028 6.14077657 9.91326783 6.09815117 6.3125 6.0625 C4.54326172 6.04896484 4.54326172 6.04896484 2.73828125 6.03515625 C1.83464844 6.02355469 0.93101562 6.01195312 0 6 C0 4.02 0 2.04 0 0 Z " fill="#1C1C1C" transform="translate(233,352)"/>
<path d="M0 0 C2.29160319 -0.02692484 4.58329546 -0.04636124 6.875 -0.0625 C8.15117187 -0.07410156 9.42734375 -0.08570313 10.7421875 -0.09765625 C14 0 14 0 16 1 C15.67 2.65 15.34 4.3 15 6 C10.05 6 5.1 6 0 6 C0 4.02 0 2.04 0 0 Z " fill="#121212" transform="translate(165,340)"/>
<path d="M0 0 C2.12493141 -0.02693575 4.24995912 -0.04636628 6.375 -0.0625 C7.55835938 -0.07410156 8.74171875 -0.08570313 9.9609375 -0.09765625 C13 0 13 0 15 1 C14.34 2.32 13.68 3.64 13 5 C8.71 5 4.42 5 0 5 C0 3.35 0 1.7 0 0 Z " fill="#131313" transform="translate(233,340)"/>
<path d="M0 0 C0.91007813 0.00902344 1.82015625 0.01804687 2.7578125 0.02734375 C3.80582031 0.04474609 3.80582031 0.04474609 4.875 0.0625 C4.875 0.7225 4.875 1.3825 4.875 2.0625 C3.84439453 2.26166016 3.84439453 2.26166016 2.79296875 2.46484375 C1.44138672 2.72974609 1.44138672 2.72974609 0.0625 3 C-1.27748047 3.26103516 -1.27748047 3.26103516 -2.64453125 3.52734375 C-5.23897171 4.03991153 -5.23897171 4.03991153 -8.125 5.0625 C-9.15200444 7.39141096 -9.15200444 7.39141096 -9.8125 10.125 C-10.06386719 11.04410156 -10.31523437 11.96320313 -10.57421875 12.91015625 C-10.75597656 13.62042969 -10.93773437 14.33070313 -11.125 15.0625 C-11.785 15.0625 -12.445 15.0625 -13.125 15.0625 C-13.54556594 11.62787817 -13.76481991 9.06764918 -11.859375 6.07421875 C-8.01439884 1.56663747 -6.04137738 -0.07745356 0 0 Z " fill="#1B1B1B" transform="translate(246.125,283.9375)"/>
<path d="M0 0 C0.33 0 0.66 0 1 0 C1.2475 1.258125 1.495 2.51625 1.75 3.8125 C2.43775887 6.49713116 2.84350239 7.82031756 4.6875 9.9375 C7.74930981 11.34427748 10.66371851 11.6792037 14 12 C14 12.33 14 12.66 14 13 C12.35 13 10.7 13 9 13 C9 13.66 9 14.32 9 15 C3.33802191 13.68326091 1.25415939 11.59410737 -2 7 C-2 6.34 -2 5.68 -2 5 C-1.34 5 -0.68 5 0 5 C0 3.35 0 1.7 0 0 Z " fill="#3A3A3A" transform="translate(235,294)"/>
<path d="M0 0 C0.66 0 1.32 0 2 0 C2.33 3.96 2.66 7.92 3 12 C1.68 12 0.36 12 -1 12 C-0.67 8.04 -0.34 4.08 0 0 Z " fill="#DDDDDD" transform="translate(32,41)"/>
<path d="M0 0 C0.99 0 1.98 0 3 0 C3 3.63 3 7.26 3 11 C2.01 10.67 1.02 10.34 0 10 C0 6.7 0 3.4 0 0 Z " fill="#F3F3F3" transform="translate(237,51)"/>
<path d="M0 0 C0.66 0 1.32 0 2 0 C2 2.97 2 5.94 2 9 C1.01 8.67 0.02 8.34 -1 8 C-1.04241723 5.66705225 -1.04092937 3.33297433 -1 1 C-0.67 0.67 -0.34 0.34 0 0 Z " fill="#F0F0F0" transform="translate(238,34)"/>
<path d="M0 0 C0 0.99 0 1.98 0 3 C-2.64 3 -5.28 3 -8 3 C-8 2.34 -8 1.68 -8 1 C-5.23735711 0.40267181 -2.83967231 0 0 0 Z " fill="#222222" transform="translate(252,306)"/>
<path d="M0 0 C1.65 0 3.3 0 5 0 C4.67 1.32 4.34 2.64 4 4 C2.68 4 1.36 4 0 4 C0 2.68 0 1.36 0 0 Z " fill="#D6D6D6" transform="translate(244,291)"/>
<path d="M0 0 C-0.99 1.485 -0.99 1.485 -2 3 C-5.625 3.1875 -5.625 3.1875 -9 3 C-9 2.34 -9 1.68 -9 1 C-6.04335481 -0.4783226 -3.25770263 -0.06032783 0 0 Z " fill="#B3B3B3" transform="translate(250,286)"/>
</svg>
