<?xml version="1.0" encoding="UTF-8"?>
<svg version="1.1" xmlns="http://www.w3.org/2000/svg" width="287" height="388">
<path d="M0 0 C94.71 0 189.42 0 287 0 C287 128.04 287 256.08 287 388 C192.29 388 97.58 388 0 388 C0 259.96 0 131.92 0 0 Z " fill="#F8F8F8" transform="translate(0,0)"/>
<path d="M0 0 C94.71 0 189.42 0 287 0 C287 128.04 287 256.08 287 388 C192.29 388 97.58 388 0 388 C0 259.96 0 131.92 0 0 Z M19 90 C19 164.91 19 239.82 19 317 C101.17 317 183.34 317 268 317 C268 242.09 268 167.18 268 90 C185.83 90 103.66 90 19 90 Z " fill="#131313" transform="translate(0,0)"/>
<path d="M0 0 C0.9993346 2.27923948 1.67914535 4.3020749 2.3125 6.6875 C2.72886863 8.13587762 3.14693743 9.5837672 3.56640625 11.03125 C3.79086426 11.82144531 4.01532227 12.61164063 4.24658203 13.42578125 C5.92841215 19.17212499 7.83108039 24.85232926 9.67700195 30.54760742 C9.96406006 31.44326416 10.25111816 32.3389209 10.546875 33.26171875 C10.80307617 34.05537842 11.05927734 34.84903809 11.32324219 35.66674805 C12.02726804 38.09401178 12.53883528 40.5161492 13 43 C10.9718744 43.67604187 8.94344118 44.35116654 6.9140625 45.0234375 C4.88384362 45.70380576 2.85808135 46.39755686 0.8359375 47.1015625 C-7.64315413 50.01566273 -16.18964034 52.45206251 -24.8527832 54.76000977 C-31.63458541 56.58282156 -38.26467303 58.67877997 -44.90234375 60.96484375 C-48.57106923 62.1908365 -52.22791401 63.15320519 -56 64 C-55.04719844 69.22013623 -54.0803813 74.09624408 -52 79 C-52 79.99 -52 80.98 -52 82 C-51.10474609 81.65388672 -51.10474609 81.65388672 -50.19140625 81.30078125 C-43.11112493 78.63910046 -35.92972977 76.45159804 -28.66796875 74.35546875 C-24.57913916 73.17517908 -20.50545544 71.94868114 -16.43310547 70.71289062 C9.01263382 63 9.01263382 63 14 63 C18.90783577 77.54248058 23.39809648 92.07509128 27 107 C23.48926524 109.34048984 20.0244708 110.19865394 16 111.25 C9.44473783 113.01222433 2.96052077 114.91745103 -3.5 117 C-9.90667951 119.05477277 -16.33203946 121.00288211 -22.8125 122.8125 C-23.54726562 123.01939453 -24.28203125 123.22628906 -25.0390625 123.43945312 C-29.00473065 124.53203517 -32.92954512 125.40572637 -37 126 C-36.72285156 126.86882812 -36.44570312 127.73765625 -36.16015625 128.6328125 C-35.79792969 129.78523437 -35.43570313 130.93765625 -35.0625 132.125 C-34.70285156 133.26195312 -34.34320313 134.39890625 -33.97265625 135.5703125 C-33.08101661 138.71432699 -32.46648986 141.76894393 -32 145 C-31.3922876 144.8141333 -30.7845752 144.6282666 -30.15844727 144.43676758 C-19.55254532 141.19515961 -8.94551304 137.96139908 1.69921875 134.84936523 C8.89212399 132.74481918 16.06901111 130.58746938 23.24609375 128.4296875 C24.01937012 128.19862305 24.79264648 127.96755859 25.58935547 127.72949219 C27.28962233 127.21496946 28.98627568 126.68843104 30.68017578 126.15332031 C31.56044434 125.87842773 32.44071289 125.60353516 33.34765625 125.3203125 C34.14308838 125.06781738 34.93852051 124.81532227 35.75805664 124.55517578 C38 124 38 124 42 124 C42.21914062 124.71800781 42.43828125 125.43601562 42.6640625 126.17578125 C44.7678752 133.04310483 46.90303153 139.89999338 49.0625 146.75 C49.43012451 147.91849487 49.43012451 147.91849487 49.80517578 149.1105957 C50.04606934 149.87331787 50.28696289 150.63604004 50.53515625 151.421875 C50.77250488 152.17404297 51.00985352 152.92621094 51.25439453 153.70117188 C51.76860088 155.28655727 52.30205422 156.86578478 52.85107422 158.43945312 C53.12580566 159.22771484 53.40053711 160.01597656 53.68359375 160.828125 C53.9355249 161.53356445 54.18745605 162.23900391 54.44702148 162.96582031 C55 165 55 165 55 169 C43.77802564 172.45457456 32.55184319 175.8774545 21.25 179.0625 C13.76549461 181.17277705 6.34895042 183.44480979 -1.05444336 185.82275391 C-6.27634958 187.48815093 -11.52216645 189.00561826 -16.8125 190.4375 C-23.68624602 192.29960062 -30.47127912 194.3802458 -37.25 196.5625 C-44.2318262 198.8098126 -51.21552377 200.98870809 -58.28125 202.9609375 C-61.30656912 203.80624725 -64.32590953 204.66763999 -67.34375 205.5390625 C-68.75901978 205.94692993 -68.75901978 205.94692993 -70.20288086 206.36303711 C-72.07123095 206.90170511 -73.93924759 207.44153139 -75.80688477 207.98266602 C-76.66596436 208.22944092 -77.52504395 208.47621582 -78.41015625 208.73046875 C-79.55689819 209.06147583 -79.55689819 209.06147583 -80.72680664 209.39916992 C-83.13622781 210.03600651 -85.55216987 210.53473676 -88 211 C-93.84873814 194.68410267 -93.84873814 194.68410267 -95.9375 188.125 C-96.29134766 187.01511719 -96.29134766 187.01511719 -96.65234375 185.8828125 C-97 184 -97 184 -96 181 C-95.67 181.721875 -95.34 182.44375 -95 183.1875 C-91.60034344 187.96826704 -86.7140576 190.78592771 -81 192 C-78.21553161 192.14640279 -75.47227111 192.23074488 -72.6875 192.25 C-71.95337891 192.270625 -71.21925781 192.29125 -70.46289062 192.3125 C-63.38142568 192.36276772 -57.7919182 190.3756112 -52.3515625 185.58984375 C-45.28009676 177.27167451 -45.13668155 165.57667384 -45.72167969 155.25292969 C-46.512406 148.85220825 -49.61476253 143.18147346 -54.33203125 138.8671875 C-60.34320081 134.66024892 -64.68961908 133.51703935 -71.875 133.625 C-73.02162109 133.60759766 -73.02162109 133.60759766 -74.19140625 133.58984375 C-81.73761162 133.62827943 -88.52000576 135.52000576 -94 141 C-98.29280487 147.13257839 -100.16775196 153.40661528 -100.625 160.875 C-100.69976562 162.02742187 -100.77453125 163.17984375 -100.8515625 164.3671875 C-100.90054688 165.23601562 -100.94953125 166.10484375 -101 167 C-103 164 -103 164 -105 158 C-105.33 168.89 -105.66 179.78 -106 191 C-110.29 191 -114.58 191 -119 191 C-119.33 176.15 -119.66 161.3 -120 146 C-123.3 147.65 -126.6 149.3 -130 151 C-133.625 151.8125 -133.625 151.8125 -136 152 C-136 148.37 -136 144.74 -136 141 C-133.46080994 139.70326398 -130.91885762 138.41252163 -128.375 137.125 C-127.30572266 136.57779297 -127.30572266 136.57779297 -126.21484375 136.01953125 C-122.21248163 133.99999073 -118.31082927 132.2918889 -114 131 C-116.88160544 120.73337558 -120.09417692 110.60504264 -123.5 100.5 C-126.17159001 92.5721286 -128.76378199 84.65230236 -131.03588867 76.60107422 C-133.41685094 68.30801832 -136.25971297 60.15884514 -139.0546875 51.99804688 C-139.43496094 50.87720703 -139.81523437 49.75636719 -140.20703125 48.6015625 C-140.5522583 47.59432129 -140.89748535 46.58708008 -141.25317383 45.54931641 C-142 43 -142 43 -142 40 C-112.93305388 30.92603448 -112.93305388 30.92603448 -100.02734375 27.17578125 C-95.34250386 25.8140045 -90.6716521 24.40622877 -86 23 C-79.1458618 20.93833483 -72.28539381 18.90041164 -65.41601562 16.89013672 C-61.7307686 15.80971263 -58.05011041 14.71601986 -54.375 13.6015625 C-43.86934792 10.41754833 -33.33166313 7.37718893 -22.75195312 4.44775391 C-21.26211914 4.03468994 -21.26211914 4.03468994 -19.7421875 3.61328125 C-18.78151367 3.34854004 -17.82083984 3.08379883 -16.83105469 2.81103516 C-13.24292356 1.78311418 -9.69871476 0.63045038 -6.16064453 -0.55786133 C-3.69555399 -1.06229963 -2.3170471 -0.97218319 0 0 Z " fill="#0F0F0F" transform="translate(187,98)"/>
<path d="M0 0 C82.17 0 164.34 0 249 0 C249 19.47 249 38.94 249 59 C166.83 59 84.66 59 0 59 C0 39.53 0 20.06 0 0 Z " fill="#F3F3F3" transform="translate(19,18)"/>
<path d="M0 0 C94.71 0 189.42 0 287 0 C287 128.04 287 256.08 287 388 C192.29 388 97.58 388 0 388 C0 259.96 0 131.92 0 0 Z M4 4 C4 129.4 4 254.8 4 384 C96.07 384 188.14 384 283 384 C283 258.6 283 133.2 283 4 C190.93 4 98.86 4 4 4 Z " fill="#FCFCFC" transform="translate(0,0)"/>
<path d="M0 0 C3.56684073 2.49400192 6.24623304 5.2479748 8.6875 8.875 C9.079375 9.4525 9.47125 10.03 9.875 10.625 C14.5582261 18.95073528 13.8739221 30.13618296 11.9921875 39.23828125 C9.6877133 46.23884782 6.05788455 51.46758246 0.0625 55.75 C-7.60271753 59.38089251 -20.03384601 59.46590834 -28.0625 56.625 C-33.30369908 53.80281588 -36.52735838 51.71728166 -38.3125 45.875 C-38.9725 45.875 -39.6325 45.875 -40.3125 45.875 C-45.00739477 35.05457728 -45.66987527 24.50678097 -41.5625 13.3125 C-38.32205194 6.30895097 -34.2343604 2.2730042 -27.3125 -1.125 C-19.28312293 -3.53031992 -7.48219038 -3.95668373 0 0 Z " fill="#F5F5F5" transform="translate(129.3125,233.125)"/>
<path d="M0 0 C5.79879743 -0.06921641 11.59613675 -0.12884549 17.39501953 -0.16479492 C19.36381919 -0.17979561 21.33258593 -0.20020283 23.30126953 -0.22631836 C26.14624198 -0.26308815 28.99076913 -0.27981387 31.8359375 -0.29296875 C32.70302338 -0.30845261 33.57010925 -0.32393646 34.46347046 -0.33988953 C41.01279481 -0.34165599 48.47918652 0.20304914 53.78842163 4.42073059 C55 6 55 6 54.9375 8.9375 C53.89807437 12.33295706 52.68844453 13.74517555 50 16 C50.78375 16.45375 51.5675 16.9075 52.375 17.375 C55 19 55 19 57 21 C56.77848101 27.09177215 56.77848101 27.09177215 54.5 29.75 C47.27404668 33.36297666 40.7397608 34.4319395 32.71484375 34.29296875 C31.77314835 34.28872391 30.83145294 34.28447906 29.86122131 34.28010559 C26.88634282 34.26346216 23.91216986 34.22583772 20.9375 34.1875 C18.9069109 34.1724346 16.87631107 34.15874946 14.84570312 34.14648438 C9.8966523 34.11617169 4.94910543 34.05742409 0 34 C0 22.78 0 11.56 0 0 Z " fill="#F4F4F4" transform="translate(212,332)"/>
<path d="M0 0 C6.24464649 -0.0921719 12.48690299 -0.17170821 18.73168945 -0.21972656 C20.85286487 -0.23975746 22.97398565 -0.26699025 25.0949707 -0.30175781 C28.15589941 -0.35065214 31.21609376 -0.37305452 34.27734375 -0.390625 C35.21521225 -0.41127014 36.15308075 -0.43191528 37.11936951 -0.45318604 C43.49898212 -0.45532702 48.47411328 0.73294256 54 4 C56 6 56 6 56.5 9.3125 C55.97063044 13.2166005 55.82615991 13.60458498 53 15.9375 C52.01 16.618125 51.02 17.29875 50 18 C50.804375 18.474375 51.60875 18.94875 52.4375 19.4375 C55 21 55 21 56 22 C56.07205511 23.68608966 56.08386068 25.37500659 56.0625 27.0625 C56.05347656 27.98160156 56.04445312 28.90070313 56.03515625 29.84765625 C56.02355469 30.55792969 56.01195312 31.26820313 56 32 C56.66 32 57.32 32 58 32 C58 32.66 58 33.32 58 34 C54.68751813 34.02888146 51.37506833 34.04675799 48.0625 34.0625 C47.11697266 34.07087891 46.17144531 34.07925781 45.19726562 34.08789062 C43.84858398 34.09272461 43.84858398 34.09272461 42.47265625 34.09765625 C41.22367554 34.10551147 41.22367554 34.10551147 39.94946289 34.11352539 C38 34 38 34 37 33 C36.92820036 31.48071962 36.91607993 29.95832518 36.9375 28.4375 C36.94652344 27.61121094 36.95554688 26.78492188 36.96484375 25.93359375 C36.97644531 25.29550781 36.98804688 24.65742188 37 24 C33.68455701 22.89485234 30.79589889 22.67892369 27.3125 22.4375 C26.13300781 22.35371094 24.95351562 22.26992188 23.73828125 22.18359375 C22.38283203 22.09271484 22.38283203 22.09271484 21 22 C21 25.96 21 29.92 21 34 C14.07 34 7.14 34 0 34 C0 22.78 0 11.56 0 0 Z " fill="#F7F7F7" transform="translate(144,332)"/>
<path d="M0 0 C0.79164551 -0.00547852 1.58329102 -0.01095703 2.39892578 -0.01660156 C10.49683015 0.0815959 17.54209111 1.61696377 24.25 6.3125 C24.91 7.9625 25.57 9.6125 26.25 11.3125 C19.65 11.3125 13.05 11.3125 6.25 11.3125 C6.25 10.6525 6.25 9.9925 6.25 9.3125 C1.96 9.3125 -2.33 9.3125 -6.75 9.3125 C-7.08 9.9725 -7.41 10.6325 -7.75 11.3125 C-7.13592285 11.38243164 -6.5218457 11.45236328 -5.88916016 11.52441406 C-3.04923047 11.85613918 -0.21232332 12.20920043 2.625 12.5625 C4.07326172 12.72685547 4.07326172 12.72685547 5.55078125 12.89453125 C13.00800215 13.84545204 22.23392666 15.10547591 27.25 21.3125 C27.75 24.1875 27.75 24.1875 27.25 27.3125 C23.06698999 33.11473969 17.19788392 34.50944538 10.50390625 35.87109375 C-0.98160249 37.42915196 -14.68688711 38.00205585 -24.5546875 31.0390625 C-26.80106365 28.94498304 -27.77589019 27.23482944 -28.75 24.3125 C-25.50017 24.22521118 -22.2506425 24.17201342 -19 24.125 C-17.61941406 24.08729492 -17.61941406 24.08729492 -16.2109375 24.04882812 C-15.32148437 24.03916016 -14.43203125 24.02949219 -13.515625 24.01953125 C-12.69868164 24.0038208 -11.88173828 23.98811035 -11.04003906 23.97192383 C-8.22640555 24.39036932 -6.92568081 25.53656343 -4.75 27.3125 C-2.49654591 27.7453895 -2.49654591 27.7453895 -0.1875 27.625 C0.95912109 27.61919922 0.95912109 27.61919922 2.12890625 27.61328125 C4.54788749 27.42618696 4.54788749 27.42618696 7.25 25.3125 C1.70733298 22.62759061 -4.32151655 22.29113109 -10.35742188 21.54492188 C-16.2034645 20.75231235 -20.65383462 19.37661025 -25.625 16.0625 C-27.54354828 13.07809156 -27.23141121 10.74255488 -26.75 7.3125 C-20.90378238 -0.20406551 -8.71663325 0.04404907 0 0 Z " fill="#F5F5F5" transform="translate(106.75,330.6875)"/>
<path d="M0 0 C16.5 0 33 0 50 0 C50 2.31 50 4.62 50 7 C40.1 7 30.2 7 20 7 C20 8.98 20 10.96 20 13 C28.25 13 36.5 13 45 13 C45 15.31 45 17.62 45 20 C36.75 20 28.5 20 20 20 C20 21.98 20 23.96 20 26 C30.23 26 40.46 26 51 26 C51 28.64 51 31.28 51 34 C34.17 34 17.34 34 0 34 C0 22.78 0 11.56 0 0 Z " fill="#FAFAFA" transform="translate(20,332)"/>
<path d="M0 0 C3.74984867 2.84762944 5.73683019 6.68765762 6.99609375 11.12109375 C7.41452721 14.79710129 7.41580602 18.42487948 7.37109375 22.12109375 C7.38269531 23.08015625 7.39429688 24.03921875 7.40625 25.02734375 C7.37262874 33.18610166 5.75171709 39.01664475 -0.00390625 45.12109375 C-4.26649766 47.67327558 -8.15421476 47.76826542 -13.00390625 47.12109375 C-17.27445518 45.7281608 -20.01965286 43.55979726 -22.37890625 39.74609375 C-26.70256942 30.10099899 -26.38318778 17.08891159 -23.00390625 7.12109375 C-21.57629005 3.8375765 -20.43363698 2.44063711 -17.56640625 0.30859375 C-12.01055432 -1.54335689 -5.52608233 -2.42372032 0 0 Z " fill="#111111" transform="translate(123.00390625,237.87890625)"/>
<path d="M0 0 C3.63588988 0.6825267 5.1366977 2.47909638 7.2265625 5.41796875 C8.67210173 10.26098552 8.41041444 15.34667931 8.4140625 20.35546875 C8.42630859 21.23654297 8.43855469 22.11761719 8.45117188 23.02539062 C8.46446003 28.93861939 7.99890374 33.72401006 4.6640625 38.79296875 C1.53740614 40.87740633 -0.7708223 40.9778505 -4.45703125 41.14453125 C-7.29647836 40.25391209 -8.98442706 38.91069056 -10.78979492 36.54882812 C-12.97340604 31.81848367 -12.354511 26.45373543 -12.2109375 21.35546875 C-12.20513672 20.18435547 -12.19933594 19.01324219 -12.19335938 17.80664062 C-12.03058217 6.39270276 -12.03058217 6.39270276 -8.421875 1.63671875 C-5.71339941 -0.36575609 -3.26680151 -0.111731 0 0 Z " fill="#181818" transform="translate(143.7734375,27.58203125)"/>
<path d="M0 0 C2.97 0 5.94 0 9 0 C9.81520635 2.72838435 10.62724843 5.45764417 11.4375 8.1875 C11.66759766 8.95642578 11.89769531 9.72535156 12.13476562 10.51757812 C12.35712891 11.26845703 12.57949219 12.01933594 12.80859375 12.79296875 C13.01282959 13.4789917 13.21706543 14.16501465 13.42749023 14.87182617 C14.05958098 17.22147864 14.52281251 19.61406254 15 22 C15.33 14.74 15.66 7.48 16 0 C17.98 0 19.96 0 22 0 C22 13.2 22 26.4 22 40 C19.03 40 16.06 40 13 40 C12.18410432 36.959208 11.37218334 33.91744648 10.5625 30.875 C10.33240234 30.0190625 10.10230469 29.163125 9.86523438 28.28125 C9.64287109 27.44335938 9.42050781 26.60546875 9.19140625 25.7421875 C8.98717041 24.9776123 8.78293457 24.21303711 8.57250977 23.42529297 C7.91614849 20.64478427 7.4696761 17.81805662 7 15 C6.67 23.25 6.34 31.5 6 40 C4.02 40 2.04 40 0 40 C0 26.8 0 13.6 0 0 Z " fill="#1C1C1C" transform="translate(156,28)"/>
<path d="M0 0 C4.62 0 9.24 0 14 0 C18.5399449 5.67493113 18.5399449 5.67493113 18.4375 11.125 C18.43621094 12.15882812 18.43492188 13.19265625 18.43359375 14.2578125 C17.95782822 17.26670803 17.37214497 18.1752731 15 20 C15.48082031 20.48984375 15.96164063 20.9796875 16.45703125 21.484375 C18.58389475 24.95197018 18.56513296 28.29230026 18.6875 32.25 C18.73874023 33.36761719 18.73874023 33.36761719 18.79101562 34.5078125 C18.87314054 36.33802492 18.93825653 38.16898669 19 40 C16.69 40 14.38 40 12 40 C11.97421875 39.01257813 11.9484375 38.02515625 11.921875 37.0078125 C11.86515625 35.72648437 11.8084375 34.44515625 11.75 33.125 C11.70359375 31.84882812 11.6571875 30.57265625 11.609375 29.2578125 C11.40828125 28.18273437 11.2071875 27.10765625 11 26 C9.68 25.34 8.36 24.68 7 24 C7 29.28 7 34.56 7 40 C4.69 40 2.38 40 0 40 C0 26.8 0 13.6 0 0 Z " fill="#1E1E1E" transform="translate(88,28)"/>
<path d="M0 0 C3.5 0.5625 3.5 0.5625 5.875 2.25 C9.71389909 7.71304871 8.719293 15.09375247 8.75 21.5 C8.770625 22.57185547 8.79125 23.64371094 8.8125 24.74804688 C8.84045151 30.39075714 8.84828699 34.75949609 5.5 39.5625 C2.37139505 41.12680248 -0.05602925 40.91877284 -3.5 40.5625 C-6.31597291 37.87441188 -7.40021723 36.18755434 -8.01757812 32.3203125 C-8.02208984 31.12148438 -8.02660156 29.92265625 -8.03125 28.6875 C-8.03640625 27.37265625 -8.0415625 26.0578125 -8.046875 24.703125 C-8.03849609 24.02314453 -8.03011719 23.34316406 -8.02148438 22.64257812 C-8.00005496 20.56782106 -8.02131059 18.49652539 -8.046875 16.421875 C-8.04171875 15.10703125 -8.0365625 13.7921875 -8.03125 12.4375 C-8.02673828 11.23867188 -8.02222656 10.03984375 -8.01757812 8.8046875 C-7.18198223 3.5703887 -5.29491125 0.85096788 0 0 Z " fill="#171717" transform="translate(235.5,27.4375)"/>
<path d="M0 0 C4.03309859 1.4839452 6.58583036 3.37874554 9 7 C9.66100598 11.04257341 9.91928345 15.20172043 8.01953125 18.91796875 C5.21658187 22.4108749 2.28331458 24.64297263 -2.1484375 25.3359375 C-8.68467643 25.45060836 -11.98306051 23.71524554 -16.875 19.3125 C-18.70065186 15.55977117 -18.86870112 12.06989893 -18 8 C-13.42426409 0.45773195 -8.53044739 -0.94357714 0 0 Z " fill="#F5F5F5" transform="translate(251,284)"/>
<path d="M0 0 C5.61 0 11.22 0 17 0 C17 2.31 17 4.62 17 7 C13.7 7 10.4 7 7 7 C7 9.97 7 12.94 7 16 C9.97 16 12.94 16 16 16 C16 18.31 16 20.62 16 23 C13.03 23 10.06 23 7 23 C7 26.3 7 29.6 7 33 C10.3 33 13.6 33 17 33 C17 35.31 17 37.62 17 40 C11.39 40 5.78 40 0 40 C0 26.8 0 13.6 0 0 Z " fill="#2C2C2C" transform="translate(68,28)"/>
<path d="M0 0 C5.28 0 10.56 0 16 0 C16 2.31 16 4.62 16 7 C13.03 7 10.06 7 7 7 C7 9.97 7 12.94 7 16 C9.97 16 12.94 16 16 16 C16 18.31 16 20.62 16 23 C13.03 23 10.06 23 7 23 C7 26.3 7 29.6 7 33 C10.3 33 13.6 33 17 33 C17 35.31 17 37.62 17 40 C11.39 40 5.78 40 0 40 C0 26.8 0 13.6 0 0 Z " fill="#282828" transform="translate(26,28)"/>
<path d="M0 0 C2.31 0 4.62 0 7 0 C8.32 8.25 9.64 16.5 11 25 C12.27579238 17.14732162 12.27579238 17.14732162 13.54272461 9.29321289 C13.70264893 8.3211792 13.86257324 7.34914551 14.02734375 6.34765625 C14.18968506 5.34742432 14.35202637 4.34719238 14.51928711 3.31665039 C15 1 15 1 16 0 C17.99958364 -0.04080783 20.00045254 -0.04254356 22 0 C21.47295697 7.23504217 20.20933051 14.08255829 18.5 21.125 C16.98577806 27.41551057 15.6668094 33.55922734 15 40 C12.36 40 9.72 40 7 40 C4.01314971 26.733533 1.77073418 13.48172618 0 0 Z " fill="#1D1D1D" transform="translate(44,28)"/>
<path d="M0 0 C4.95 0 9.9 0 15 0 C15 1.65 15 3.3 15 5 C12.03 5 9.06 5 6 5 C6 8.3 6 11.6 6 15 C8.97 15 11.94 15 15 15 C15 16.98 15 18.96 15 21 C12.03 21 9.06 21 6 21 C6 24.63 6 28.26 6 32 C9.3 32 12.6 32 16 32 C16 34.31 16 36.62 16 39 C10.72 39 5.44 39 0 39 C0 26.13 0 13.26 0 0 Z " fill="#131313" transform="translate(183,29)"/>
<path d="M0 0 C2.31 0 4.62 0 7 0 C7.20496094 0.92683594 7.40992187 1.85367187 7.62109375 2.80859375 C7.89050781 4.00613281 8.15992187 5.20367187 8.4375 6.4375 C8.83775391 8.22994141 8.83775391 8.22994141 9.24609375 10.05859375 C9.70066748 12.8704686 9.70066748 12.8704686 11 14 C11.20496094 13.24074219 11.40992187 12.48148438 11.62109375 11.69921875 C11.89050781 10.70535156 12.15992187 9.71148437 12.4375 8.6875 C12.70433594 7.70136719 12.97117187 6.71523438 13.24609375 5.69921875 C13.78079425 3.78482474 14.37144538 1.88566385 15 0 C16.98 0 18.96 0 21 0 C20.31903133 4.92928457 19.02151563 9.47080155 17.5 14.1875 C17.16162109 15.25387695 17.16162109 15.25387695 16.81640625 16.34179688 C15.89664786 19.23440982 14.9598542 22.12043741 14 25 C13.77281504 27.56634861 13.58391816 30.11678107 13.4375 32.6875 C13.39431641 33.38939453 13.35113281 34.09128906 13.30664062 34.81445312 C13.2008264 36.54275206 13.09993419 38.2713511 13 40 C11.02 40 9.04 40 7 40 C6.99742188 39.17242187 6.99484375 38.34484375 6.9921875 37.4921875 C6.62547228 26.17291112 3.80154795 15.92850127 0.53491211 5.12207031 C0 3 0 3 0 0 Z " fill="#1A1A1A" transform="translate(108,28)"/>
<path d="M0 0 C0 12.87 0 25.74 0 39 C-1.98 39 -3.96 39 -6 39 C-6.33 29.43 -6.66 19.86 -7 10 C-8.32 10.99 -9.64 11.98 -11 13 C-11.60552093 5.85485307 -11.60552093 5.85485307 -8.875 2 C-6 0 -6 0 0 0 Z " fill="#111111" transform="translate(222,29)"/>
<path d="M0 0 C1.98 0 3.96 0 6 0 C6 2.97 6 5.94 6 9 C9.3 9 12.6 9 16 9 C16 10.98 16 12.96 16 15 C12.7 15 9.4 15 6 15 C6 18.3 6 21.6 6 25 C4.02 25 2.04 25 0 25 C0 21.7 0 18.4 0 15 C-3.3 15 -6.6 15 -10 15 C-10 13.02 -10 11.04 -10 9 C-6.7 9 -3.4 9 0 9 C0 6.03 0 3.06 0 0 Z " fill="#DBDBDB" transform="translate(158,254)"/>
<path d="M0 0 C1.65 0 3.3 0 5 0 C5 3.63 5 7.26 5 11 C6.98 11 8.96 11 11 11 C11 12.98 11 14.96 11 17 C9.02 17 7.04 17 5 17 C5 20.63 5 24.26 5 28 C3.35 28 1.7 28 0 28 C0 24.37 0 20.74 0 17 C-2.31 17 -4.62 17 -7 17 C-7 15.02 -7 13.04 -7 11 C-4.69 11 -2.38 11 0 11 C0 7.37 0 3.74 0 0 Z " fill="#181818" transform="translate(252,36)"/>
<path d="M0 0 C4.03309859 1.4839452 6.58583036 3.37874554 9 7 C9.66100598 11.04257341 9.91928345 15.20172043 8.01953125 18.91796875 C5.21658187 22.4108749 2.28331458 24.64297263 -2.1484375 25.3359375 C-8.68467643 25.45060836 -11.98306051 23.71524554 -16.875 19.3125 C-18.70065186 15.55977117 -18.86870112 12.06989893 -18 8 C-13.42426409 0.45773195 -8.53044739 -0.94357714 0 0 Z M-13 5 C-15.45665197 8.68497796 -15.70086491 11.71971786 -15 16 C-13.20636089 18.8100346 -11.98119065 20.50940468 -9 22 C-4.41025729 22.64256398 -0.33836316 22.77900671 3.5 19.9375 C6.51036637 16.40031952 7.1624757 14.63055736 7 10 C5.40233677 6.86384626 3.99463459 4.75455038 1.1875 2.625 C-4.27367786 1.06466347 -8.49734388 1.52652242 -13 5 Z " fill="#2B2B2B" transform="translate(251,284)"/>
<path d="M0 0 C3.875 0.875 3.875 0.875 5 2 C5.25256877 5.97275815 5.18522451 9.95766175 5.1875 13.9375 C5.19974609 15.06091797 5.21199219 16.18433594 5.22460938 17.34179688 C5.22750977 18.94958008 5.22750977 18.94958008 5.23046875 20.58984375 C5.23457764 21.57847412 5.23868652 22.56710449 5.24291992 23.58569336 C5 26 5 26 3 28 C0.9375 27.8125 0.9375 27.8125 -1 27 C-2.48582039 22.54253884 -2.18437504 18.16868558 -2.1875 13.5 C-2.19974609 12.53707031 -2.21199219 11.57414062 -2.22460938 10.58203125 C-2.22654297 9.65777344 -2.22847656 8.73351562 -2.23046875 7.78125 C-2.23457764 6.93626953 -2.23868652 6.09128906 -2.24291992 5.22070312 C-2 3 -2 3 0 0 Z " fill="#F4F4F4" transform="translate(140,34)"/>
<path d="M0 0 C0.99 0.33 1.98 0.66 3 1 C3 9.58 3 18.16 3 27 C1.68 27.33 0.36 27.66 -1 28 C-2.58474951 23.24575148 -2.18448088 18.41603315 -2.1875 13.4375 C-2.19974609 12.37080078 -2.21199219 11.30410156 -2.22460938 10.20507812 C-2.22654297 9.18736328 -2.22847656 8.16964844 -2.23046875 7.12109375 C-2.23457764 6.1870874 -2.23868652 5.25308105 -2.24291992 4.29077148 C-2 2 -2 2 0 0 Z " fill="#E2E2E2" transform="translate(235,34)"/>
<path d="M0 0 C7.71484375 -0.09765625 7.71484375 -0.09765625 10 0 C11 1 11 1 11.0625 3.4375 C11.041875 4.283125 11.02125 5.12875 11 6 C11 9.04200046 11.55486342 11.99532806 12 15 C10.68 15 9.36 15 8 15 C8 13.02 8 11.04 8 9 C6.35 8.67 4.7 8.34 3 8 C3 10.31 3 12.62 3 15 C2.01 15 1.02 15 0 15 C0 10.05 0 5.1 0 0 Z " fill="#1F1F1F" transform="translate(241,289)"/>
<path d="M0 0 C3.08798053 1.63138594 5.2664262 3.07505912 7.4375 5.8125 C8.29972945 9.16561453 7.84741162 11.6708829 7 15 C4.9375 16.9375 4.9375 16.9375 3 18 C2.814375 16.2984375 2.814375 16.2984375 2.625 14.5625 C2.41875 13.386875 2.2125 12.21125 2 11 C1.34 10.67 0.68 10.34 0 10 C0.33 9.67 0.66 9.34 1 9 C1 7.35 1 5.7 1 4 C-2.3 3.67 -5.6 3.34 -9 3 C-9 2.34 -9 1.68 -9 1 C-5.89046621 -0.5547669 -3.43733239 -0.28644437 0 0 Z " fill="#E7E7E7" transform="translate(250,286)"/>
<path d="M0 0 C2.45840605 -0.02691685 4.91651882 -0.04679802 7.375 -0.0625 C8.07367188 -0.07087891 8.77234375 -0.07925781 9.4921875 -0.08789062 C14.7734375 -0.11328125 14.7734375 -0.11328125 17 1 C16.6875 2.9375 16.6875 2.9375 16 5 C12.57767028 6.14077657 9.91326783 6.09815117 6.3125 6.0625 C4.54326172 6.04896484 4.54326172 6.04896484 2.73828125 6.03515625 C1.83464844 6.02355469 0.93101562 6.01195312 0 6 C0 4.02 0 2.04 0 0 Z " fill="#1D1D1D" transform="translate(233,352)"/>
<path d="M0 0 C2.29160319 -0.02692484 4.58329546 -0.04636124 6.875 -0.0625 C8.15117187 -0.07410156 9.42734375 -0.08570313 10.7421875 -0.09765625 C14 0 14 0 16 1 C15.67 2.65 15.34 4.3 15 6 C10.05 6 5.1 6 0 6 C0 4.02 0 2.04 0 0 Z " fill="#131313" transform="translate(165,340)"/>
<path d="M0 0 C4.62 0 9.24 0 14 0 C13.67 1.65 13.34 3.3 13 5 C8.71 5 4.42 5 0 5 C0 3.35 0 1.7 0 0 Z " fill="#131313" transform="translate(233,340)"/>
<path d="M0 0 C6.13062246 -0.50045898 9.06840864 0.61557456 14 4 C16.20914 7.31371 16.22481553 8.3446021 16.125 12.1875 C16.10695313 13.08855469 16.08890625 13.98960937 16.0703125 14.91796875 C16.04710937 15.60503906 16.02390625 16.29210937 16 17 C15.01 17 14.02 17 13 17 C13.0928125 15.4221875 13.0928125 15.4221875 13.1875 13.8125 C12.98895388 9.77539551 12.49309937 8.11637422 10 5 C6.68304275 2.63074482 2.97790347 2.45898886 -1 2 C-0.67 1.34 -0.34 0.68 0 0 Z " fill="#1E1E1E" transform="translate(244,284)"/>
<path d="M0 0 C1.98 0 3.96 0 6 0 C6 6.27 6 12.54 6 19 C5.67 19 5.34 19 5 19 C4.16338138 16.2092793 3.33057263 13.41751988 2.5 10.625 C2.26152344 9.8309375 2.02304688 9.036875 1.77734375 8.21875 C1.55175781 7.45820313 1.32617188 6.69765625 1.09375 5.9140625 C0.88427734 5.2123291 0.67480469 4.5105957 0.45898438 3.78759766 C0 2 0 2 0 0 Z " fill="#F5F5F5" transform="translate(75,231)"/>
<path d="M0 0 C2.97 0.495 2.97 0.495 6 1 C6.125 4.375 6.125 4.375 6 8 C5.34 8.66 4.68 9.32 4 10 C2.68 10 1.36 10 0 10 C0 6.7 0 3.4 0 0 Z " fill="#DCDCDC" transform="translate(94,35)"/>
<path d="M0 0 C0.33 0.99 0.66 1.98 1 3 C-3.39453125 7.00390625 -3.39453125 7.00390625 -5 8 C-5.99 7.67 -6.98 7.34 -8 7 C-5.42215154 4.35247996 -3.08351902 2.05567935 0 0 Z " fill="#262626" transform="translate(258,300)"/>
<path d="M0 0 C1.65 0 3.3 0 5 0 C4.67 1.32 4.34 2.64 4 4 C2.68 4 1.36 4 0 4 C0 2.68 0 1.36 0 0 Z " fill="#D5D5D5" transform="translate(244,291)"/>
<path d="M0 0 C-0.99 1.485 -0.99 1.485 -2 3 C-5.625 3.1875 -5.625 3.1875 -9 3 C-9 2.34 -9 1.68 -9 1 C-6.04335481 -0.4783226 -3.25770263 -0.06032783 0 0 Z " fill="#B5B5B5" transform="translate(250,286)"/>
</svg>
